<svg xmlns="http://www.w3.org/2000/svg" version="1.1" xmlns:xlink="http://www.w3.org/1999/xlink" xmlns:svgjs="http://svgjs.dev/svgjs" width="1500" height="1500" viewBox="0 0 1500 1500"><rect width="1500" height="1500" fill="#ffffff"></rect><g transform="matrix(0.6666666666666666,0,0,0.6666666666666666,249.3939393939395,636.1491171621462)"><svg viewBox="0 0 396 90" data-background-color="#ffffff" preserveAspectRatio="xMidYMid meet" height="340" width="1500" xmlns="http://www.w3.org/2000/svg" xmlns:xlink="http://www.w3.org/1999/xlink"><g id="tight-bounds" transform="matrix(1,0,0,1,0.23999999999995225,0.20549759738307216)"><svg viewBox="0 0 395.52 89.58900480523387" height="89.58900480523387" width="395.52"><g><svg viewBox="0 0 541.0918370106191 122.56239680930717" height="89.58900480523387" width="395.52"><g transform="matrix(1,0,0,1,145.5718370106192,24.8399044807827)"><svg viewBox="0 0 395.5199999999999 72.88258784774177" height="72.88258784774177" width="395.5199999999999"><g id="textblocktransform"><svg viewBox="0 0 395.5199999999999 72.88258784774177" height="72.88258784774177" width="395.5199999999999" id="textblock"><g><svg viewBox="0 0 395.5199999999999 48.733120269133714" height="48.733120269133714" width="395.5199999999999"><g transform="matrix(1,0,0,1,0,0)"><svg width="395.5199999999999" viewBox="0.85 -37.25 356.67999999999995 43.95" height="48.733120269133714" data-palette-color="#434443"><path d="M15.85 6.7L15.85 6.7Q11.3 6.7 8.38 5.68 5.45 4.65 3.78 2.95 2.1 1.25 1.48-0.95 0.85-3.15 0.85-5.5L0.85-5.5 0.85-12.1Q0.85-12.75 1.03-13.23 1.2-13.7 1.5-13.95L1.5-13.95 8-19.4Q8.25-19.6 8.65-19.73 9.05-19.85 9.6-19.85L9.6-19.85 16.85-19.85Q17.4-19.85 17.82-19.73 18.25-19.6 18.55-19.35L18.55-19.35 18.55-28.75Q18.55-29.4 18.73-29.85 18.9-30.3 19.25-30.6L19.25-30.6 25.7-36.05Q25.95-36.25 26.38-36.38 26.8-36.5 27.3-36.5L27.3-36.5 35.15-36.5Q36.35-36.5 36.9-35.95 37.45-35.4 37.45-34.2L37.45-34.2 37.45-9.45Q37.45-7.1 36.77-5.13 36.1-3.15 34.4-1.75L34.4-1.75 27.95 3.7Q26.25 5.1 23.35 5.9 20.45 6.7 15.85 6.7ZM36.95-9.45L36.95-9.45 36.95-34.2Q36.95-35.15 36.52-35.58 36.1-36 35.15-36L35.15-36 27.3-36Q26.35-36 25.93-35.58 25.5-35.15 25.5-34.2L25.5-34.2 25.5-11.45Q25.5-10.45 24.93-9.78 24.35-9.1 22.2-9.1L22.2-9.1Q19.9-9.1 19.28-9.78 18.65-10.45 18.65-11.45L18.65-11.45 18.65-17.55Q18.65-18.5 18.23-18.93 17.8-19.35 16.85-19.35L16.85-19.35 9.6-19.35Q8.65-19.35 8.22-18.93 7.8-18.5 7.8-17.55L7.8-17.55 7.8-9.45Q7.8-7.15 8.43-5.28 9.05-3.4 10.68-2.08 12.3-0.75 15.13 0 17.95 0.75 22.3 0.75L22.3 0.75Q26.7 0.75 29.55 0 32.4-0.75 34.02-2.08 35.65-3.4 36.3-5.28 36.95-7.15 36.95-9.45ZM30.95-10.65L30.95-31.5 31.45-31.5 31.45-10.65Q31.45-7.7 29.58-5.8 27.7-3.9 22.4-3.9L22.4-3.9Q19.6-3.9 17.78-4.4 15.95-4.9 14.9-5.78 13.85-6.65 13.43-7.9 13-9.15 13-10.65L13-10.65 13-14.6 13.5-14.6 13.5-10.65Q13.5-7.8 15.38-6.1 17.25-4.4 22.4-4.4L22.4-4.4Q27.35-4.4 29.15-6.13 30.95-7.85 30.95-10.65L30.95-10.65ZM76.6-1.85L70.15 3.55Q68.4 5.05 65.25 5.88 62.1 6.7 57.15 6.7L57.15 6.7Q52.25 6.7 49.12 5.68 46 4.65 44.22 2.95 42.45 1.25 41.77-0.95 41.1-3.15 41.1-5.5L41.1-5.5 41.1-21.05Q41.1-23.35 41.75-25.33 42.4-27.3 44.1-28.7L44.1-28.7 50.6-34.1Q52.35-35.6 55.47-36.43 58.6-37.25 63.6-37.25L63.6-37.25Q68.5-37.25 71.62-36.45 74.75-35.65 76.52-34.23 78.3-32.8 78.95-30.83 79.6-28.85 79.6-26.5L79.6-26.5 79.6-9.45Q79.6-7.15 78.95-5.2 78.3-3.25 76.6-1.85L76.6-1.85ZM79.1-9.45L79.1-9.45 79.1-26.5Q79.1-28.8 78.42-30.68 77.75-32.55 76.02-33.9 74.3-35.25 71.27-36 68.25-36.75 63.6-36.75L63.6-36.75Q58.95-36.75 55.9-36 52.85-35.25 51.12-33.9 49.4-32.55 48.72-30.68 48.05-28.8 48.05-26.5L48.05-26.5 48.05-9.45Q48.05-7.15 48.72-5.28 49.4-3.4 51.12-2.08 52.85-0.75 55.9 0 58.95 0.75 63.6 0.75L63.6 0.75Q68.25 0.75 71.27 0 74.3-0.75 76.02-2.08 77.75-3.4 78.42-5.28 79.1-7.15 79.1-9.45ZM73.65-25.35L73.65-10.6Q73.65-7.6 71.5-5.73 69.35-3.85 63.5-3.85L63.5-3.85Q57.65-3.85 55.55-5.73 53.45-7.6 53.45-10.6L53.45-10.6 53.45-25.35Q53.45-28.35 55.55-30.23 57.65-32.1 63.5-32.1L63.5-32.1Q69.35-32.1 71.5-30.23 73.65-28.35 73.65-25.35L73.65-25.35ZM53.95-25.35L53.95-10.6Q53.95-7.8 55.95-6.08 57.95-4.35 63.5-4.35L63.5-4.35Q69.05-4.35 71.1-6.08 73.15-7.8 73.15-10.6L73.15-10.6 73.15-25.35Q73.15-28.15 71.1-29.88 69.05-31.6 63.5-31.6L63.5-31.6Q57.95-31.6 55.95-29.88 53.95-28.15 53.95-25.35L53.95-25.35ZM59.4-11.25L59.4-11.25 59.4-24.7Q59.4-25.65 60.15-26.33 60.9-27 63.6-27L63.6-27Q66.3-27 67.05-26.33 67.8-25.65 67.8-24.7L67.8-24.7 67.8-11.25Q67.8-10.25 67.05-9.58 66.3-8.9 63.6-8.9L63.6-8.9Q60.9-8.9 60.15-9.58 59.4-10.25 59.4-11.25ZM59.9-20.7L59.9-11.25Q59.9-10.75 60.1-10.38 60.3-10 60.85-9.75L60.85-9.75 60.85-19.25Q60.85-19.75 60.65-20.13 60.45-20.5 59.9-20.7L59.9-20.7ZM105 5.95L85.8 5.95Q84.59 5.95 84.05 5.4 83.5 4.85 83.5 3.65L83.5 3.65 83.5-28.75Q83.5-29.4 83.67-29.85 83.84-30.3 84.2-30.6L84.2-30.6 90.65-36.05Q90.9-36.25 91.32-36.38 91.75-36.5 92.25-36.5L92.25-36.5 108.2-36.5Q113.4-36.5 115.84-34.48 118.3-32.45 118.3-28.35L118.3-28.35 118.3-25.95Q118.3-24.2 117.82-22.95 117.34-21.7 116.4-20.95L116.4-20.95 116.25-20.85Q118.95-20.25 120.3-18.28 121.65-16.3 121.65-12.8L121.65-12.8 121.65-8.2Q121.65-5.95 121-4.33 120.34-2.7 119.05-1.6L119.05-1.6 112.59 3.85Q111.34 4.9 109.45 5.43 107.55 5.95 105 5.95L105 5.95ZM92.25 0L111.45 0Q116.4 0 118.77-2 121.15-4 121.15-8.2L121.15-8.2 121.15-12.8Q121.15-16.45 119.59-18.35 118.05-20.25 114.84-20.55L114.84-20.55Q116.34-21.2 117.07-22.53 117.8-23.85 117.8-25.95L117.8-25.95 117.8-28.35Q117.8-32.25 115.45-34.13 113.09-36 108.2-36L108.2-36 92.25-36Q91.3-36 90.87-35.58 90.45-35.15 90.45-34.2L90.45-34.2 90.45-1.8Q90.45-0.85 90.87-0.43 91.3 0 92.25 0L92.25 0ZM109.45-4.5L109.45-4.5 96-4.5 96-31.5 106.15-31.5Q108.2-31.5 109.5-31.08 110.8-30.65 111.5-29.93 112.2-29.2 112.45-28.25 112.7-27.3 112.7-26.2L112.7-26.2 112.7-23Q112.7-21.5 112.17-20.25 111.65-19 109.5-18.45L109.5-18.45Q111.55-18.45 112.84-18.03 114.15-17.6 114.84-16.82 115.55-16.05 115.77-15 116-13.95 116-12.7L116-12.7 116-9.5Q116-8.4 115.75-7.48 115.5-6.55 114.82-5.9 114.15-5.25 112.84-4.88 111.55-4.5 109.45-4.5ZM106.15-31L106.15-31 96.5-31 96.5-18.45 106.15-18.45Q108.2-18.45 109.4-18.82 110.59-19.2 111.22-19.83 111.84-20.45 112.02-21.28 112.2-22.1 112.2-23L112.2-23 112.2-26.2Q112.2-28.2 111.05-29.6 109.9-31 106.15-31ZM101.7-22.1L101.7-27.5 105.95-27.5Q106.9-27.5 107.37-27 107.84-26.5 107.84-25.5L107.84-25.5 107.84-24.1Q107.84-23.1 107.37-22.6 106.9-22.1 105.95-22.1L105.95-22.1 101.7-22.1ZM109.5-17.95L109.5-17.95 96.5-17.95 96.5-5 109.45-5Q113.2-5 114.34-6.23 115.5-7.45 115.5-9.5L115.5-9.5 115.5-12.7Q115.5-14.95 114.37-16.45 113.25-17.95 109.5-17.95ZM101.7-8.5L101.7-14.4 108.2-14.4Q109.15-14.4 109.62-13.93 110.09-13.45 110.09-12.45L110.09-12.45 110.09-10.5Q110.09-9.5 109.62-9 109.15-8.5 108.2-8.5L108.2-8.5 101.7-8.5ZM134.79 5.95L134.79 5.95 127.04 5.95Q125.84 5.95 125.29 5.4 124.74 4.85 124.74 3.65L124.74 3.65 124.74-28.75Q124.74-29.4 124.92-29.85 125.09-30.3 125.44-30.6L125.44-30.6 131.89-36.05Q132.14-36.25 132.57-36.38 132.99-36.5 133.49-36.5L133.49-36.5 155.79-36.5Q156.99-36.5 157.54-35.95 158.09-35.4 158.09-34.2L158.09-34.2 158.09-28.25Q158.09-27.6 157.92-27.15 157.74-26.7 157.39-26.4L157.39-26.4 151.79-21.75Q152.94-21.75 153.49-21.2 154.04-20.65 154.04-19.45L154.04-19.45 154.04-13.45Q154.04-12.8 153.87-12.35 153.69-11.9 153.34-11.6L153.34-11.6 146.84-6.2Q146.64-6 146.22-5.85 145.79-5.7 145.29-5.7L145.29-5.7 143.54-5.7 143.54-1.8Q143.54-1.15 143.37-0.7 143.19-0.25 142.84 0.05L142.84 0.05 136.34 5.45Q136.14 5.65 135.72 5.8 135.29 5.95 134.79 5.95ZM133.49 0L141.24 0Q142.19 0 142.62-0.43 143.04-0.85 143.04-1.8L143.04-1.8 143.04-11.65 151.74-11.65Q152.69-11.65 153.12-12.08 153.54-12.5 153.54-13.45L153.54-13.45 153.54-19.45Q153.54-20.4 153.12-20.83 152.69-21.25 151.74-21.25L151.74-21.25 143.04-21.25 143.04-26.45 155.79-26.45Q156.74-26.45 157.17-26.88 157.59-27.3 157.59-28.25L157.59-28.25 157.59-34.2Q157.59-35.15 157.17-35.58 156.74-36 155.79-36L155.79-36 133.49-36Q132.54-36 132.12-35.58 131.69-35.15 131.69-34.2L131.69-34.2 131.69-1.8Q131.69-0.85 132.12-0.43 132.54 0 133.49 0L133.49 0ZM137.64-4.5L137.14-4.5 137.14-31.5 153.09-31.5 153.09-31 137.64-31 137.64-16.7 149.04-16.7 149.04-16.2 137.64-16.2 137.64-4.5ZM183.44 5.95L183.44 5.95 162.14 5.95Q160.94 5.95 160.39 5.4 159.84 4.85 159.84 3.65L159.84 3.65 159.84-2.3Q159.84-2.95 160.02-3.4 160.19-3.85 160.54-4.15L160.54-4.15 166.59-9.25 166.59-20.4 162.14-20.4Q160.94-20.4 160.39-20.95 159.84-21.5 159.84-22.7L159.84-22.7 159.84-28.75Q159.84-29.4 160.02-29.85 160.19-30.3 160.54-30.6L160.54-30.6 166.99-36.05Q167.24-36.25 167.67-36.38 168.09-36.5 168.59-36.5L168.59-36.5 189.89-36.5Q191.09-36.5 191.64-35.95 192.19-35.4 192.19-34.2L192.19-34.2 192.19-28.15Q192.19-27.5 192.02-27.05 191.84-26.6 191.49-26.3L191.49-26.3 185.54-21.3 185.54-10.05 189.89-10.05Q191.09-10.05 191.64-9.5 192.19-8.95 192.19-7.75L192.19-7.75 192.19-1.8Q192.19-1.15 192.02-0.7 191.84-0.25 191.49 0.05L191.49 0.05 184.99 5.45Q184.79 5.65 184.37 5.8 183.94 5.95 183.44 5.95ZM168.59 0L168.59 0 189.89 0Q190.84 0 191.27-0.43 191.69-0.85 191.69-1.8L191.69-1.8 191.69-7.75Q191.69-8.7 191.27-9.13 190.84-9.55 189.89-9.55L189.89-9.55 185.04-9.55 185.04-26.35 189.89-26.35Q190.84-26.35 191.27-26.78 191.69-27.2 191.69-28.15L191.69-28.15 191.69-34.2Q191.69-35.15 191.27-35.58 190.84-36 189.89-36L189.89-36 168.59-36Q167.64-36 167.22-35.58 166.79-35.15 166.79-34.2L166.79-34.2 166.79-28.15Q166.79-27.2 167.22-26.78 167.64-26.35 168.59-26.35L168.59-26.35 173.54-26.35 173.54-9.55 168.59-9.55Q167.64-9.55 167.22-9.13 166.79-8.7 166.79-7.75L166.79-7.75 166.79-1.8Q166.79-0.85 167.22-0.43 167.64 0 168.59 0ZM187.19-5L187.19-4.5 171.29-4.5 171.29-5 179.04-5 179.04-31 171.29-31 171.29-31.5 187.19-31.5 187.19-31 179.54-31 179.54-5 187.19-5ZM209.44-31.1L209.44-31.1 227.84-10.4 227.84-31.5 228.34-31.5 228.34-4.5 227.84-4.5 227.84-9.65 208.94-30.85Q208.89-30.9 208.81-30.95 208.74-31 208.69-31L208.69-31Q208.64-31 208.61-30.95 208.59-30.9 208.59-30.85L208.59-30.85 208.59-4.5 208.09-4.5 208.09-30.95Q208.09-31.25 208.29-31.4 208.49-31.55 208.69-31.55L208.69-31.55Q208.89-31.55 209.04-31.45 209.19-31.35 209.44-31.1ZM204.64 0L212.14 0Q213.09 0 213.51-0.43 213.94-0.85 213.94-1.8L213.94-1.8 213.94-18.3 222.49-7.95 222.49-1.8Q222.49-0.85 222.91-0.43 223.34 0 224.29 0L224.29 0 231.79 0Q232.74 0 233.16-0.43 233.59-0.85 233.59-1.8L233.59-1.8 233.59-34.2Q233.59-35.15 233.16-35.58 232.74-36 231.79-36L231.79-36 224.29-36Q223.34-36 222.91-35.58 222.49-35.15 222.49-34.2L222.49-34.2 222.49-23.55 212.79-34.65Q212.14-35.4 211.46-35.7 210.79-36 209.84-36L209.84-36 204.64-36Q203.69-36 203.26-35.58 202.84-35.15 202.84-34.2L202.84-34.2 202.84-1.8Q202.84-0.85 203.26-0.43 203.69 0 204.64 0L204.64 0ZM213.74 0.05L213.74 0.05 207.24 5.45Q207.04 5.65 206.61 5.8 206.19 5.95 205.69 5.95L205.69 5.95 198.19 5.95Q196.99 5.95 196.44 5.4 195.89 4.85 195.89 3.65L195.89 3.65 195.89-28.75Q195.89-29.4 196.06-29.85 196.24-30.3 196.59-30.6L196.59-30.6 203.04-36.05Q203.29-36.25 203.71-36.38 204.14-36.5 204.64-36.5L204.64-36.5 209.84-36.5Q210.94-36.5 211.69-36.15 212.44-35.8 213.19-35L213.19-35 216.64-31 222.69-36.05Q222.94-36.25 223.36-36.38 223.79-36.5 224.29-36.5L224.29-36.5 231.79-36.5Q232.99-36.5 233.54-35.95 234.09-35.4 234.09-34.2L234.09-34.2 234.09-1.8Q234.09-1.15 233.91-0.7 233.74-0.25 233.39 0.05L233.39 0.05 226.89 5.45Q226.69 5.65 226.26 5.8 225.84 5.95 225.34 5.95L225.34 5.95 217.84 5.95Q216.64 5.95 216.09 5.4 215.54 4.85 215.54 3.65L215.54 3.65 215.54-2.3 214.44-3.65 214.44-1.8Q214.44-1.15 214.26-0.7 214.09-0.25 213.74 0.05ZM273.79-2.1L267.29 3.3Q265.74 4.6 263.34 5.28 260.94 5.95 257.69 5.95L257.69 5.95 240.84 5.95Q239.64 5.95 239.09 5.4 238.54 4.85 238.54 3.65L238.54 3.65 238.54-28.75Q238.54-29.4 238.71-29.85 238.89-30.3 239.24-30.6L239.24-30.6 245.69-36.05Q245.94-36.25 246.36-36.38 246.79-36.5 247.29-36.5L247.29-36.5 264.14-36.5Q270.69-36.5 273.81-33.85 276.94-31.2 276.94-25.8L276.94-25.8 276.94-10.2Q276.94-7.5 276.14-5.48 275.34-3.45 273.79-2.1L273.79-2.1ZM247.29 0L264.14 0Q270.39 0 273.41-2.5 276.44-5 276.44-10.2L276.44-10.2 276.44-25.8Q276.44-31 273.41-33.5 270.39-36 264.14-36L264.14-36 247.29-36Q246.34-36 245.91-35.58 245.49-35.15 245.49-34.2L245.49-34.2 245.49-1.8Q245.49-0.85 245.91-0.43 246.34 0 247.29 0L247.29 0ZM263.04-4.5L250.94-4.5 250.94-31.5 263.04-31.5Q265.59-31.5 267.16-30.95 268.74-30.4 269.59-29.48 270.44-28.55 270.74-27.28 271.04-26 271.04-24.55L271.04-24.55 271.04-11.3Q271.04-9.85 270.76-8.6 270.49-7.35 269.64-6.45 268.79-5.55 267.19-5.03 265.59-4.5 263.04-4.5L263.04-4.5ZM263.04-31L263.04-31 251.44-31 251.44-5 263.04-5Q265.44-5 266.91-5.48 268.39-5.95 269.19-6.78 269.99-7.6 270.26-8.78 270.54-9.95 270.54-11.3L270.54-11.3 270.54-24.55Q270.54-25.9 270.24-27.1 269.94-28.3 269.14-29.15 268.34-30 266.86-30.5 265.39-31 263.04-31ZM256.84-9.45L256.84-26.45 262.79-26.45Q263.99-26.45 264.56-25.88 265.14-25.3 265.14-24.05L265.14-24.05 265.14-11.9Q265.14-10.65 264.56-10.05 263.99-9.45 262.79-9.45L262.79-9.45 256.84-9.45ZM258.19-9.95L258.19-18.6Q258.19-19.25 257.99-19.7 257.79-20.15 257.34-20.35L257.34-20.35 257.34-9.95 258.19-9.95ZM306.33 5.95L306.33 5.95 283.13 5.95Q281.93 5.95 281.38 5.4 280.83 4.85 280.83 3.65L280.83 3.65 280.83-28.75Q280.83-29.4 281.01-29.85 281.18-30.3 281.53-30.6L281.53-30.6 287.98-36.05Q288.23-36.25 288.66-36.38 289.08-36.5 289.58-36.5L289.58-36.5 312.78-36.5Q313.98-36.5 314.53-35.95 315.08-35.4 315.08-34.2L315.08-34.2 315.08-28.35Q315.08-27.7 314.91-27.25 314.73-26.8 314.38-26.5L314.38-26.5 310.08-22.95Q310.58-22.7 310.81-22.2 311.03-21.7 311.03-20.9L311.03-20.9 311.03-15.55Q311.03-14.9 310.86-14.45 310.68-14 310.33-13.7L310.33-13.7 305.88-9.95 312.78-9.95Q313.98-9.95 314.53-9.4 315.08-8.85 315.08-7.65L315.08-7.65 315.08-1.8Q315.08-1.15 314.91-0.7 314.73-0.25 314.38 0.05L314.38 0.05 307.88 5.45Q307.68 5.65 307.26 5.8 306.83 5.95 306.33 5.95ZM289.58 0L312.78 0Q313.73 0 314.16-0.43 314.58-0.85 314.58-1.8L314.58-1.8 314.58-7.65Q314.58-8.6 314.16-9.03 313.73-9.45 312.78-9.45L312.78-9.45 298.98-9.45 298.98-13.75 308.73-13.75Q309.68-13.75 310.11-14.18 310.53-14.6 310.53-15.55L310.53-15.55 310.53-20.9Q310.53-21.85 310.11-22.28 309.68-22.7 308.73-22.7L308.73-22.7 298.98-22.7 298.98-26.55 312.78-26.55Q313.73-26.55 314.16-26.98 314.58-27.4 314.58-28.35L314.58-28.35 314.58-34.2Q314.58-35.15 314.16-35.58 313.73-36 312.78-36L312.78-36 289.58-36Q288.63-36 288.21-35.58 287.78-35.15 287.78-34.2L287.78-34.2 287.78-1.8Q287.78-0.85 288.21-0.43 288.63 0 289.58 0L289.58 0ZM293.73-5L310.08-5 310.08-4.5 293.23-4.5 293.23-31.5 310.08-31.5 310.08-31 293.73-31 293.73-18.45 306.03-18.45 306.03-17.95 293.73-17.95 293.73-5ZM342.28-31L342.28-31 331.38-31 331.38-16.55 342.28-16.55Q345.38-16.55 346.43-18.05 347.48-19.55 347.48-22.3L347.48-22.3 347.48-25.8Q347.48-28.1 346.21-29.55 344.93-31 342.28-31ZM336.78-20.6L336.78-27 340.53-27Q341.83-27 342.28-26.33 342.73-25.65 342.73-24.65L342.73-24.65 342.73-22.95Q342.73-21.95 342.28-21.28 341.83-20.6 340.53-20.6L340.53-20.6 336.78-20.6ZM331.38-16.1L331.38-4.5 330.88-4.5 330.88-31.5 342.28-31.5Q345.18-31.5 346.58-29.88 347.98-28.25 347.98-25.8L347.98-25.8 347.98-22.35Q347.98-20.05 347.38-18.57 346.78-17.1 344.98-16.55L344.98-16.55 345.53-16.55Q348.58-16.55 350.08-15.18 351.58-13.8 351.58-11.2L351.58-11.2 351.58-4.5 351.08-4.5 351.08-11.2Q351.08-13.65 349.73-14.88 348.38-16.1 345.53-16.1L345.53-16.1 331.38-16.1ZM327.28 0L334.98 0Q335.93 0 336.36-0.43 336.78-0.85 336.78-1.8L336.78-1.8 336.78-11.6 343.78-11.6Q344.83-11.6 345.26-11.08 345.68-10.55 345.68-9.45L345.68-9.45 345.68-1.8Q345.68-0.85 346.11-0.43 346.53 0 347.48 0L347.48 0 355.23 0Q356.18 0 356.61-0.43 357.03-0.85 357.03-1.8L357.03-1.8 357.03-12.4Q357.03-15.55 355.36-17.45 353.68-19.35 350.98-19.65L350.98-19.65Q352.53-20.3 353.16-21.78 353.78-23.25 353.78-25.35L353.78-25.35 353.78-27.65Q353.78-31.35 351.66-33.68 349.53-36 343.93-36L343.93-36 327.28-36Q326.33-36 325.91-35.58 325.48-35.15 325.48-34.2L325.48-34.2 325.48-1.8Q325.48-0.85 325.91-0.43 326.33 0 327.28 0L327.28 0ZM336.58 0.05L336.58 0.05 330.08 5.45Q329.88 5.65 329.46 5.8 329.03 5.95 328.53 5.95L328.53 5.95 320.83 5.95Q319.63 5.95 319.08 5.4 318.53 4.85 318.53 3.65L318.53 3.65 318.53-28.75Q318.53-29.4 318.71-29.85 318.88-30.3 319.23-30.6L319.23-30.6 325.68-36.05Q325.93-36.25 326.36-36.38 326.78-36.5 327.28-36.5L327.28-36.5 343.93-36.5Q349.88-36.5 352.08-34.02 354.28-31.55 354.28-27.65L354.28-27.65 354.28-25.35Q354.28-23.5 353.83-22.13 353.38-20.75 352.38-19.9L352.38-19.9 352.33-19.9Q354.68-19.25 356.11-17.3 357.53-15.35 357.53-12.4L357.53-12.4 357.53-1.8Q357.53-1.15 357.36-0.7 357.18-0.25 356.83 0.05L356.83 0.05 350.33 5.45Q350.13 5.65 349.71 5.8 349.28 5.95 348.78 5.95L348.78 5.95 341.03 5.95Q339.83 5.95 339.28 5.4 338.73 4.85 338.73 3.65L338.73 3.65 338.73-4Q338.73-4.8 338.43-5.23 338.13-5.65 337.33-5.65L337.33-5.65 337.28-5.65 337.28-1.8Q337.28-1.15 337.11-0.7 336.93-0.25 336.58 0.05Z" opacity="1" transform="matrix(1,0,0,1,0,0)" fill="#000000" class="wordmark-text-0" data-fill-palette-color="primary" id="text-0"></path></svg></g></svg></g><g transform="matrix(1,0,0,1,0,60.23784036978972)"><svg viewBox="0 0 232.2097919999999 12.644747477952052" height="12.644747477952052" width="232.2097919999999"><g transform="matrix(1,0,0,1,0,0)"><svg width="232.2097919999999" viewBox="3.5 -36 844.68 46" height="12.644747477952052" data-palette-color="#2b2b2c"><path d="M3.5-35L21.5-35Q25.25-35 28.23-34.18 31.2-33.35 33.25-31.78 35.3-30.2 36.4-27.93 37.5-25.65 37.5-22.75L37.5-22.75Q37.5-19.85 36.4-17.57 35.3-15.3 33.25-13.73 31.2-12.15 28.23-11.33 25.25-10.5 21.5-10.5L21.5-10.5 10.75-10.5 10.75 0 3.5 0 3.5-35ZM21.5-31.25L10.75-31.25 10.75-14.25 21.5-14.25Q25.45-14.25 27.63-16.32 29.8-18.4 29.8-22.75L29.8-22.75Q29.8-27.1 27.63-29.18 25.45-31.25 21.5-31.25L21.5-31.25ZM61.75-26L61.75-22.5 55.75-22.5Q52.35-22.5 50.55-20.68 48.75-18.85 48.75-15.25L48.75-15.25 48.75 0 41.75 0 41.75-15.25Q41.75-20.35 44.97-23.18 48.2-26 54.25-26L54.25-26 61.75-26ZM78.25-2.25L78.25-2.25Q79.84-2.25 81.25-2.85 82.65-3.45 83.7-4.73 84.75-6 85.37-8.05 86-10.1 86-13L86-13Q86-15.9 85.37-17.95 84.75-20 83.7-21.28 82.65-22.55 81.25-23.15 79.84-23.75 78.25-23.75L78.25-23.75Q76.65-23.75 75.25-23.15 73.84-22.55 72.8-21.28 71.75-20 71.12-17.95 70.5-15.9 70.5-13L70.5-13Q70.5-10.1 71.12-8.05 71.75-6 72.8-4.73 73.84-3.45 75.25-2.85 76.65-2.25 78.25-2.25ZM78.25-27L78.25-27Q81.59-27 84.42-26.08 87.25-25.15 89.25-23.38 91.25-21.6 92.37-18.98 93.5-16.35 93.5-13L93.5-13Q93.5-9.6 92.37-7 91.25-4.4 89.25-2.63 87.25-0.85 84.42 0.08 81.59 1 78.25 1L78.25 1Q74.84 1 72.05 0.08 69.25-0.85 67.25-2.63 65.25-4.4 64.12-7 63-9.6 63-13L63-13Q63-16.35 64.12-18.98 65.25-21.6 67.25-23.38 69.25-25.15 72.05-26.08 74.84-27 78.25-27ZM126.74-15.75L126.74 0 119.74 0 119.74-15.75Q119.74-19.35 117.94-20.93 116.14-22.5 112.74-22.5L112.74-22.5 106.24-22.5 106.24 0 99.24 0 99.24-26 112.74-26Q119.89-26 123.32-23.43 126.74-20.85 126.74-15.75L126.74-15.75ZM139.24-8.25L139.24-8.25Q139.24-3.5 144.99-3.5L144.99-3.5 151.99-3.5 151.99-13 144.99-13Q139.24-13 139.24-8.25ZM144.99-16.5L151.99-16.5Q151.99-20.1 150.12-21.8 148.24-23.5 145.24-23.5L145.24-23.5Q142.99-23.5 140.84-22.83 138.69-22.15 136.99-21L136.99-21 135.24-24Q136.34-24.75 137.67-25.3 138.99-25.85 140.39-26.23 141.79-26.6 143.17-26.8 144.54-27 145.74-27L145.74-27Q148.94-27 151.39-26.25 153.84-25.5 155.54-24.1 157.24-22.7 158.12-20.78 158.99-18.85 158.99-16.5L158.99-16.5 158.99 0 144.99 0Q138.19 0 134.97-2.05 131.74-4.1 131.74-8.25L131.74-8.25Q131.74-12.4 134.97-14.45 138.19-16.5 144.99-16.5L144.99-16.5ZM179.74-3.5L185.99-3.5 185.99-22.5 179.74-22.5Q178.04-22.5 176.61-21.98 175.19-21.45 174.16-20.3 173.14-19.15 172.56-17.35 171.99-15.55 171.99-13L171.99-13Q171.99-10.45 172.56-8.65 173.14-6.85 174.16-5.7 175.19-4.55 176.61-4.03 178.04-3.5 179.74-3.5L179.74-3.5ZM192.99 0L179.74 0Q176.29 0 173.46-0.9 170.64-1.8 168.64-3.5 166.64-5.2 165.56-7.6 164.49-10 164.49-13L164.49-13Q164.49-16 165.56-18.4 166.64-20.8 168.64-22.5 170.64-24.2 173.46-25.1 176.29-26 179.74-26L179.74-26 185.99-26 185.99-35 192.99-35 192.99 0ZM207.74-25.5L207.74 0Q207.74 2.15 207.04 3.98 206.34 5.8 205.01 7.15 203.69 8.5 201.74 9.25 199.79 10 197.24 10L197.24 10Q195.94 10 194.46 9.75 192.99 9.5 191.49 8.75L191.49 8.75 192.49 5.5Q193.24 5.9 194.26 6.2 195.29 6.5 196.24 6.5L196.24 6.5Q197.19 6.5 198.01 6.15 198.84 5.8 199.44 5.03 200.04 4.25 200.39 3.03 200.74 1.8 200.74 0L200.74 0 200.74-25.5 207.74-25.5ZM207.99-32.25L207.99-32.25Q207.99-30.75 206.96-29.63 205.94-28.5 204.24-28.5L204.24-28.5Q202.54-28.5 201.51-29.63 200.49-30.75 200.49-32.25L200.49-32.25Q200.49-33.75 201.51-34.88 202.54-36 204.24-36L204.24-36Q205.89-36 206.94-34.88 207.99-33.75 207.99-32.25ZM222.23-25.5L222.23 0 215.23 0 215.23-25.5 222.23-25.5ZM222.48-32.25L222.48-32.25Q222.48-30.75 221.46-29.63 220.43-28.5 218.73-28.5L218.73-28.5Q217.03-28.5 216.01-29.63 214.98-30.75 214.98-32.25L214.98-32.25Q214.98-33.75 216.01-34.88 217.03-36 218.73-36L218.73-36Q220.38-36 221.43-34.88 222.48-33.75 222.48-32.25ZM231.73-9.5L231.73-22.5 226.98-22.5 226.98-26 231.73-26 231.73-34 238.73-34 238.73-26 246.48-26 246.48-22.5 238.73-22.5 238.73-9.5Q238.73-7.6 239.16-6.28 239.58-4.95 240.31-4.13 241.03-3.3 241.98-2.9 242.93-2.5 243.98-2.5L243.98-2.5Q245.48-2.5 246.88-2.98 248.28-3.45 249.23-4L249.23-4 250.73-0.75Q249.23 0 247.31 0.5 245.38 1 243.48 1L243.48 1Q237.83 1 234.78-1.8 231.73-4.6 231.73-9.5L231.73-9.5ZM268.23-2.5L268.23-2.5Q270.68-2.5 272.8-3.35 274.93-4.2 276.98-5.75L276.98-5.75 278.98-2.75Q278.03-1.9 276.75-1.2 275.48-0.5 274-0.03 272.53 0.45 270.93 0.73 269.33 1 267.73 1L267.73 1Q264.18 1 261.25 0.08 258.33-0.85 256.28-2.63 254.23-4.4 253.1-7 251.98-9.6 251.98-13L251.98-13Q251.98-16.35 253.05-18.98 254.13-21.6 256.05-23.38 257.98-25.15 260.63-26.08 263.28-27 266.48-27L266.48-27Q269.48-27 272.13-26.1 274.78-25.2 276.73-23.48 278.68-21.75 279.83-19.3 280.98-16.85 280.98-13.75L280.98-13.75 280.98-10.25 259.63-10.25Q260.23-6.1 262.5-4.3 264.78-2.5 268.23-2.5ZM266.48-23.75L266.48-23.75Q265.03-23.75 263.78-23.2 262.53-22.65 261.6-21.45 260.68-20.25 260.1-18.35 259.53-16.45 259.48-13.75L259.48-13.75 273.48-13.75Q273.48-16.35 272.88-18.25 272.28-20.15 271.3-21.38 270.33-22.6 269.05-23.18 267.78-23.75 266.48-23.75ZM317.47-22.5L311.22-22.5 311.22-3.5 317.47-3.5Q319.17-3.5 320.6-4.03 322.02-4.55 323.05-5.7 324.07-6.85 324.65-8.65 325.22-10.45 325.22-13L325.22-13Q325.22-15.55 324.65-17.35 324.07-19.15 323.05-20.3 322.02-21.45 320.6-21.98 319.17-22.5 317.47-22.5L317.47-22.5ZM304.22-26L317.47-26Q320.92-26 323.75-25.1 326.57-24.2 328.57-22.5 330.57-20.8 331.65-18.4 332.72-16 332.72-13L332.72-13Q332.72-10 331.65-7.6 330.57-5.2 328.57-3.5 326.57-1.8 323.75-0.9 320.92 0 317.47 0L317.47 0 311.22 0 311.22 9 304.22 9 304.22-26ZM352.47-2.25L352.47-2.25Q354.07-2.25 355.47-2.85 356.87-3.45 357.92-4.73 358.97-6 359.6-8.05 360.22-10.1 360.22-13L360.22-13Q360.22-15.9 359.6-17.95 358.97-20 357.92-21.28 356.87-22.55 355.47-23.15 354.07-23.75 352.47-23.75L352.47-23.75Q350.87-23.75 349.47-23.15 348.07-22.55 347.02-21.28 345.97-20 345.35-17.95 344.72-15.9 344.72-13L344.72-13Q344.72-10.1 345.35-8.05 345.97-6 347.02-4.73 348.07-3.45 349.47-2.85 350.87-2.25 352.47-2.25ZM352.47-27L352.47-27Q355.82-27 358.65-26.08 361.47-25.15 363.47-23.38 365.47-21.6 366.6-18.98 367.72-16.35 367.72-13L367.72-13Q367.72-9.6 366.6-7 365.47-4.4 363.47-2.63 361.47-0.85 358.65 0.08 355.82 1 352.47 1L352.47 1Q349.07 1 346.27 0.08 343.47-0.85 341.47-2.63 339.47-4.4 338.35-7 337.22-9.6 337.22-13L337.22-13Q337.22-16.35 338.35-18.98 339.47-21.6 341.47-23.38 343.47-25.15 346.27-26.08 349.07-27 352.47-27ZM379.47-20.5L379.47-20.5Q379.47-19.35 380.49-18.4 381.52-17.45 383.97-16.75L383.97-16.75 391.72-14.5Q395.32-13.45 397.27-11.65 399.22-9.85 399.22-7L399.22-7Q399.22-5.2 398.47-3.73 397.72-2.25 396.02-1.2 394.32-0.15 391.62 0.43 388.92 1 384.97 1L384.97 1Q382.92 1 380.94 0.7 378.97 0.4 377.19-0.13 375.42-0.65 373.97-1.33 372.52-2 371.47-2.75L371.47-2.75 373.47-5.75Q375.57-4.45 378.39-3.48 381.22-2.5 384.97-2.5L384.97-2.5Q388.72-2.5 390.22-3.5 391.72-4.5 391.72-6L391.72-6Q391.72-7.15 390.67-8.08 389.62-9 386.97-9.75L386.97-9.75 379.22-12Q376.02-12.95 373.99-14.73 371.97-16.5 371.97-19.5L371.97-19.5Q371.97-21.1 372.69-22.48 373.42-23.85 374.97-24.85 376.52-25.85 378.92-26.43 381.32-27 384.72-27L384.72-27Q388.87-27 392.24-25.88 395.62-24.75 397.72-23.25L397.72-23.25 395.72-20.25Q393.67-21.55 391.07-22.53 388.47-23.5 384.72-23.5L384.72-23.5Q382.07-23.5 380.77-22.65 379.47-21.8 379.47-20.5ZM409.97-8.25L409.97-8.25Q409.97-3.5 415.72-3.5L415.72-3.5 422.72-3.5 422.72-13 415.72-13Q409.97-13 409.97-8.25ZM415.72-16.5L422.72-16.5Q422.72-20.1 420.84-21.8 418.97-23.5 415.97-23.5L415.97-23.5Q413.72-23.5 411.57-22.83 409.42-22.15 407.72-21L407.72-21 405.97-24Q407.07-24.75 408.39-25.3 409.72-25.85 411.12-26.23 412.52-26.6 413.89-26.8 415.27-27 416.47-27L416.47-27Q419.67-27 422.12-26.25 424.57-25.5 426.27-24.1 427.97-22.7 428.84-20.78 429.72-18.85 429.72-16.5L429.72-16.5 429.72 0 415.72 0Q408.92 0 405.69-2.05 402.47-4.1 402.47-8.25L402.47-8.25Q402.47-12.4 405.69-14.45 408.92-16.5 415.72-16.5L415.72-16.5ZM450.46-2.25L450.46-2.25Q452.06-2.25 453.46-2.85 454.86-3.45 455.91-4.73 456.96-6 457.59-8.05 458.21-10.1 458.21-13L458.21-13Q458.21-15.9 457.59-17.95 456.96-20 455.91-21.28 454.86-22.55 453.46-23.15 452.06-23.75 450.46-23.75L450.46-23.75Q448.86-23.75 447.46-23.15 446.06-22.55 445.01-21.28 443.96-20 443.34-17.95 442.71-15.9 442.71-13L442.71-13Q442.71-10.1 443.34-8.05 443.96-6 445.01-4.73 446.06-3.45 447.46-2.85 448.86-2.25 450.46-2.25ZM450.46-27L450.46-27Q453.81-27 456.64-26.08 459.46-25.15 461.46-23.38 463.46-21.6 464.59-18.98 465.71-16.35 465.71-13L465.71-13Q465.71-9.6 464.59-7 463.46-4.4 461.46-2.63 459.46-0.85 456.64 0.08 453.81 1 450.46 1L450.46 1Q447.06 1 444.26 0.08 441.46-0.85 439.46-2.63 437.46-4.4 436.34-7 435.21-9.6 435.21-13L435.21-13Q435.21-16.35 436.34-18.98 437.46-21.6 439.46-23.38 441.46-25.15 444.26-26.08 447.06-27 450.46-27ZM502.21-22.5L495.96-22.5 495.96-3.5 502.21-3.5Q503.91-3.5 505.33-4.03 506.76-4.55 507.78-5.7 508.81-6.85 509.38-8.65 509.96-10.45 509.96-13L509.96-13Q509.96-15.55 509.38-17.35 508.81-19.15 507.78-20.3 506.76-21.45 505.33-21.98 503.91-22.5 502.21-22.5L502.21-22.5ZM488.96-26L502.21-26Q505.66-26 508.48-25.1 511.31-24.2 513.31-22.5 515.31-20.8 516.38-18.4 517.46-16 517.46-13L517.46-13Q517.46-10 516.38-7.6 515.31-5.2 513.31-3.5 511.31-1.8 508.48-0.9 505.66 0 502.21 0L502.21 0 495.96 0 495.96 9 488.96 9 488.96-26ZM537.2-2.25L537.2-2.25Q538.8-2.25 540.2-2.85 541.6-3.45 542.65-4.73 543.7-6 544.33-8.05 544.95-10.1 544.95-13L544.95-13Q544.95-15.9 544.33-17.95 543.7-20 542.65-21.28 541.6-22.55 540.2-23.15 538.8-23.75 537.2-23.75L537.2-23.75Q535.6-23.75 534.2-23.15 532.8-22.55 531.75-21.28 530.7-20 530.08-17.95 529.45-15.9 529.45-13L529.45-13Q529.45-10.1 530.08-8.05 530.7-6 531.75-4.73 532.8-3.45 534.2-2.85 535.6-2.25 537.2-2.25ZM537.2-27L537.2-27Q540.55-27 543.38-26.08 546.2-25.15 548.2-23.38 550.2-21.6 551.33-18.98 552.45-16.35 552.45-13L552.45-13Q552.45-9.6 551.33-7 550.2-4.4 548.2-2.63 546.2-0.85 543.38 0.08 540.55 1 537.2 1L537.2 1Q533.8 1 531 0.08 528.2-0.85 526.2-2.63 524.2-4.4 523.08-7 521.95-9.6 521.95-13L521.95-13Q521.95-16.35 523.08-18.98 524.2-21.6 526.2-23.38 528.2-25.15 531-26.08 533.8-27 537.2-27ZM603.7-26L593.7 0 582.7 0 572.7-26 579.7-26 587.95-4.25 588.45-4.25 596.7-26 603.7-26ZM611.95-8.25L611.95-8.25Q611.95-3.5 617.7-3.5L617.7-3.5 624.7-3.5 624.7-13 617.7-13Q611.95-13 611.95-8.25ZM617.7-16.5L624.7-16.5Q624.7-20.1 622.82-21.8 620.95-23.5 617.95-23.5L617.95-23.5Q615.7-23.5 613.55-22.83 611.4-22.15 609.7-21L609.7-21 607.95-24Q609.05-24.75 610.37-25.3 611.7-25.85 613.1-26.23 614.5-26.6 615.87-26.8 617.25-27 618.45-27L618.45-27Q621.65-27 624.1-26.25 626.55-25.5 628.25-24.1 629.95-22.7 630.82-20.78 631.7-18.85 631.7-16.5L631.7-16.5 631.7 0 617.7 0Q610.9 0 607.67-2.05 604.45-4.1 604.45-8.25L604.45-8.25Q604.45-12.4 607.67-14.45 610.9-16.5 617.7-16.5L617.7-16.5ZM644.44-20.5L644.44-20.5Q644.44-19.35 645.47-18.4 646.49-17.45 648.94-16.75L648.94-16.75 656.69-14.5Q660.29-13.45 662.24-11.65 664.19-9.85 664.19-7L664.19-7Q664.19-5.2 663.44-3.73 662.69-2.25 660.99-1.2 659.29-0.15 656.59 0.43 653.89 1 649.94 1L649.94 1Q647.89 1 645.92 0.7 643.94 0.4 642.17-0.13 640.39-0.65 638.94-1.33 637.49-2 636.44-2.75L636.44-2.75 638.44-5.75Q640.54-4.45 643.37-3.48 646.19-2.5 649.94-2.5L649.94-2.5Q653.69-2.5 655.19-3.5 656.69-4.5 656.69-6L656.69-6Q656.69-7.15 655.64-8.08 654.59-9 651.94-9.75L651.94-9.75 644.19-12Q640.99-12.95 638.97-14.73 636.94-16.5 636.94-19.5L636.94-19.5Q636.94-21.1 637.67-22.48 638.39-23.85 639.94-24.85 641.49-25.85 643.89-26.43 646.29-27 649.69-27L649.69-27Q653.84-27 657.22-25.88 660.59-24.75 662.69-23.25L662.69-23.25 660.69-20.25Q658.64-21.55 656.04-22.53 653.44-23.5 649.69-23.5L649.69-23.5Q647.04-23.5 645.74-22.65 644.44-21.8 644.44-20.5ZM683.19-2.25L683.19-2.25Q684.79-2.25 686.19-2.85 687.59-3.45 688.64-4.73 689.69-6 690.32-8.05 690.94-10.1 690.94-13L690.94-13Q690.94-15.9 690.32-17.95 689.69-20 688.64-21.28 687.59-22.55 686.19-23.15 684.79-23.75 683.19-23.75L683.19-23.75Q681.59-23.75 680.19-23.15 678.79-22.55 677.74-21.28 676.69-20 676.07-17.95 675.44-15.9 675.44-13L675.44-13Q675.44-10.1 676.07-8.05 676.69-6 677.74-4.73 678.79-3.45 680.19-2.85 681.59-2.25 683.19-2.25ZM683.19-27L683.19-27Q686.54-27 689.37-26.08 692.19-25.15 694.19-23.38 696.19-21.6 697.32-18.98 698.44-16.35 698.44-13L698.44-13Q698.44-9.6 697.32-7 696.19-4.4 694.19-2.63 692.19-0.85 689.37 0.08 686.54 1 683.19 1L683.19 1Q679.79 1 676.99 0.08 674.19-0.85 672.19-2.63 670.19-4.4 669.07-7 667.94-9.6 667.94-13L667.94-13Q667.94-16.35 669.07-18.98 670.19-21.6 672.19-23.38 674.19-25.15 676.99-26.08 679.79-27 683.19-27ZM711.94-25.5L711.94 0Q711.94 2.15 711.24 3.98 710.54 5.8 709.21 7.15 707.89 8.5 705.94 9.25 703.99 10 701.44 10L701.44 10Q700.14 10 698.66 9.75 697.19 9.5 695.69 8.75L695.69 8.75 696.69 5.5Q697.44 5.9 698.46 6.2 699.49 6.5 700.44 6.5L700.44 6.5Q701.39 6.5 702.21 6.15 703.04 5.8 703.64 5.03 704.24 4.25 704.59 3.03 704.94 1.8 704.94 0L704.94 0 704.94-25.5 711.94-25.5ZM712.19-32.25L712.19-32.25Q712.19-30.75 711.16-29.63 710.14-28.5 708.44-28.5L708.44-28.5Q706.74-28.5 705.71-29.63 704.69-30.75 704.69-32.25L704.69-32.25Q704.69-33.75 705.71-34.88 706.74-36 708.44-36L708.44-36Q710.09-36 711.14-34.88 712.19-33.75 712.19-32.25ZM736.68 0L736.68-26 762.68-26Q769.83-26 773.26-23.43 776.68-20.85 776.68-15.75L776.68-15.75 776.68 0 769.68 0 769.68-15.75Q769.68-19.35 767.88-20.93 766.08-22.5 762.68-22.5L762.68-22.5 760.18-22.5 760.18 0 753.18 0 753.18-22.5 743.68-22.5 743.68 0 736.68 0ZM798.43-2.5L798.43-2.5Q800.88-2.5 803.01-3.35 805.13-4.2 807.18-5.75L807.18-5.75 809.18-2.75Q808.23-1.9 806.96-1.2 805.68-0.5 804.21-0.03 802.73 0.45 801.13 0.73 799.53 1 797.93 1L797.93 1Q794.38 1 791.46 0.08 788.53-0.85 786.48-2.63 784.43-4.4 783.31-7 782.18-9.6 782.18-13L782.18-13Q782.18-16.35 783.26-18.98 784.33-21.6 786.26-23.38 788.18-25.15 790.83-26.08 793.48-27 796.68-27L796.68-27Q799.68-27 802.33-26.1 804.98-25.2 806.93-23.48 808.88-21.75 810.03-19.3 811.18-16.85 811.18-13.75L811.18-13.75 811.18-10.25 789.83-10.25Q790.43-6.1 792.71-4.3 794.98-2.5 798.43-2.5ZM796.68-23.75L796.68-23.75Q795.23-23.75 793.98-23.2 792.73-22.65 791.81-21.45 790.88-20.25 790.31-18.35 789.73-16.45 789.68-13.75L789.68-13.75 803.68-13.75Q803.68-16.35 803.08-18.25 802.48-20.15 801.51-21.38 800.53-22.6 799.26-23.18 797.98-23.75 796.68-23.75ZM836.68-26L836.68-22.5 830.68-22.5Q827.28-22.5 825.48-20.68 823.68-18.85 823.68-15.25L823.68-15.25 823.68 0 816.68 0 816.68-15.25Q816.68-20.35 819.9-23.18 823.13-26 829.18-26L829.18-26 836.68-26ZM847.93-25.5L847.93 0 840.93 0 840.93-25.5 847.93-25.5ZM848.18-32.25L848.18-32.25Q848.18-30.75 847.15-29.63 846.13-28.5 844.43-28.5L844.43-28.5Q842.73-28.5 841.7-29.63 840.68-30.75 840.68-32.25L840.68-32.25Q840.68-33.75 841.7-34.88 842.73-36 844.43-36L844.43-36Q846.08-36 847.13-34.88 848.18-33.75 848.18-32.25Z" opacity="1" transform="matrix(1,0,0,1,0,0)" fill="#000000" class="slogan-text-1" data-fill-palette-color="secondary" id="text-1"></path></svg></g></svg></g></svg></g></svg></g><g><svg viewBox="0 0 122.56239680930717 122.56239680930717" height="122.56239680930717" width="122.56239680930717"><g><svg></svg></g><g id="icon-0"><svg viewBox="0 0 122.56239680930717 122.56239680930717" height="122.56239680930717" width="122.56239680930717"><g><path d="M0 61.281c0-33.845 27.437-61.281 61.281-61.281 33.845 0 61.281 27.437 61.281 61.281 0 33.845-27.437 61.281-61.281 61.281-33.845 0-61.281-27.437-61.281-61.281zM61.281 118.168c31.417 0 56.886-25.469 56.887-56.887 0-31.417-25.469-56.886-56.887-56.886-31.417 0-56.886 25.469-56.886 56.886 0 31.417 25.469 56.886 56.886 56.887z" data-fill-palette-color="accent" fill="#000000" stroke="transparent"></path></g><g transform="matrix(1,0,0,1,25.711204983860668,30.066462174838215)"><svg viewBox="0 0 71.13998684158584 62.429472459630745" height="62.429472459630745" width="71.13998684158584"><g><svg xmlns="http://www.w3.org/2000/svg" xmlns:xlink="http://www.w3.org/1999/xlink" version="1.0" x="0" y="0" viewBox="5.387 10.85 89.226 78.301" enable-background="new 0 0 100 100" xml:space="preserve" height="62.429472459630745" width="71.13998684158584" class="icon-cg-0" data-fill-palette-color="accent" id="cg-0"><g fill="#636365" data-fill-palette-color="accent"><path fill="#000000" d="M27.075 36.955c-0.926 0-1.68 0.752-1.68 1.679v3.341c0 0.928 0.754 1.68 1.68 1.68h3.735c0.166 0.494 0.365 0.978 0.602 1.443l-3.085 3.086c-0.317 0.315-0.491 0.738-0.491 1.188 0 0.447 0.176 0.869 0.491 1.186l2.362 2.362c0.631 0.632 1.736 0.636 2.376 0l3.083-3.085c0.466 0.236 0.949 0.436 1.443 0.602v3.735c0 0.925 0.752 1.679 1.678 1.679h3.343c0.926 0 1.678-0.752 1.678-1.679v-3.735c0.495-0.166 0.979-0.365 1.444-0.602l3.084 3.085c0.634 0.634 1.74 0.634 2.374 0l2.36-2.36c0.317-0.316 0.494-0.738 0.494-1.188 0.002-0.449-0.173-0.87-0.49-1.188l-3.086-3.086c0.236-0.466 0.438-0.949 0.601-1.443h3.737c0.926 0 1.679-0.752 1.679-1.68v-3.341c0-0.927-0.753-1.679-1.679-1.679h-3.736c-0.164-0.498-0.365-0.98-0.602-1.45l3.084-3.087c0.317-0.316 0.494-0.736 0.494-1.188 0-0.447-0.175-0.869-0.494-1.188l-2.361-2.363c-0.635-0.635-1.741-0.631-2.372 0l-3.086 3.086c-0.47-0.236-0.951-0.438-1.444-0.603v-3.735c0-0.925-0.752-1.678-1.678-1.678H39.27c-0.924 0-1.676 0.752-1.676 1.678v3.735c-0.494 0.164-0.976 0.364-1.444 0.603l-3.084-3.088c-0.638-0.633-1.745-0.629-2.374 0.002l-2.364 2.365c-0.653 0.655-0.651 1.721 0.001 2.373l3.085 3.087c-0.235 0.47-0.437 0.952-0.603 1.45H27.075L27.075 36.955zM33.182 34.698l-3.467-3.466 2.164-2.164 3.463 3.467c0.293 0.293 0.75 0.352 1.106 0.141 0.724-0.425 1.491-0.744 2.281-0.945 0.403-0.104 0.685-0.467 0.685-0.885v-4.273h3.056v4.273c0 0.418 0.282 0.781 0.685 0.885 0.791 0.201 1.559 0.521 2.28 0.945 0.358 0.209 0.812 0.152 1.106-0.141l3.467-3.465 2.16 2.162-3.465 3.466c-0.293 0.295-0.352 0.75-0.14 1.108 0.423 0.715 0.741 1.484 0.948 2.282 0.104 0.404 0.466 0.687 0.881 0.687h4.275v3.057h-4.275c-0.415 0-0.778 0.284-0.881 0.684-0.206 0.797-0.524 1.565-0.948 2.282-0.211 0.356-0.153 0.812 0.14 1.106l3.465 3.464-2.16 2.163-3.467-3.469c-0.295-0.293-0.748-0.351-1.107-0.139-0.714 0.424-1.48 0.743-2.28 0.948-0.401 0.103-0.683 0.465-0.683 0.882v4.275h-3.057v-4.275c0-0.417-0.281-0.779-0.683-0.882-0.801-0.208-1.567-0.524-2.28-0.948-0.359-0.211-0.814-0.154-1.107 0.139l-3.465 3.469-2.162-2.163 3.466-3.464c0.294-0.295 0.351-0.75 0.14-1.106-0.422-0.716-0.74-1.485-0.947-2.282-0.104-0.399-0.467-0.684-0.881-0.684h-4.275v-3.057h4.275c0.416 0 0.777-0.282 0.881-0.687 0.207-0.798 0.525-1.567 0.948-2.282C33.532 35.448 33.476 34.991 33.182 34.698z" data-fill-palette-color="accent"></path><path fill="#000000" d="M40.941 46.094c3.191 0 5.789-2.596 5.789-5.787 0-3.199-2.598-5.798-5.789-5.798s-5.788 2.599-5.788 5.798C35.153 43.498 37.75 46.094 40.941 46.094zM40.941 36.33c2.188 0 3.968 1.783 3.968 3.977 0 2.188-1.78 3.967-3.968 3.967s-3.967-1.779-3.967-3.967C36.975 38.111 38.754 36.33 40.941 36.33z" data-fill-palette-color="accent"></path><path fill="#000000" d="M88.239 10.85H11.76c-3.514 0-6.373 2.857-6.373 6.371v49.168c0 3.514 2.858 6.373 6.373 6.373h26.404v9.105h-4.553c-2.008 0-3.643 1.632-3.643 3.639 0 2.012 1.635 3.645 3.643 3.645H66.39c2.007 0 3.64-1.633 3.64-3.645 0-2.007-1.633-3.639-3.64-3.639h-4.554v-9.105h26.403c3.515 0 6.374-2.859 6.374-6.373V17.221C94.613 13.707 91.754 10.85 88.239 10.85zM11.76 12.669h76.479c2.511 0 4.554 2.042 4.554 4.552v42.793H7.209V30.207h8.611c0.503 0 0.911-0.408 0.911-0.91 0-0.503-0.408-0.911-0.911-0.911H7.209v-3.643h8.606c0.502 0 0.91-0.408 0.91-0.91 0-0.503-0.408-0.91-0.91-0.91H7.209V19.27c0.035 0.006 0.072 0.01 0.11 0.01h13.958c0.503 0 0.911-0.407 0.911-0.908 0-0.503-0.408-0.911-0.911-0.911H7.319c-0.038 0-0.075 0.006-0.11 0.013v-0.252C7.209 14.71 9.25 12.669 11.76 12.669zM68.209 85.505c0 1.009-0.815 1.823-1.82 1.823H33.611c-1.003 0-1.82-0.814-1.82-1.823 0-1.003 0.816-1.817 1.82-1.817h32.777C67.394 83.688 68.209 84.502 68.209 85.505zM60.016 81.866H39.984v-9.105h20.031V81.866zM88.239 70.941H11.76c-2.51 0-4.551-2.043-4.551-4.555v-4.551h85.584v4.551C92.793 68.898 90.75 70.941 88.239 70.941z" data-fill-palette-color="accent"></path><circle fill="#000000" cx="24.988" cy="18.371" r="0.91" data-fill-palette-color="accent"></circle><path fill="#000000" d="M55.53 31.91c-0.292 0.095-0.528 0.297-0.667 0.57-0.138 0.274-0.162 0.584-0.066 0.873l0.728 2.227c0.192 0.585 0.854 0.924 1.444 0.732l2.507-0.821c0.223 0.305 0.47 0.593 0.739 0.86l-1.393 2.742c-0.139 0.271-0.163 0.584-0.066 0.874 0.095 0.293 0.299 0.528 0.568 0.663l2.089 1.061c0.548 0.276 1.261 0.043 1.539-0.502l1.39-2.744c0.377 0.06 0.754 0.088 1.131 0.088l0.82 2.508c0.153 0.473 0.592 0.79 1.086 0.79 0.123 0 0.241-0.019 0.356-0.06l2.224-0.726c0.6-0.196 0.928-0.844 0.733-1.444l-0.819-2.504c0.305-0.224 0.594-0.472 0.859-0.74l2.744 1.392c0.548 0.276 1.26 0.043 1.537-0.503l1.058-2.081c0.14-0.274 0.165-0.585 0.071-0.876-0.096-0.291-0.299-0.529-0.571-0.667l-2.744-1.392c0.06-0.373 0.089-0.752 0.089-1.129l2.51-0.822c0.6-0.193 0.927-0.844 0.729-1.44l-0.726-2.228c-0.193-0.584-0.855-0.924-1.444-0.729l-2.507 0.819c-0.227-0.31-0.473-0.597-0.741-0.865l1.39-2.741c0.141-0.272 0.165-0.584 0.07-0.873-0.096-0.293-0.298-0.529-0.573-0.668l-2.084-1.06c-0.547-0.28-1.262-0.042-1.538 0.502l-1.394 2.745c-0.375-0.061-0.753-0.088-1.129-0.088l-0.819-2.508c-0.191-0.588-0.843-0.931-1.443-0.733l-2.226 0.726c-0.599 0.197-0.927 0.844-0.731 1.445l0.819 2.506c-0.303 0.223-0.591 0.469-0.86 0.739l-2.744-1.392c-0.545-0.276-1.26-0.043-1.536 0.502l-1.06 2.088c-0.139 0.273-0.162 0.584-0.067 0.873 0.096 0.293 0.298 0.529 0.569 0.666l2.746 1.394c-0.06 0.375-0.089 0.754-0.089 1.133L55.53 31.91zM59.08 29.08l-3.088-1.566 0.996-1.965 3.086 1.565c0.245 0.124 0.546 0.067 0.729-0.14 0.393-0.442 0.836-0.822 1.319-1.131 0.234-0.148 0.339-0.438 0.251-0.699l-0.939-2.877 2.091-0.686 0.94 2.878c0.086 0.263 0.326 0.431 0.615 0.417 0.58-0.036 1.16 0.01 1.731 0.135 0.272 0.061 0.547-0.07 0.672-0.318l1.567-3.086 1.963 0.996-1.564 3.088c-0.126 0.246-0.068 0.548 0.139 0.729 0.438 0.387 0.818 0.832 1.133 1.323 0.15 0.233 0.438 0.337 0.701 0.25l2.873-0.943 0.685 2.097-2.873 0.938c-0.263 0.086-0.435 0.339-0.417 0.615 0.035 0.579-0.012 1.161-0.137 1.731-0.06 0.271 0.071 0.547 0.317 0.672l3.087 1.564-0.994 1.963-3.089-1.562c-0.245-0.125-0.547-0.068-0.729 0.141-0.387 0.438-0.828 0.818-1.316 1.131-0.234 0.146-0.336 0.436-0.251 0.699l0.94 2.874-2.094 0.683-0.938-2.873c-0.082-0.25-0.315-0.42-0.576-0.42-0.013 0-0.026 0.002-0.04 0.002-0.579 0.038-1.16-0.008-1.732-0.134-0.271-0.057-0.545 0.072-0.67 0.32l-1.565 3.085-1.963-0.996 1.567-3.088c0.125-0.247 0.066-0.549-0.143-0.731-0.439-0.385-0.818-0.829-1.132-1.317-0.148-0.232-0.438-0.338-0.7-0.25l-2.872 0.942-0.685-2.097 2.873-0.939c0.264-0.084 0.435-0.336 0.416-0.615-0.037-0.578 0.01-1.164 0.136-1.732C59.457 29.48 59.326 29.204 59.08 29.08z" data-fill-palette-color="accent"></path><path fill="#000000" d="M65.477 35.117c0.423 0 0.843-0.067 1.25-0.2 1.021-0.333 1.851-1.044 2.337-2.002 0.485-0.959 0.569-2.047 0.235-3.069-0.541-1.664-2.08-2.779-3.823-2.779-0.423 0-0.843 0.068-1.25 0.203-1.021 0.33-1.851 1.043-2.336 2.002-0.486 0.959-0.57 2.052-0.235 3.072C62.194 34.003 63.731 35.117 65.477 35.117zM62.971 29.82c0.34-0.668 0.919-1.168 1.633-1.399 0.283-0.093 0.577-0.142 0.871-0.142 1.218 0 2.291 0.783 2.671 1.943 0.233 0.711 0.174 1.473-0.165 2.143-0.34 0.67-0.919 1.166-1.631 1.4-0.284 0.092-0.578 0.139-0.873 0.139-1.219 0-2.291-0.779-2.669-1.936C62.572 31.253 62.631 30.491 62.971 29.82z" data-fill-palette-color="accent"></path></g></svg></g></svg></g></svg></g></svg></g></svg></g><defs></defs></svg><rect width="395.52" height="89.58900480523387" fill="none" stroke="none" visibility="hidden"></rect></g></svg></g></svg>