<svg xmlns="http://www.w3.org/2000/svg" version="1.1" xmlns:xlink="http://www.w3.org/1999/xlink" xmlns:svgjs="http://svgjs.dev/svgjs" width="1500" height="238" viewBox="0 0 1500 238"><g transform="matrix(1,0,0,1,-0.9090909090909918,0.626026816252832)"><svg viewBox="0 0 396 63" data-background-color="#eae5df" preserveAspectRatio="xMidYMid meet" height="238" width="1500" xmlns="http://www.w3.org/2000/svg" xmlns:xlink="http://www.w3.org/1999/xlink"><g id="tight-bounds" transform="matrix(1,0,0,1,0.2400000000000091,-0.16571298077280971)"><svg viewBox="0 0 395.52 63.3314259615456" height="63.3314259615456" width="395.52"><g><svg viewBox="0 0 395.52 63.3314259615456" height="63.3314259615456" width="395.52"><g><svg viewBox="0 0 513.912531901509 82.28866672944696" height="63.3314259615456" width="395.52"><g><rect width="4.128887720811055" height="74.50460366044521" x="103.45503758171616" y="3.892031534500873" fill="#564045" opacity="1" stroke-width="0" stroke="transparent" fill-opacity="1" class="rect-qz-0" data-fill-palette-color="primary" rx="1%" id="qz-0" data-palette-color="#564045"></rect></g><g transform="matrix(1,0,0,1,118.39253190150903,4.0773663694771045)"><svg viewBox="0 0 395.52000000000004 74.13393399049275" height="74.13393399049275" width="395.52000000000004"><g id="textblocktransform"><svg viewBox="0 0 395.52000000000004 74.13393399049275" height="74.13393399049275" width="395.52000000000004" id="textblock"><g><svg viewBox="0 0 395.52000000000004 45.78443636363637" height="45.78443636363637" width="395.52000000000004"><g transform="matrix(1,0,0,1,0,0)"><svg width="395.52000000000004" viewBox="1.7 -37.1 329.98 38.2" height="45.78443636363637" data-palette-color="#564045"><path d="M9.25-13.65L9.25-13.65 9.1-29.05Q9.1-31.3 9.15-31.95L9.15-31.95Q9.2-33.55 9.93-34.27 10.65-35 12.75-35L12.75-35 26.15-35Q28.25-35 28.98-34.27 29.7-33.55 29.75-31.95L29.75-31.95Q29.85-28.8 29.85-24.38 29.85-19.95 29.65-13.65L29.65-13.65Q29.5-3.9 19.6-0.8L19.6-0.8Q13.9 1 5 1L5 1Q3 1 2.35-0.2 1.7-1.4 1.7-4.38 1.7-7.35 4-7.6L4-7.6Q6.8-7.95 8.03-9.98 9.25-12 9.25-13.65ZM50.65-12.5Q50.65-6.9 53.6-6.9 56.55-6.9 56.55-12.5L56.55-12.5Q56.55-15.05 55.95-16.43 55.35-17.8 53.6-17.8 51.85-17.8 51.25-16.43 50.65-15.05 50.65-12.5L50.65-12.5ZM72.25-12.5Q72.25 1.1 53.6 1.1 34.95 1.1 34.95-12.5L34.95-12.5Q34.95-18.95 39.7-22.5 44.45-26.05 53.6-26.05 62.75-26.05 67.5-22.5 72.25-18.95 72.25-12.5L72.25-12.5ZM96.15-7.6L96.15-7.6Q99.09-7.6 99.09-12.48 99.09-17.35 96.15-17.35L96.15-17.35Q95-17.35 94.07-16.57 93.15-15.8 93.15-14.4L93.15-14.4 93.15-10.55Q93.15-9.15 94.07-8.38 95-7.6 96.15-7.6ZM77.34-2.35L77.34-2.35 77.25-18.7Q77.25-26.2 77.4-33.3L77.4-33.3Q77.45-34.95 78.02-35.75 78.59-36.55 80.25-36.55L80.25-36.55 89.84-36.55Q91.5-36.55 92.07-35.77 92.65-35 92.82-32.4 93-29.8 93-23.2L93-23.2Q93-22.9 93.15-22.73 93.3-22.55 93.59-22.8L93.59-22.8Q97.09-26.1 102.07-26.1 107.05-26.1 110.17-22.93 113.3-19.75 113.3-12.63 113.3-5.5 110.15-2.43 107 0.65 101.9 0.65L101.9 0.65Q94.4 0.65 92.4-2.8L92.4-2.8Q92.34-1.5 91.45-0.8 90.55-0.1 89.45 0 88.34 0.1 85.45 0.1L85.45 0.1 80.15 0Q79.2 0 78.27-0.68 77.34-1.35 77.34-2.35ZM117.69-3.5L117.69-3.5 117.64-30.65Q118.04-34.8 121.19-35L121.19-35Q123.44-35.05 151.14-35.05L151.14-35.05Q154.14-35.05 154.14-30.6L154.14-30.6Q154.14-28.35 151.49-28.35L151.49-28.35 140.59-28.35Q139.54-28.35 138.92-27.65 138.29-26.95 138.29-25.8L138.29-25.8 138.29-22.25Q138.29-20.7 139.59-20.7L139.59-20.7 147.89-20.7Q149.09-20.7 149.69-20.15 150.29-19.6 150.29-17.63 150.29-15.65 149.72-15.1 149.14-14.55 147.84-14.55L147.84-14.55 140.39-14.55Q139.14-14.55 138.67-13.95 138.19-13.35 138.19-12.05L138.19-12.05 138.19-3.45Q138.19-1.7 137.44-0.85 136.69 0 135.49 0L135.49 0 121.29 0Q119.89 0 118.89-0.93 117.89-1.85 117.69-3.5ZM161.69-25.3L161.69-25.3 171.44-25.3Q173.14-25.3 173.72-24.55 174.29-23.8 174.47-21.23 174.64-18.65 174.64-11.83 174.64-5 174.34-2.2L174.34-2.2Q174.19-1.35 173.49-0.7 172.79-0.05 171.02 0.08 169.24 0.2 166.79 0.2 164.34 0.2 162.34 0.08 160.34-0.05 159.64-0.7 158.94-1.35 158.84-2.2L158.84-2.2Q158.49-5.45 158.49-12.18 158.49-18.9 158.69-21.35 158.89-23.8 159.44-24.55 159.99-25.3 161.69-25.3ZM167.09-37.1L167.09-37.1Q170.39-37.1 172.06-35.77 173.74-34.45 173.74-32.15L173.74-32.15Q173.74-26.75 166.54-26.75L166.54-26.75Q163.64-26.75 161.59-28 159.54-29.25 159.54-31.75L159.54-31.75Q159.54-37.1 167.09-37.1ZM202.34-2.15L202.34-2.15 202.39-14.35Q202.39-15.85 201.64-16.6 200.89-17.35 199.76-17.35 198.64-17.35 197.71-16.57 196.79-15.8 196.79-14.4L196.79-14.4 196.79-11.35Q196.79-4.75 196.49-2.35L196.49-2.35Q196.34-1.5 195.64-0.85 194.94-0.2 193.16-0.08 191.39 0.05 189.64 0.05 187.89 0.05 183.69-0.15L183.69-0.15Q182.49-0.2 181.79-0.85 181.09-1.5 180.99-2.35L180.99-2.35Q180.64-5.6 180.64-12.3 180.64-19 180.84-21.48 181.04-23.95 181.59-24.7 182.14-25.45 183.84-25.45L183.84-25.45 193.59-25.45Q195.29-25.45 195.86-24.7 196.44-23.95 196.59-22.15L196.59-22.15 196.59-22.1Q200.44-26.1 205.96-26.1 211.49-26.1 214.64-23.4 217.79-20.7 217.86-15.95 217.94-11.2 217.94-7.45 217.94-3.7 217.89-2.4 217.84-1.1 217.21-0.53 216.59 0.05 214.79 0.05L214.79 0.05 205.19 0.15Q203.59 0.15 202.96-0.43 202.34-1 202.34-2.15ZM239.84-17.8L239.84-17.8Q236.89-17.8 236.89-12.93 236.89-8.05 239.84-8.05L239.84-8.05Q240.99-8.05 241.91-8.83 242.84-9.6 242.84-11L242.84-11 242.84-14.85Q242.84-16.25 241.91-17.03 240.99-17.8 239.84-17.8ZM256.34-0.1L256.34-0.1 251.04 0Q248.14 0 247.14-0.1L247.14-0.1Q244.04-0.3 244.04-3.6L244.04-3.6Q242.19-1.5 239.26-0.2 236.34 1.1 233.89 1.1L233.89 1.1Q228.89 1.1 225.66-2.2 222.44-5.5 222.44-12.4L222.44-12.4Q222.44-21 228.29-24.4L228.29-24.4Q231.39-26.25 235.54-26.25 239.69-26.25 242.59-24.4L242.59-24.4Q243.54-23.75 243.64-24.83 243.74-25.9 243.74-28L243.74-28 243.74-32.15Q243.74-33.15 243.79-34.18 243.84-35.2 244.39-35.88 244.94-36.55 246.64-36.55L246.64-36.55 256.24-36.55Q257.89-36.55 258.46-35.75 259.04-34.95 259.09-33.3L259.09-33.3Q259.24-26.2 259.24-18.8L259.24-18.8Q259.24-18.8 259.14-2.45L259.14-2.45Q259.14-1.45 258.21-0.78 257.29-0.1 256.34-0.1ZM271.63-23.93Q273.93-25.05 276.36-25.55 278.78-26.05 282.36-26.05 285.93-26.05 289.18-25.18 292.43-24.3 294.03-22.8L294.03-22.8Q296.83-20.05 296.83-16.35L296.83-16.35Q296.83-10.55 287.03-10.55L287.03-10.55Q283.58-10.55 279.88-11.2L279.88-11.2Q280.03-7.9 281.11-6.55 282.18-5.2 284.93-5.2 287.68-5.2 289.48-5.8 291.28-6.4 292.38-7.03 293.48-7.65 294.26-7.65 295.03-7.65 295.58-6.95L295.58-6.95Q296.43-6.05 296.43-4.48 296.43-2.9 295.81-2.33 295.18-1.75 293.83-1.2L293.83-1.2Q289.08 0.8 280.33 0.8L280.33 0.8Q273.08 0.8 268.41-2.68 263.73-6.15 263.73-12.05L263.73-12.05Q263.73-14.9 264.78-17.28 265.83-19.65 267.58-21.23 269.33-22.8 271.63-23.93ZM283.23-20.35L283.23-20.35Q280.18-20.35 279.93-15.4L279.93-15.4Q282.33-15.2 282.43-15.2L282.43-15.2Q285.73-15.2 285.73-17.4L285.73-17.4Q285.73-20.35 283.23-20.35ZM305.03-25.45L305.03-25.45 314.78-25.45Q316.48-25.45 317.13-24.73 317.78-24 317.78-22.55L317.78-22.55 317.78-20.75Q320.58-26.05 326.88-26.05L326.88-26.05Q328.98-26.05 330.33-24.7 331.68-23.35 331.68-21.1 331.68-18.85 330.48-16.63 329.28-14.4 327.13-14.4L327.13-14.4Q326.13-14.4 324.33-15.43 322.53-16.45 321.43-16.45 320.33-16.45 319.16-15.65 317.98-14.85 317.98-13L317.98-13Q317.98-4.95 317.68-2.35L317.68-2.35Q317.53-1.5 316.83-0.85 316.13-0.2 314.36-0.08 312.58 0.05 310.83 0.05 309.08 0.05 304.88-0.15L304.88-0.15Q303.68-0.2 302.98-0.85 302.28-1.5 302.18-2.35L302.18-2.35Q301.83-5.6 301.83-12.3 301.83-19 302.03-21.48 302.23-23.95 302.78-24.7 303.33-25.45 305.03-25.45Z" opacity="1" transform="matrix(1,0,0,1,0,0)" fill="#564045" class="wordmark-text-0" data-fill-palette-color="primary" id="text-0"></path></svg></g></svg></g><g transform="matrix(1,0,0,1,0,56.593042962618185)"><svg viewBox="0 0 232.20979200000002 17.54089102787457" height="17.54089102787457" width="232.20979200000002"><g transform="matrix(1,0,0,1,0,0)"><svg width="232.20979200000002" viewBox="1.95 -33.89 597.8466666666666 45.17" height="17.54089102787457" data-palette-color="#564045"><path d="M2.15-32.13L8.01-32.03Q9.47-32.03 11.47-32.13 13.48-32.23 14.89-32.23L14.89-32.23Q16.5-32.23 18.14-31.74 19.78-31.25 21.31-30.27 22.85-29.3 23.83-27.49 24.8-25.68 24.8-23.29L24.8-23.29Q24.8-21.88 24.19-20.24 23.58-18.6 22.41-17.07 21.24-15.53 19.26-14.53 17.29-13.53 14.84-13.53L14.84-13.53Q12.11-13.53 11.08-14.89L11.08-14.89Q10.79-15.23 10.94-16.02L10.94-16.02Q10.99-16.21 11.08-16.16L11.08-16.16Q12.55-15.63 14.36-15.63L14.36-15.63Q16.8-15.63 18.55-17.68 20.31-19.73 20.31-22.56L20.31-22.56Q20.31-26.03 18.8-28.05 17.29-30.08 14.11-30.08L14.11-30.08Q11.91-30.08 10.69-29.74L10.69-29.74Q10.45-29.69 10.35-29.37 10.25-29.05 10.18-27.88 10.11-26.71 10.11-24.37L10.11-24.37 10.11-6.93Q10.11-3.66 10.5-2.69L10.5-2.69Q10.74-2.05 12.23-1.66 13.72-1.27 14.36-1.27L14.36-1.27Q14.55-1.27 14.55-0.59L14.55-0.59Q14.55-0.15 14.45 0.15L14.45 0.15Q9.57-0.1 8.11-0.1L8.11-0.1 2.15 0.15Q2 0 2-0.73L2-0.73Q2-1.37 2.15-1.37L2.15-1.37Q2.83-1.37 4.05-1.66 5.27-1.95 5.52-2.39L5.52-2.39Q5.86-2.98 5.86-6.98L5.86-6.98 5.86-25.44Q5.86-28.32 5.52-29.64L5.52-29.64Q5.37-30.03 4.08-30.37 2.78-30.71 2.15-30.71L2.15-30.71Q1.95-30.71 1.95-31.3L1.95-31.3Q1.95-31.93 2.15-32.13L2.15-32.13ZM40.92-21.34L40.92-21.34Q43.8-21.34 44.72-19.92L44.72-19.92Q44.72-18.21 44.19-17.43 43.65-16.65 42.87-16.65L42.87-16.65Q41.99-16.65 41.26-17.48 40.52-18.31 39.26-18.31L39.26-18.31Q37.74-18.31 36.62-16.89 35.5-15.48 35.5-13.92L35.5-13.92 35.5-6.59Q35.5-3.76 35.89-2.25L35.89-2.25Q35.98-1.9 37.18-1.59 38.38-1.27 38.86-1.27L38.86-1.27Q39.01-1.27 39.06-0.68 39.11-0.1 39.01 0.15L39.01 0.15Q34.13-0.1 33.74-0.1L33.74-0.1Q33.44-0.1 28.42 0.15L28.42 0.15Q28.22-0.05 28.22-0.66 28.22-1.27 28.42-1.27L28.42-1.27Q29-1.27 30.15-1.59 31.3-1.9 31.39-2.25L31.39-2.25Q31.74-3.66 31.74-5.66L31.74-5.66 31.74-14.89Q31.74-16.8 31.05-17.53L31.05-17.53Q30.56-18.12 29.86-18.33 29.15-18.55 28.68-18.55 28.22-18.55 28.22-18.65L28.22-18.65Q28.22-19.82 28.51-19.87L28.51-19.87Q33.69-20.65 35.25-21.14L35.25-21.14Q35.3-21.14 35.4-21.17 35.5-21.19 35.5-21.19L35.5-21.19Q35.69-21.19 35.74-20.78 35.79-20.36 35.74-20.17L35.74-20.17 35.45-17.72Q36.33-19.04 37.86-20.19 39.4-21.34 40.92-21.34ZM57.03-19.43L57.03-19.43Q54.44-19.43 52.8-17.07 51.17-14.7 51.17-11.28L51.17-11.28Q51.17-7.28 53.24-4.42 55.32-1.56 58.1-1.56L58.1-1.56Q60.69-1.56 62.35-4 64.01-6.45 64.01-9.86L64.01-9.86Q64.01-13.82 61.91-16.63 59.81-19.43 57.03-19.43ZM57.56-21.34L57.56-21.34Q61.96-21.34 65.08-18.16 68.21-14.99 68.21-10.55L68.21-10.55Q68.21-6.05 65.16-2.86 62.1 0.34 57.66 0.34 53.22 0.34 50.09-2.86 46.97-6.05 46.97-10.55L46.97-10.55Q46.97-15.09 50-18.21 53.02-21.34 57.56-21.34ZM85.78-21.39L85.78-21.39Q89.2-21.39 90.57-18.95 91.94-16.5 91.94-11.04L91.94-11.04 91.94-6.59Q91.94-3.76 92.33-2.25L92.33-2.25Q92.42-1.9 93.6-1.59 94.77-1.27 95.26-1.27L95.26-1.27Q95.4-1.27 95.45-0.68 95.5-0.1 95.4 0.15L95.4 0.15Q90.52-0.1 90.18-0.1L90.18-0.1Q90.08-0.1 85.05 0.15L85.05 0.15Q84.86-0.05 84.86-0.66 84.86-1.27 85.05-1.27L85.05-1.27Q85.64-1.27 86.69-1.59 87.74-1.9 87.83-2.25L87.83-2.25Q88.18-3.66 88.18-5.66L88.18-5.66 88.18-10.55Q88.18-15.09 87-16.75 85.83-18.41 83.2-18.41L83.2-18.41Q81.63-18.41 80.19-17.26 78.75-16.11 78.75-15.19L78.75-15.19 78.75-6.59Q78.75-3.76 79.14-2.25L79.14-2.25Q79.24-1.9 80.41-1.59 81.58-1.27 82.07-1.27L82.07-1.27Q82.22-1.27 82.27-0.68 82.32-0.1 82.22 0.15L82.22 0.15Q77.34-0.1 76.99-0.1L76.99-0.1Q76.7-0.1 71.67 0.15L71.67 0.15Q71.48-0.05 71.48-0.66 71.48-1.27 71.67-1.27L71.67-1.27Q72.26-1.27 73.41-1.59 74.55-1.9 74.65-2.25L74.65-2.25Q74.99-3.66 74.99-5.66L74.99-5.66 74.99-14.89Q74.99-16.8 74.31-17.53L74.31-17.53Q73.82-18.12 73.11-18.33 72.4-18.55 71.94-18.55 71.48-18.55 71.48-18.65L71.48-18.65Q71.48-19.82 71.77-19.87L71.77-19.87Q76.95-20.65 78.51-21.14L78.51-21.14Q78.56-21.14 78.65-21.17 78.75-21.19 78.75-21.19L78.75-21.19Q78.95-21.19 79-20.78 79.05-20.36 79-20.17L79-20.17Q78.8-18.8 78.8-18.21L78.8-18.21Q78.8-18.02 78.9-18.02L78.9-18.02Q78.95-18.02 79.05-18.12L79.05-18.12Q80.17-19.29 82.1-20.34 84.03-21.39 85.78-21.39ZM103.41-3.15Q104.24-2.44 105.56-2.44 106.87-2.44 108.1-3.25 109.32-4.05 109.32-4.88L109.32-4.88 109.32-9.91Q108.93-9.72 107.41-9.23 105.9-8.74 105.04-8.37 104.19-8.01 103.38-7.15 102.58-6.3 102.58-5.18L102.58-5.18Q102.58-3.86 103.41-3.15ZM108-21.29L108-21.29Q110.68-21.29 111.86-20 113.03-18.7 113.03-15.82L113.03-15.82 113.03-4.54Q113.03-3.52 113.56-2.83 114.1-2.15 115.03-2.15L115.03-2.15Q115.71-2.15 116.74-2.83L116.74-2.83Q116.93-2.83 116.93-2.44L116.93-2.44Q116.93-1.81 116.69-1.42L116.69-1.42Q114.69 0.29 113.27 0.29L113.27 0.29Q112.15 0.29 111.12-0.63 110.1-1.56 109.71-2.59L109.71-2.59Q109.66-2.59 109.34-2.27 109.02-1.95 108.49-1.54 107.95-1.12 107.24-0.68 106.53-0.24 105.58 0.05 104.63 0.34 103.65 0.34L103.65 0.34Q101.41 0.34 99.94-0.85 98.48-2.05 98.48-4.44L98.48-4.44Q98.48-5.52 99.01-6.47 99.55-7.42 100.28-8.03 101.02-8.64 102.28-9.28 103.55-9.91 104.46-10.23 105.36-10.55 106.83-11.04 108.29-11.52 108.88-11.77L108.88-11.77Q109.32-11.91 109.32-12.5L109.32-12.5 109.32-16.16Q109.32-17.72 108.34-18.58 107.36-19.43 106-19.43L106-19.43Q104.53-19.43 103.55-18.43 102.58-17.43 102.58-15.82L102.58-15.82Q102.58-14.11 100.58-14.11L100.58-14.11Q99.21-14.11 98.67-15.04L98.67-15.04Q98.67-17.14 101.75-19.21 104.82-21.29 108-21.29ZM129.33-19.43L129.33-19.43Q126.5-19.43 124.89-16.89 123.28-14.36 123.28-10.99L123.28-10.99Q123.28-7.42 125.18-4.81 127.09-2.2 130.46-2.2L130.46-2.2Q132.12-2.2 133.04-2.95 133.97-3.71 133.97-4.98L133.97-4.98 133.97-16.6Q133.97-17.63 132.87-18.53 131.77-19.43 129.33-19.43ZM129.97-21.48L129.97-21.48Q132.07-21.48 133.63-20.65L133.63-20.65Q133.97-20.65 133.97-21.53L133.97-21.53 133.97-26.81Q133.97-28.47 133.68-29.93L133.68-29.93Q133.43-30.71 131.19-30.71L131.19-30.71 130.75-30.71Q130.46-30.71 130.46-31.25L130.46-31.25Q130.46-32.03 130.75-32.03L130.75-32.03Q132.21-32.18 133.46-32.42 134.7-32.67 135.41-32.91 136.12-33.15 136.61-33.37 137.1-33.59 137.34-33.74L137.34-33.74 137.54-33.89 137.63-33.89Q137.83-33.89 138.02-33.62 138.22-33.35 138.27-33.11L138.27-33.11Q137.73-31.54 137.73-28.86L137.73-28.86 137.73-6.88Q137.73-4.54 138.02-3.17L138.02-3.17Q138.12-2.83 138.56-2.64 139-2.44 139.47-2.39 139.93-2.34 140.37-2.34L140.37-2.34 140.81-2.29Q140.95-2.25 140.95-1.71L140.95-1.71Q140.95-0.98 140.66-0.98L140.66-0.98Q139.93-0.93 139.03-0.78 138.12-0.63 137.32-0.46 136.51-0.29 135.83-0.12 135.14 0.05 134.7 0.2L134.7 0.2 134.26 0.29Q133.97 0.29 133.97-0.54L133.97-0.54 133.97-1.12Q133.97-1.42 133.78-1.32L133.78-1.32Q131.04 0.2 128.6 0.2L128.6 0.2Q124.55 0.2 121.81-2.69 119.08-5.57 119.08-9.57L119.08-9.57Q119.08-14.31 122.42-17.9 125.77-21.48 129.97-21.48ZM145.64-2.2L145.64-14.89Q145.64-16.8 144.96-17.53L144.96-17.53Q144.47-18.12 143.76-18.33 143.05-18.55 142.59-18.55 142.12-18.55 142.12-18.65L142.12-18.65Q142.12-19.82 142.42-19.87L142.42-19.87Q147.59-20.65 149.15-21.14L149.15-21.14Q149.2-21.14 149.3-21.17 149.4-21.19 149.4-21.19L149.4-21.19Q149.59-21.19 149.64-20.78 149.69-20.36 149.64-20.17L149.64-20.17Q149.4-18.21 149.4-16.65L149.4-16.65 149.4-3.32Q149.4 2.88 147.49 5.86L147.49 5.86Q146.27 7.76 144.39 9.23 142.51 10.69 140.95 11.28L140.95 11.28Q140.51 10.99 140.32 10.55L140.32 10.55Q140.22 10.3 140.32 10.21L140.32 10.21 140.9 9.91Q141.49 9.62 142.25 8.89 143 8.15 143.78 6.93 144.57 5.71 145.1 3.32 145.64 0.93 145.64-2.2L145.64-2.2ZM145.08-27.22Q144.37-27.93 144.37-28.96 144.37-29.98 145.08-30.69 145.79-31.4 146.81-31.4 147.84-31.4 148.54-30.69 149.25-29.98 149.25-28.96 149.25-27.93 148.54-27.22 147.84-26.51 146.81-26.51 145.79-26.51 145.08-27.22ZM157.97-27.22Q157.26-27.93 157.26-28.96 157.26-29.98 157.97-30.69 158.67-31.4 159.7-31.4 160.72-31.4 161.43-30.69 162.14-29.98 162.14-28.96 162.14-27.93 161.43-27.22 160.72-26.51 159.7-26.51 158.67-26.51 157.97-27.22ZM161.95-16.65L161.95-6.59Q161.95-3.76 162.34-2.25L162.34-2.25Q162.43-1.9 163.61-1.59 164.78-1.27 165.27-1.27L165.27-1.27Q165.41-1.27 165.46-0.68 165.51-0.1 165.41 0.15L165.41 0.15Q160.53-0.1 160.19-0.1 159.85-0.1 154.87 0.15L154.87 0.15Q154.67-0.05 154.67-0.66 154.67-1.27 154.87-1.27L154.87-1.27Q155.45-1.27 156.6-1.59 157.75-1.9 157.84-2.25L157.84-2.25Q158.19-3.66 158.19-5.66L158.19-5.66 158.19-14.89Q158.19-16.8 157.5-17.53L157.5-17.53Q157.01-18.12 156.31-18.33 155.6-18.55 155.13-18.55 154.67-18.55 154.67-18.65L154.67-18.65Q154.67-19.82 154.96-19.87L154.96-19.87Q160.14-20.65 161.7-21.14L161.7-21.14 161.8-21.19Q161.9-21.19 161.95-21.19L161.95-21.19Q162.14-21.19 162.19-20.78 162.24-20.36 162.19-20.17L162.19-20.17Q161.95-18.21 161.95-16.65L161.95-16.65ZM170.15-5.86L170.15-18.26 167.31-18.26Q167.07-18.26 167.07-19.29L167.07-19.29Q167.07-19.58 167.12-19.63L167.12-19.63Q168.53-20.26 170.19-22.22L170.19-22.22Q170.73-22.85 171.24-23.66 171.76-24.46 172.1-25.05 172.44-25.63 172.44-25.68L172.44-25.68Q173.91-25.68 173.91-25.44L173.91-25.44 173.91-20.61Q175.18-20.61 177.76-20.58 180.35-20.56 180.5-20.56L180.5-20.56Q180.89-20.56 180.89-20.12L180.89-20.12Q180.89-19.24 180.4-18.26L180.4-18.26 173.91-18.26 173.91-6.3Q173.91-4.35 174.91-3.17 175.91-2 177.52-2L177.52-2Q178.98-2 180.55-2.93L180.55-2.93Q180.69-3.03 180.99-2.51 181.28-2 181.23-1.95L181.23-1.95Q180.5-1.17 178.98-0.42 177.47 0.34 175.86 0.34L175.86 0.34Q173.42 0.34 171.78-1.27 170.15-2.88 170.15-5.86L170.15-5.86ZM192.56-19.48L192.56-19.48Q190.02-19.48 188.67-17.31 187.33-15.14 187.33-13.72L187.33-13.72Q187.33-13.38 187.62-13.38L187.62-13.38 197.15-13.38Q197.39-13.38 197.39-13.87L197.39-13.87Q197.39-15.43 196.07-17.46 194.75-19.48 192.56-19.48ZM193.04-21.29L193.04-21.29Q195.29-21.29 197-20.43 198.71-19.58 199.61-18.24 200.51-16.89 200.93-15.5 201.34-14.11 201.34-12.74L201.34-12.74Q201.34-11.77 201.05-11.55 200.76-11.33 199.93-11.33L199.93-11.33 187.62-11.33Q187.23-11.33 187.23-11.08L187.23-11.08Q187.23-8.01 189.09-5.42 190.94-2.83 194.46-2.83L194.46-2.83Q195.49-2.83 196.41-3.03 197.34-3.22 198-3.49 198.66-3.76 199.12-4.03 199.59-4.3 199.93-4.54L199.93-4.54 200.27-4.79Q200.56-4.79 200.56-4.15L200.56-4.15Q200.56-3.76 200.27-3.27L200.27-3.27Q199.29-1.9 197.39-0.81 195.49 0.29 193.24 0.29L193.24 0.29Q189.19 0.29 186.28-2.76 183.38-5.81 183.38-10.21L183.38-10.21Q183.38-15.33 186.13-18.31 188.89-21.29 193.04-21.29ZM226.88-21.29L226.88-21.29Q231.56-21.29 234.2-18.14 236.84-14.99 236.84-11.43L236.84-11.43Q236.84-6.74 233.57-3.17 230.29 0.39 226.14 0.39L226.14 0.39Q225.41 0.39 224.85 0.34 224.29 0.29 223.85 0.17 223.41 0.05 223.17-0.05 222.92-0.15 222.53-0.32 222.14-0.49 222.04-0.54L222.04-0.54Q221.85-0.29 221.85 0.1L221.85 0.1 221.85 4.3Q221.85 7.13 222.24 8.64L222.24 8.64Q222.34 8.98 223.51 9.3 224.68 9.62 225.17 9.62L225.17 9.62Q225.31 9.62 225.36 10.23 225.41 10.84 225.31 11.04L225.31 11.04Q220.43 10.79 220.09 10.79L220.09 10.79Q219.8 10.79 214.77 11.04L214.77 11.04Q214.57 10.84 214.57 10.23 214.57 9.62 214.77 9.62L214.77 9.62Q215.35 9.62 216.5 9.3 217.65 8.98 217.75 8.64L217.75 8.64Q218.09 7.23 218.09 5.22L218.09 5.22 218.09-14.94Q218.09-16.85 217.4-17.58L217.4-17.58Q216.92-18.16 216.21-18.38 215.5-18.6 215.04-18.6 214.57-18.6 214.57-18.7L214.57-18.7Q214.57-19.87 214.87-19.92L214.87-19.92Q220.04-20.7 221.6-21.19L221.6-21.19Q221.65-21.19 221.75-21.22 221.85-21.24 221.85-21.24L221.85-21.24Q221.99-21.24 221.99-20.97 221.99-20.7 221.95-20.31 221.9-19.92 221.9-19.87L221.9-19.87 221.9-19.58Q222.58-20.07 224.17-20.68 225.75-21.29 226.88-21.29ZM225.31-18.9L225.31-18.9Q223.8-18.9 222.82-18.09 221.85-17.29 221.85-15.77L221.85-15.77 221.85-4.79Q221.85-3.47 223.26-2.56 224.68-1.66 226.34-1.66L226.34-1.66Q229.22-1.66 230.93-4.25 232.64-6.84 232.64-10.06L232.64-10.06Q232.64-14.16 230.47-16.53 228.29-18.9 225.31-18.9ZM250.56-19.43L250.56-19.43Q247.97-19.43 246.33-17.07 244.7-14.7 244.7-11.28L244.7-11.28Q244.7-7.28 246.77-4.42 248.85-1.56 251.63-1.56L251.63-1.56Q254.22-1.56 255.88-4 257.54-6.45 257.54-9.86L257.54-9.86Q257.54-13.82 255.44-16.63 253.34-19.43 250.56-19.43ZM251.09-21.34L251.09-21.34Q255.49-21.34 258.61-18.16 261.74-14.99 261.74-10.55L261.74-10.55Q261.74-6.05 258.69-2.86 255.63 0.34 251.19 0.34 246.75 0.34 243.62-2.86 240.5-6.05 240.5-10.55L240.5-10.55Q240.5-15.09 243.52-18.21 246.55-21.34 251.09-21.34ZM272.92-21.34L272.92-21.34Q273.99-21.34 275.63-21.07 277.26-20.8 277.9-20.7L277.9-20.7Q278.39-18.46 278.48-15.72L278.48-15.72Q278.48-15.48 277.85-15.48L277.85-15.48Q277.16-15.48 277.12-15.82L277.12-15.82Q276.87-17.19 275.72-18.41 274.58-19.63 273.11-19.63L273.11-19.63Q269.6-19.63 269.6-16.75L269.6-16.75Q269.6-16.02 269.79-15.45 269.99-14.89 270.55-14.38 271.11-13.87 271.4-13.65 271.7-13.43 272.7-12.87 273.7-12.3 273.94-12.16L273.94-12.16Q274.14-12.06 275.09-11.5 276.04-10.94 276.43-10.69 276.82-10.45 277.58-9.86 278.34-9.28 278.68-8.81 279.02-8.35 279.34-7.64 279.66-6.93 279.66-6.2L279.66-6.2Q279.66-3.32 277.41-1.39 275.16 0.54 272.14 0.54L272.14 0.54Q271.11 0.54 270.26 0.42 269.4 0.29 268.23 0 267.06-0.29 266.42-0.39L266.42-0.39Q266.13-1.17 265.86-2.83 265.59-4.49 265.59-5.47L265.59-5.47Q265.98-5.76 266.18-5.76L266.18-5.76Q266.91-5.76 266.96-5.47L266.96-5.47Q267.25-4 268.79-2.61 270.33-1.22 272.14-1.22L272.14-1.22Q273.7-1.22 274.7-2.08 275.7-2.93 275.7-4.54L275.7-4.54Q275.7-5.37 275.38-6.08 275.07-6.79 274.36-7.35 273.65-7.91 273.04-8.28 272.43-8.64 271.31-9.23 270.18-9.81 269.65-10.16L269.65-10.16Q265.84-12.35 265.84-15.38L265.84-15.38Q265.84-18.02 267.96-19.68 270.08-21.34 272.92-21.34ZM287.95-3.15Q288.78-2.44 290.1-2.44 291.42-2.44 292.64-3.25 293.86-4.05 293.86-4.88L293.86-4.88 293.86-9.91Q293.47-9.72 291.96-9.23 290.44-8.74 289.59-8.37 288.73-8.01 287.93-7.15 287.12-6.3 287.12-5.18L287.12-5.18Q287.12-3.86 287.95-3.15ZM292.54-21.29L292.54-21.29Q295.23-21.29 296.4-20 297.57-18.7 297.57-15.82L297.57-15.82 297.57-4.54Q297.57-3.52 298.11-2.83 298.65-2.15 299.57-2.15L299.57-2.15Q300.26-2.15 301.28-2.83L301.28-2.83Q301.48-2.83 301.48-2.44L301.48-2.44Q301.48-1.81 301.23-1.42L301.23-1.42Q299.23 0.29 297.82 0.29L297.82 0.29Q296.69 0.29 295.67-0.63 294.64-1.56 294.25-2.59L294.25-2.59Q294.2-2.59 293.89-2.27 293.57-1.95 293.03-1.54 292.49-1.12 291.79-0.68 291.08-0.24 290.13 0.05 289.17 0.34 288.2 0.34L288.2 0.34Q285.95 0.34 284.49-0.85 283.02-2.05 283.02-4.44L283.02-4.44Q283.02-5.52 283.56-6.47 284.1-7.42 284.83-8.03 285.56-8.64 286.83-9.28 288.1-9.91 289-10.23 289.91-10.55 291.37-11.04 292.84-11.52 293.42-11.77L293.42-11.77Q293.86-11.91 293.86-12.5L293.86-12.5 293.86-16.16Q293.86-17.72 292.88-18.58 291.91-19.43 290.54-19.43L290.54-19.43Q289.08-19.43 288.1-18.43 287.12-17.43 287.12-15.82L287.12-15.82Q287.12-14.11 285.12-14.11L285.12-14.11Q283.75-14.11 283.22-15.04L283.22-15.04Q283.22-17.14 286.29-19.21 289.37-21.29 292.54-21.29ZM313.63-19.43L313.63-19.43Q311.05-19.43 309.41-17.07 307.78-14.7 307.78-11.28L307.78-11.28Q307.78-7.28 309.85-4.42 311.93-1.56 314.71-1.56L314.71-1.56Q317.3-1.56 318.96-4 320.62-6.45 320.62-9.86L320.62-9.86Q320.62-13.82 318.52-16.63 316.42-19.43 313.63-19.43ZM314.17-21.34L314.17-21.34Q318.57-21.34 321.69-18.16 324.82-14.99 324.82-10.55L324.82-10.55Q324.82-6.05 321.76-2.86 318.71 0.34 314.27 0.34 309.83 0.34 306.7-2.86 303.58-6.05 303.58-10.55L303.58-10.55Q303.58-15.09 306.6-18.21 309.63-21.34 314.17-21.34ZM350.98-21.29L350.98-21.29Q355.67-21.29 358.31-18.14 360.94-14.99 360.94-11.43L360.94-11.43Q360.94-6.74 357.67-3.17 354.4 0.39 350.25 0.39L350.25 0.39Q349.52 0.39 348.96 0.34 348.4 0.29 347.96 0.17 347.52 0.05 347.27-0.05 347.03-0.15 346.64-0.32 346.25-0.49 346.15-0.54L346.15-0.54Q345.95-0.29 345.95 0.1L345.95 0.1 345.95 4.3Q345.95 7.13 346.34 8.64L346.34 8.64Q346.44 8.98 347.61 9.3 348.79 9.62 349.27 9.62L349.27 9.62Q349.42 9.62 349.47 10.23 349.52 10.84 349.42 11.04L349.42 11.04Q344.54 10.79 344.2 10.79L344.2 10.79Q343.9 10.79 338.87 11.04L338.87 11.04Q338.68 10.84 338.68 10.23 338.68 9.62 338.87 9.62L338.87 9.62Q339.46 9.62 340.61 9.3 341.75 8.98 341.85 8.64L341.85 8.64Q342.19 7.23 342.19 5.22L342.19 5.22 342.19-14.94Q342.19-16.85 341.51-17.58L341.51-17.58Q341.02-18.16 340.31-18.38 339.61-18.6 339.14-18.6 338.68-18.6 338.68-18.7L338.68-18.7Q338.68-19.87 338.97-19.92L338.97-19.92Q344.15-20.7 345.71-21.19L345.71-21.19Q345.76-21.19 345.86-21.22 345.95-21.24 345.95-21.24L345.95-21.24Q346.1-21.24 346.1-20.97 346.1-20.7 346.05-20.31 346-19.92 346-19.87L346-19.87 346-19.58Q346.69-20.07 348.27-20.68 349.86-21.29 350.98-21.29ZM349.42-18.9L349.42-18.9Q347.91-18.9 346.93-18.09 345.95-17.29 345.95-15.77L345.95-15.77 345.95-4.79Q345.95-3.47 347.37-2.56 348.79-1.66 350.45-1.66L350.45-1.66Q353.33-1.66 355.04-4.25 356.74-6.84 356.74-10.06L356.74-10.06Q356.74-14.16 354.57-16.53 352.4-18.9 349.42-18.9ZM374.66-19.43L374.66-19.43Q372.07-19.43 370.44-17.07 368.8-14.7 368.8-11.28L368.8-11.28Q368.8-7.28 370.88-4.42 372.95-1.56 375.74-1.56L375.74-1.56Q378.32-1.56 379.98-4 381.64-6.45 381.64-9.86L381.64-9.86Q381.64-13.82 379.54-16.63 377.45-19.43 374.66-19.43ZM375.2-21.34L375.2-21.34Q379.59-21.34 382.72-18.16 385.84-14.99 385.84-10.55L385.84-10.55Q385.84-6.05 382.79-2.86 379.74 0.34 375.3 0.34 370.85 0.34 367.73-2.86 364.6-6.05 364.6-10.55L364.6-10.55Q364.6-15.09 367.63-18.21 370.66-21.34 375.2-21.34ZM417.58-18.21L417.58-18.21Q417.58-19.78 414.06-19.78L414.06-19.78Q413.87-19.78 413.87-20.39 413.87-21 414.06-21.19L414.06-21.19Q414.6-21.14 416.06-21.04 417.53-20.95 418.7-20.95L418.7-20.95 423.58-21.19Q423.68-20.9 423.68-20.46L423.68-20.46Q423.68-19.78 423.34-19.78L423.34-19.78Q422.66-19.78 421.53-19.38 420.41-18.99 420.02-18.12L420.02-18.12 412.25-0.59Q412.16-0.24 411.67 0.15 411.18 0.54 410.84 0.54 410.5 0.54 410.4 0.34L410.4 0.34Q409.57-1.46 406.76-8.06 403.95-14.65 401.85-18.8L401.85-18.8Q401.37-19.78 398.97-19.78L398.97-19.78Q398.78-19.78 398.78-20.41L398.78-20.41Q398.78-21 398.97-21.19L398.97-21.19Q404-20.95 404.05-20.95L404.05-20.95 408.93-21.19Q409.03-21 408.96-20.39 408.89-19.78 408.74-19.78L408.74-19.78Q406.35-19.78 406.35-18.95L406.35-18.95Q406.35-18.85 406.4-18.75L406.4-18.75 412.25-5.52 417.19-16.75Q417.58-17.68 417.58-18.21ZM429.78-3.15Q430.61-2.44 431.93-2.44 433.25-2.44 434.47-3.25 435.69-4.05 435.69-4.88L435.69-4.88 435.69-9.91Q435.3-9.72 433.79-9.23 432.27-8.74 431.42-8.37 430.56-8.01 429.76-7.15 428.95-6.3 428.95-5.18L428.95-5.18Q428.95-3.86 429.78-3.15ZM434.37-21.29L434.37-21.29Q437.06-21.29 438.23-20 439.4-18.7 439.4-15.82L439.4-15.82 439.4-4.54Q439.4-3.52 439.94-2.83 440.47-2.15 441.4-2.15L441.4-2.15Q442.09-2.15 443.11-2.83L443.11-2.83Q443.31-2.83 443.31-2.44L443.31-2.44Q443.31-1.81 443.06-1.42L443.06-1.42Q441.06 0.29 439.64 0.29L439.64 0.29Q438.52 0.29 437.5-0.63 436.47-1.56 436.08-2.59L436.08-2.59Q436.03-2.59 435.71-2.27 435.4-1.95 434.86-1.54 434.32-1.12 433.61-0.68 432.91-0.24 431.95 0.05 431 0.34 430.03 0.34L430.03 0.34Q427.78 0.34 426.31-0.85 424.85-2.05 424.85-4.44L424.85-4.44Q424.85-5.52 425.39-6.47 425.92-7.42 426.66-8.03 427.39-8.64 428.66-9.28 429.93-9.91 430.83-10.23 431.73-10.55 433.2-11.04 434.66-11.52 435.25-11.77L435.25-11.77Q435.69-11.91 435.69-12.5L435.69-12.5 435.69-16.16Q435.69-17.72 434.71-18.58 433.74-19.43 432.37-19.43L432.37-19.43Q430.9-19.43 429.93-18.43 428.95-17.43 428.95-15.82L428.95-15.82Q428.95-14.11 426.95-14.11L426.95-14.11Q425.58-14.11 425.05-15.04L425.05-15.04Q425.05-17.14 428.12-19.21 431.2-21.29 434.37-21.29ZM452.92-21.34L452.92-21.34Q454-21.34 455.63-21.07 457.27-20.8 457.9-20.7L457.9-20.7Q458.39-18.46 458.49-15.72L458.49-15.72Q458.49-15.48 457.86-15.48L457.86-15.48Q457.17-15.48 457.12-15.82L457.12-15.82Q456.88-17.19 455.73-18.41 454.58-19.63 453.12-19.63L453.12-19.63Q449.6-19.63 449.6-16.75L449.6-16.75Q449.6-16.02 449.8-15.45 449.99-14.89 450.56-14.38 451.12-13.87 451.41-13.65 451.7-13.43 452.7-12.87 453.7-12.3 453.95-12.16L453.95-12.16Q454.14-12.06 455.1-11.5 456.05-10.94 456.44-10.69 456.83-10.45 457.59-9.86 458.34-9.28 458.69-8.81 459.03-8.35 459.34-7.64 459.66-6.93 459.66-6.2L459.66-6.2Q459.66-3.32 457.42-1.39 455.17 0.54 452.14 0.54L452.14 0.54Q451.12 0.54 450.26 0.42 449.41 0.29 448.24 0 447.06-0.29 446.43-0.39L446.43-0.39Q446.14-1.17 445.87-2.83 445.6-4.49 445.6-5.47L445.6-5.47Q445.99-5.76 446.19-5.76L446.19-5.76Q446.92-5.76 446.97-5.47L446.97-5.47Q447.26-4 448.8-2.61 450.34-1.22 452.14-1.22L452.14-1.22Q453.7-1.22 454.71-2.08 455.71-2.93 455.71-4.54L455.71-4.54Q455.71-5.37 455.39-6.08 455.07-6.79 454.36-7.35 453.66-7.91 453.05-8.28 452.44-8.64 451.31-9.23 450.19-9.81 449.65-10.16L449.65-10.16Q445.84-12.35 445.84-15.38L445.84-15.38Q445.84-18.02 447.97-19.68 450.09-21.34 452.92-21.34ZM472.99-19.43L472.99-19.43Q470.4-19.43 468.77-17.07 467.13-14.7 467.13-11.28L467.13-11.28Q467.13-7.28 469.21-4.42 471.28-1.56 474.06-1.56L474.06-1.56Q476.65-1.56 478.31-4 479.97-6.45 479.97-9.86L479.97-9.86Q479.97-13.82 477.87-16.63 475.77-19.43 472.99-19.43ZM473.53-21.34L473.53-21.34Q477.92-21.34 481.05-18.16 484.17-14.99 484.17-10.55L484.17-10.55Q484.17-6.05 481.12-2.86 478.07 0.34 473.62 0.34 469.18 0.34 466.06-2.86 462.93-6.05 462.93-10.55L462.93-10.55Q462.93-15.09 465.96-18.21 468.99-21.34 473.53-21.34ZM490.17-2.2L490.17-14.89Q490.17-16.8 489.49-17.53L489.49-17.53Q489-18.12 488.29-18.33 487.59-18.55 487.12-18.55 486.66-18.55 486.66-18.65L486.66-18.65Q486.66-19.82 486.95-19.87L486.95-19.87Q492.13-20.65 493.69-21.14L493.69-21.14Q493.74-21.14 493.84-21.17 493.93-21.19 493.93-21.19L493.93-21.19Q494.13-21.19 494.18-20.78 494.23-20.36 494.18-20.17L494.18-20.17Q493.93-18.21 493.93-16.65L493.93-16.65 493.93-3.32Q493.93 2.88 492.03 5.86L492.03 5.86Q490.81 7.76 488.93 9.23 487.05 10.69 485.49 11.28L485.49 11.28Q485.05 10.99 484.85 10.55L484.85 10.55Q484.75 10.3 484.85 10.21L484.85 10.21 485.44 9.91Q486.02 9.62 486.78 8.89 487.54 8.15 488.32 6.93 489.1 5.71 489.64 3.32 490.17 0.93 490.17-2.2L490.17-2.2ZM489.61-27.22Q488.9-27.93 488.9-28.96 488.9-29.98 489.61-30.69 490.32-31.4 491.35-31.4 492.37-31.4 493.08-30.69 493.79-29.98 493.79-28.96 493.79-27.93 493.08-27.22 492.37-26.51 491.35-26.51 490.32-26.51 489.61-27.22ZM524.45-21.39L524.45-21.39Q526.4-21.39 527.69-20.34 528.99-19.29 529.48-17.92L529.48-17.92Q533.14-21.39 537.04-21.39L537.04-21.39Q543.2-21.39 543.2-12.01L543.2-12.01 543.2-6.59Q543.2-3.76 543.59-2.25L543.59-2.25Q543.69-1.9 544.86-1.59 546.03-1.27 546.52-1.27L546.52-1.27Q546.66-1.27 546.71-0.68 546.76-0.1 546.66 0.15L546.66 0.15Q541.78-0.1 541.44-0.1L541.44-0.1Q541.15-0.1 536.12 0.15L536.12 0.15Q535.92-0.05 535.92-0.66 535.92-1.27 536.12-1.27L536.12-1.27Q536.7-1.27 537.85-1.59 539-1.9 539.1-2.25L539.1-2.25Q539.44-3.66 539.44-5.37L539.44-5.37 539.44-10.89Q539.44-18.41 534.51-18.41L534.51-18.41Q532.7-18.41 531.38-17.36 530.06-16.31 530.06-15.63L530.06-15.63 530.11-15.43Q530.11-15.23 530.11-15.19L530.11-15.19Q530.31-13.96 530.31-11.67L530.31-11.67 530.31-6.15Q530.31-3.76 530.7-2.25L530.7-2.25Q530.79-1.9 531.97-1.59 533.14-1.27 533.63-1.27L533.63-1.27Q533.77-1.27 533.82-0.68 533.87-0.1 533.77 0.15L533.77 0.15Q528.89-0.1 528.55-0.1L528.55-0.1Q528.26-0.1 523.23 0.15L523.23 0.15Q523.03-0.05 523.03-0.66 523.03-1.27 523.23-1.27L523.23-1.27Q523.81-1.27 524.96-1.59 526.11-1.9 526.2-2.25L526.2-2.25Q526.55-3.66 526.55-5.66L526.55-5.66 526.55-10.64Q526.55-18.41 521.86-18.41L521.86-18.41Q520.39-18.41 518.9-17.31 517.42-16.21 517.42-15.19L517.42-15.19 517.42-6.59Q517.42-3.76 517.81-2.25L517.81-2.25Q517.9-1.9 519.08-1.59 520.25-1.27 520.74-1.27L520.74-1.27Q520.88-1.27 520.93-0.68 520.98-0.1 520.88 0.15L520.88 0.15Q516-0.1 515.66-0.1L515.66-0.1Q515.36-0.1 510.34 0.15L510.34 0.15Q510.14-0.05 510.14-0.66 510.14-1.27 510.34-1.27L510.34-1.27Q510.92-1.27 512.07-1.59 513.22-1.9 513.31-2.25L513.31-2.25Q513.66-3.66 513.66-5.66L513.66-5.66 513.66-14.89Q513.66-16.8 512.97-17.53L512.97-17.53Q512.48-18.12 511.78-18.33 511.07-18.55 510.6-18.55 510.14-18.55 510.14-18.65L510.14-18.65Q510.14-19.82 510.43-19.87L510.43-19.87Q515.61-20.65 517.17-21.14L517.17-21.14Q517.22-21.14 517.32-21.17 517.42-21.19 517.42-21.19L517.42-21.19Q517.61-21.19 517.66-20.78 517.71-20.36 517.66-20.17L517.66-20.17Q517.46-18.8 517.46-18.21L517.46-18.21Q517.46-18.02 517.56-18.02L517.56-18.02Q517.61-18.02 517.71-18.12L517.71-18.12Q518.83-19.29 520.76-20.34 522.69-21.39 524.45-21.39ZM558.87-19.48L558.87-19.48Q556.33-19.48 554.99-17.31 553.64-15.14 553.64-13.72L553.64-13.72Q553.64-13.38 553.94-13.38L553.94-13.38 563.46-13.38Q563.7-13.38 563.7-13.87L563.7-13.87Q563.7-15.43 562.38-17.46 561.07-19.48 558.87-19.48ZM559.36-21.29L559.36-21.29Q561.6-21.29 563.31-20.43 565.02-19.58 565.92-18.24 566.83-16.89 567.24-15.5 567.66-14.11 567.66-12.74L567.66-12.74Q567.66-11.77 567.36-11.55 567.07-11.33 566.24-11.33L566.24-11.33 553.94-11.33Q553.55-11.33 553.55-11.08L553.55-11.08Q553.55-8.01 555.4-5.42 557.26-2.83 560.77-2.83L560.77-2.83Q561.8-2.83 562.73-3.03 563.65-3.22 564.31-3.49 564.97-3.76 565.44-4.03 565.9-4.3 566.24-4.54L566.24-4.54 566.58-4.79Q566.88-4.79 566.88-4.15L566.88-4.15Q566.88-3.76 566.58-3.27L566.58-3.27Q565.61-1.9 563.7-0.81 561.8 0.29 559.55 0.29L559.55 0.29Q555.5 0.29 552.59-2.76 549.69-5.81 549.69-10.21L549.69-10.21Q549.69-15.33 552.45-18.31 555.21-21.29 559.36-21.29ZM583.18-21.34L583.18-21.34Q586.06-21.34 586.99-19.92L586.99-19.92Q586.99-18.21 586.45-17.43 585.92-16.65 585.14-16.65L585.14-16.65Q584.26-16.65 583.52-17.48 582.79-18.31 581.52-18.31L581.52-18.31Q580.01-18.31 578.89-16.89 577.76-15.48 577.76-13.92L577.76-13.92 577.76-6.59Q577.76-3.76 578.15-2.25L578.15-2.25Q578.25-1.9 579.45-1.59 580.64-1.27 581.13-1.27L581.13-1.27Q581.28-1.27 581.33-0.68 581.38-0.1 581.28 0.15L581.28 0.15Q576.39-0.1 576-0.1L576-0.1Q575.71-0.1 570.68 0.15L570.68 0.15Q570.49-0.05 570.49-0.66 570.49-1.27 570.68-1.27L570.68-1.27Q571.27-1.27 572.42-1.59 573.56-1.9 573.66-2.25L573.66-2.25Q574-3.66 574-5.66L574-5.66 574-14.89Q574-16.8 573.32-17.53L573.32-17.53Q572.83-18.12 572.12-18.33 571.41-18.55 570.95-18.55 570.49-18.55 570.49-18.65L570.49-18.65Q570.49-19.82 570.78-19.87L570.78-19.87Q575.96-20.65 577.52-21.14L577.52-21.14Q577.57-21.14 577.66-21.17 577.76-21.19 577.76-21.19L577.76-21.19Q577.96-21.19 578.01-20.78 578.05-20.36 578.01-20.17L578.01-20.17 577.71-17.72Q578.59-19.04 580.13-20.19 581.67-21.34 583.18-21.34ZM592.29-27.22Q591.58-27.93 591.58-28.96 591.58-29.98 592.29-30.69 592.99-31.4 594.02-31.4 595.04-31.4 595.75-30.69 596.46-29.98 596.46-28.96 596.46-27.93 595.75-27.22 595.04-26.51 594.02-26.51 592.99-26.51 592.29-27.22ZM596.27-16.65L596.27-6.59Q596.27-3.76 596.66-2.25L596.66-2.25Q596.75-1.9 597.93-1.59 599.1-1.27 599.59-1.27L599.59-1.27Q599.73-1.27 599.78-0.68 599.83-0.1 599.73 0.15L599.73 0.15Q594.85-0.1 594.51-0.1 594.17-0.1 589.19 0.15L589.19 0.15Q588.99-0.05 588.99-0.66 588.99-1.27 589.19-1.27L589.19-1.27Q589.77-1.27 590.92-1.59 592.07-1.9 592.16-2.25L592.16-2.25Q592.51-3.66 592.51-5.66L592.51-5.66 592.51-14.89Q592.51-16.8 591.82-17.53L591.82-17.53Q591.33-18.12 590.63-18.33 589.92-18.55 589.45-18.55 588.99-18.55 588.99-18.65L588.99-18.65Q588.99-19.82 589.28-19.87L589.28-19.87Q594.46-20.65 596.02-21.14L596.02-21.14 596.12-21.19Q596.22-21.19 596.27-21.19L596.27-21.19Q596.46-21.19 596.51-20.78 596.56-20.36 596.51-20.17L596.51-20.17Q596.27-18.21 596.27-16.65L596.27-16.65Z" opacity="1" transform="matrix(1,0,0,1,0,0)" fill="#564045" class="slogan-text-1" data-fill-palette-color="secondary" id="text-1"></path></svg></g></svg></g></svg></g></svg></g><g><svg viewBox="0 0 92.64643098273433 82.28866672944696" height="82.28866672944696" width="92.64643098273433"><g><svg xmlns="http://www.w3.org/2000/svg" xmlns:xlink="http://www.w3.org/1999/xlink" version="1.1" x="0" y="0" viewBox="4.602 9.677 90.79699999999998 80.64600000000002" enable-background="new 0 0 100 100" xml:space="preserve" height="82.28866672944696" width="92.64643098273433" class="icon-icon-0" data-fill-palette-color="accent" id="icon-0"><g fill="#564045" data-fill-palette-color="accent"><path d="M95.35 27.217c0-2.192-1.783-3.976-3.977-3.976H64.445v-7.692c0-3.238-2.635-5.872-5.873-5.872H41.428c-3.238 0-5.873 2.634-5.873 5.872v7.692H8.629c-2.193 0-3.977 1.783-3.977 3.974L4.602 50.884c0 0.384 0.219 0.734 0.564 0.902 1.239 0.601 2.508 1.167 3.799 1.707v32.854c0 2.192 1.783 3.976 3.975 3.976h74.121c2.191 0 3.975-1.783 3.975-3.976v-33.33c1.306-0.589 2.585-1.207 3.829-1.863 0.329-0.173 0.534-0.515 0.534-0.887L95.35 27.217zM37.555 15.549c0-2.135 1.737-3.872 3.873-3.872h17.145c2.1 0 3.873 1.773 3.873 3.872v7.692H37.555V15.549zM89.035 86.348c0 1.07-0.904 1.976-1.975 1.976H12.939c-1.07 0-1.975-0.905-1.975-1.976V54.273c9.138 3.542 19.447 5.643 30.779 6.206 0.017 0.001 0.033 0.002 0.051 0.002 0.073 0 0.14-0.025 0.209-0.041v3.765c0 1.461 1.188 2.649 2.648 2.649h10.695c1.461 0 2.648-1.188 2.648-2.649v-3.748c11.601-0.614 21.996-2.846 31.039-6.604V86.348zM44.004 64.205V56.87c0-0.359 0.291-0.651 0.648-0.651h10.695c0.352 0 0.648 0.298 0.648 0.651v7.335c0 0.352-0.297 0.649-0.648 0.649H44.652C44.295 64.854 44.004 64.563 44.004 64.205zM57.996 58.453V56.87c0-1.462-1.188-2.651-2.648-2.651H44.652c-1.46 0-2.648 1.189-2.648 2.651v1.653c-0.055-0.012-0.104-0.038-0.16-0.041-13.273-0.66-25.125-3.427-35.24-8.226l0.049-23.04c0-1.09 0.887-1.976 1.977-1.976h82.744c1.09 0 1.977 0.886 1.977 1.978l0.047 22.445C83.492 54.77 71.585 57.722 57.996 58.453z" fill="#564045" data-fill-palette-color="accent"></path></g></svg></g></svg></g></svg></g></svg></g><defs></defs></svg><rect width="395.52" height="63.3314259615456" fill="none" stroke="none" visibility="hidden"></rect></g></svg></g></svg>