<?xml version="1.0" encoding="UTF-8" standalone="no" ?>
<!DOCTYPE svg PUBLIC "-//W3C//DTD SVG 1.1//EN" "http://www.w3.org/Graphics/SVG/1.1/DTD/svg11.dtd">
<svg xmlns="http://www.w3.org/2000/svg" xmlns:xlink="http://www.w3.org/1999/xlink" version="1.1" width="300" height="114" viewBox="337.82 118.26 300 114" xml:space="preserve">
<desc>Created with Fabric.js 5.2.4</desc>
<defs>
</defs>
<rect x="0" y="0" width="100%" height="100%" fill="transparent"></rect>
<g transform="matrix(Infinity NaN NaN Infinity 0 0)" id="57377406-3ff5-4332-98f2-be64542c9c7e"  >
</g>
<g transform="matrix(1 0 0 1 150 57)" id="4c5f46e5-9642-4a43-84d4-035027ab9e03"  >
<rect style="stroke: none; stroke-width: 1; stroke-dasharray: none; stroke-linecap: butt; stroke-dashoffset: 0; stroke-linejoin: miter; stroke-miterlimit: 4; fill: rgb(255,255,255); fill-rule: nonzero; opacity: 1; visibility: hidden;" vector-effect="non-scaling-stroke"  x="-150" y="-57" rx="0" ry="0" width="300" height="114" />
</g>
<g transform="matrix(0.06 0 0 0.06 487.57 175.65)"  >
<g style="" vector-effect="non-scaling-stroke"   >
		<g transform="matrix(1 0 0 1 0 0)"  >
<rect style="stroke: none; stroke-width: 1; stroke-dasharray: none; stroke-linecap: butt; stroke-dashoffset: 0; stroke-linejoin: miter; stroke-miterlimit: 4; fill: rgb(255,255,255); fill-rule: nonzero; opacity: 1;" vector-effect="non-scaling-stroke"  x="-750" y="-750" rx="0" ry="0" width="1500" height="1500" />
</g>
		<g transform="matrix(2.04 0 0 2.04 133.17 -22.77)"  >
<path style="stroke: none; stroke-width: 1; stroke-dasharray: none; stroke-linecap: butt; stroke-dashoffset: 0; stroke-linejoin: miter; stroke-miterlimit: 4; fill: rgb(0,0,0); fill-rule: nonzero; opacity: 1;" vector-effect="non-scaling-stroke"  transform=" translate(-179.19, 15.27)" d="M 15.85 6.7 L 15.85 6.7 Q 11.3 6.7 8.38 5.68 Q 5.45 4.65 3.78 2.95 Q 2.1 1.25 1.48 -0.95 Q 0.85 -3.15 0.85 -5.5 L 0.85 -5.5 L 0.85 -12.1 Q 0.85 -12.75 1.03 -13.23 Q 1.2 -13.7 1.5 -13.95 L 1.5 -13.95 L 8 -19.4 Q 8.25 -19.6 8.65 -19.73 Q 9.05 -19.85 9.6 -19.85 L 9.6 -19.85 L 16.85 -19.85 Q 17.4 -19.85 17.82 -19.73 Q 18.25 -19.6 18.55 -19.35 L 18.55 -19.35 L 18.55 -28.75 Q 18.55 -29.4 18.73 -29.85 Q 18.9 -30.3 19.25 -30.6 L 19.25 -30.6 L 25.7 -36.05 Q 25.95 -36.25 26.38 -36.38 Q 26.8 -36.5 27.3 -36.5 L 27.3 -36.5 L 35.15 -36.5 Q 36.35 -36.5 36.9 -35.95 Q 37.45 -35.4 37.45 -34.2 L 37.45 -34.2 L 37.45 -9.45 Q 37.45 -7.1 36.77 -5.13 Q 36.1 -3.15 34.4 -1.75 L 34.4 -1.75 L 27.95 3.7 Q 26.25 5.1 23.35 5.9 Q 20.45 6.7 15.85 6.7 Z M 36.95 -9.45 L 36.95 -9.45 L 36.95 -34.2 Q 36.95 -35.15 36.52 -35.58 Q 36.1 -36 35.15 -36 L 35.15 -36 L 27.3 -36 Q 26.35 -36 25.93 -35.58 Q 25.5 -35.15 25.5 -34.2 L 25.5 -34.2 L 25.5 -11.45 Q 25.5 -10.45 24.93 -9.78 Q 24.35 -9.1 22.2 -9.1 L 22.2 -9.1 Q 19.9 -9.1 19.28 -9.78 Q 18.65 -10.45 18.65 -11.45 L 18.65 -11.45 L 18.65 -17.55 Q 18.65 -18.5 18.23 -18.93 Q 17.8 -19.35 16.85 -19.35 L 16.85 -19.35 L 9.6 -19.35 Q 8.65 -19.35 8.22 -18.93 Q 7.8 -18.5 7.8 -17.55 L 7.8 -17.55 L 7.8 -9.45 Q 7.8 -7.15 8.43 -5.28 Q 9.05 -3.4 10.68 -2.08 Q 12.3 -0.75 15.13 0 Q 17.95 0.75 22.3 0.75 L 22.3 0.75 Q 26.7 0.75 29.55 0 Q 32.4 -0.75 34.02 -2.08 Q 35.65 -3.4 36.3 -5.28 Q 36.95 -7.15 36.95 -9.45 Z M 30.95 -10.65 L 30.95 -31.5 L 31.45 -31.5 L 31.45 -10.65 Q 31.45 -7.7 29.58 -5.8 Q 27.7 -3.9 22.4 -3.9 L 22.4 -3.9 Q 19.6 -3.9 17.78 -4.4 Q 15.95 -4.9 14.9 -5.78 Q 13.85 -6.65 13.43 -7.9 Q 13 -9.15 13 -10.65 L 13 -10.65 L 13 -14.6 L 13.5 -14.6 L 13.5 -10.65 Q 13.5 -7.8 15.38 -6.1 Q 17.25 -4.4 22.4 -4.4 L 22.4 -4.4 Q 27.35 -4.4 29.15 -6.13 Q 30.95 -7.85 30.95 -10.65 L 30.95 -10.65 Z M 76.6 -1.85 L 70.15 3.55 Q 68.4 5.05 65.25 5.88 Q 62.1 6.7 57.15 6.7 L 57.15 6.7 Q 52.25 6.7 49.12 5.68 Q 46 4.65 44.22 2.95 Q 42.45 1.25 41.77 -0.95 Q 41.1 -3.15 41.1 -5.5 L 41.1 -5.5 L 41.1 -21.05 Q 41.1 -23.35 41.75 -25.33 Q 42.4 -27.3 44.1 -28.7 L 44.1 -28.7 L 50.6 -34.1 Q 52.35 -35.6 55.47 -36.43 Q 58.6 -37.25 63.6 -37.25 L 63.6 -37.25 Q 68.5 -37.25 71.62 -36.45 Q 74.75 -35.65 76.52 -34.23 Q 78.3 -32.8 78.95 -30.83 Q 79.6 -28.85 79.6 -26.5 L 79.6 -26.5 L 79.6 -9.45 Q 79.6 -7.15 78.95 -5.2 Q 78.3 -3.25 76.6 -1.85 L 76.6 -1.85 Z M 79.1 -9.45 L 79.1 -9.45 L 79.1 -26.5 Q 79.1 -28.8 78.42 -30.68 Q 77.75 -32.55 76.02 -33.9 Q 74.3 -35.25 71.27 -36 Q 68.25 -36.75 63.6 -36.75 L 63.6 -36.75 Q 58.95 -36.75 55.9 -36 Q 52.85 -35.25 51.12 -33.9 Q 49.4 -32.55 48.72 -30.68 Q 48.05 -28.8 48.05 -26.5 L 48.05 -26.5 L 48.05 -9.45 Q 48.05 -7.15 48.72 -5.28 Q 49.4 -3.4 51.12 -2.08 Q 52.85 -0.75 55.9 0 Q 58.95 0.75 63.6 0.75 L 63.6 0.75 Q 68.25 0.75 71.27 0 Q 74.3 -0.75 76.02 -2.08 Q 77.75 -3.4 78.42 -5.28 Q 79.1 -7.15 79.1 -9.45 Z M 73.65 -25.35 L 73.65 -10.6 Q 73.65 -7.6 71.5 -5.73 Q 69.35 -3.85 63.5 -3.85 L 63.5 -3.85 Q 57.65 -3.85 55.55 -5.73 Q 53.45 -7.6 53.45 -10.6 L 53.45 -10.6 L 53.45 -25.35 Q 53.45 -28.35 55.55 -30.23 Q 57.65 -32.1 63.5 -32.1 L 63.5 -32.1 Q 69.35 -32.1 71.5 -30.23 Q 73.65 -28.35 73.65 -25.35 L 73.65 -25.35 Z M 53.95 -25.35 L 53.95 -10.6 Q 53.95 -7.8 55.95 -6.08 Q 57.95 -4.35 63.5 -4.35 L 63.5 -4.35 Q 69.05 -4.35 71.1 -6.08 Q 73.15 -7.8 73.15 -10.6 L 73.15 -10.6 L 73.15 -25.35 Q 73.15 -28.15 71.1 -29.88 Q 69.05 -31.6 63.5 -31.6 L 63.5 -31.6 Q 57.95 -31.6 55.95 -29.88 Q 53.95 -28.15 53.95 -25.35 L 53.95 -25.35 Z M 59.4 -11.25 L 59.4 -11.25 L 59.4 -24.7 Q 59.4 -25.65 60.15 -26.33 Q 60.9 -27 63.6 -27 L 63.6 -27 Q 66.3 -27 67.05 -26.33 Q 67.8 -25.65 67.8 -24.7 L 67.8 -24.7 L 67.8 -11.25 Q 67.8 -10.25 67.05 -9.58 Q 66.3 -8.9 63.6 -8.9 L 63.6 -8.9 Q 60.9 -8.9 60.15 -9.58 Q 59.4 -10.25 59.4 -11.25 Z M 59.9 -20.7 L 59.9 -11.25 Q 59.9 -10.75 60.1 -10.38 Q 60.3 -10 60.85 -9.75 L 60.85 -9.75 L 60.85 -19.25 Q 60.85 -19.75 60.65 -20.13 Q 60.45 -20.5 59.9 -20.7 L 59.9 -20.7 Z M 105 5.95 L 85.8 5.95 Q 84.59 5.95 84.05 5.4 Q 83.5 4.85 83.5 3.65 L 83.5 3.65 L 83.5 -28.75 Q 83.5 -29.4 83.67 -29.85 Q 83.84 -30.3 84.2 -30.6 L 84.2 -30.6 L 90.65 -36.05 Q 90.9 -36.25 91.32 -36.38 Q 91.75 -36.5 92.25 -36.5 L 92.25 -36.5 L 108.2 -36.5 Q 113.4 -36.5 115.84 -34.48 Q 118.3 -32.45 118.3 -28.35 L 118.3 -28.35 L 118.3 -25.95 Q 118.3 -24.2 117.82 -22.95 Q 117.34 -21.7 116.4 -20.95 L 116.4 -20.95 L 116.25 -20.85 Q 118.95 -20.25 120.3 -18.28 Q 121.65 -16.3 121.65 -12.8 L 121.65 -12.8 L 121.65 -8.2 Q 121.65 -5.95 121 -4.33 Q 120.34 -2.7 119.05 -1.6 L 119.05 -1.6 L 112.59 3.85 Q 111.34 4.9 109.45 5.43 Q 107.55 5.95 105 5.95 L 105 5.95 Z M 92.25 0 L 111.45 0 Q 116.4 0 118.77 -2 Q 121.15 -4 121.15 -8.2 L 121.15 -8.2 L 121.15 -12.8 Q 121.15 -16.45 119.59 -18.35 Q 118.05 -20.25 114.84 -20.55 L 114.84 -20.55 Q 116.34 -21.2 117.07 -22.53 Q 117.8 -23.85 117.8 -25.95 L 117.8 -25.95 L 117.8 -28.35 Q 117.8 -32.25 115.45 -34.13 Q 113.09 -36 108.2 -36 L 108.2 -36 L 92.25 -36 Q 91.3 -36 90.87 -35.58 Q 90.45 -35.15 90.45 -34.2 L 90.45 -34.2 L 90.45 -1.8 Q 90.45 -0.85 90.87 -0.43 Q 91.3 0 92.25 0 L 92.25 0 Z M 109.45 -4.5 L 109.45 -4.5 L 96 -4.5 L 96 -31.5 L 106.15 -31.5 Q 108.2 -31.5 109.5 -31.08 Q 110.8 -30.65 111.5 -29.93 Q 112.2 -29.2 112.45 -28.25 Q 112.7 -27.3 112.7 -26.2 L 112.7 -26.2 L 112.7 -23 Q 112.7 -21.5 112.17 -20.25 Q 111.65 -19 109.5 -18.45 L 109.5 -18.45 Q 111.55 -18.45 112.84 -18.03 Q 114.15 -17.6 114.84 -16.82 Q 115.55 -16.05 115.77 -15 Q 116 -13.95 116 -12.7 L 116 -12.7 L 116 -9.5 Q 116 -8.4 115.75 -7.48 Q 115.5 -6.55 114.82 -5.9 Q 114.15 -5.25 112.84 -4.88 Q 111.55 -4.5 109.45 -4.5 Z M 106.15 -31 L 106.15 -31 L 96.5 -31 L 96.5 -18.45 L 106.15 -18.45 Q 108.2 -18.45 109.4 -18.82 Q 110.59 -19.2 111.22 -19.83 Q 111.84 -20.45 112.02 -21.28 Q 112.2 -22.1 112.2 -23 L 112.2 -23 L 112.2 -26.2 Q 112.2 -28.2 111.05 -29.6 Q 109.9 -31 106.15 -31 Z M 101.7 -22.1 L 101.7 -27.5 L 105.95 -27.5 Q 106.9 -27.5 107.37 -27 Q 107.84 -26.5 107.84 -25.5 L 107.84 -25.5 L 107.84 -24.1 Q 107.84 -23.1 107.37 -22.6 Q 106.9 -22.1 105.95 -22.1 L 105.95 -22.1 L 101.7 -22.1 Z M 109.5 -17.95 L 109.5 -17.95 L 96.5 -17.95 L 96.5 -5 L 109.45 -5 Q 113.2 -5 114.34 -6.23 Q 115.5 -7.45 115.5 -9.5 L 115.5 -9.5 L 115.5 -12.7 Q 115.5 -14.95 114.37 -16.45 Q 113.25 -17.95 109.5 -17.95 Z M 101.7 -8.5 L 101.7 -14.4 L 108.2 -14.4 Q 109.15 -14.4 109.62 -13.93 Q 110.09 -13.45 110.09 -12.45 L 110.09 -12.45 L 110.09 -10.5 Q 110.09 -9.5 109.62 -9 Q 109.15 -8.5 108.2 -8.5 L 108.2 -8.5 L 101.7 -8.5 Z M 134.79 5.95 L 134.79 5.95 L 127.04 5.95 Q 125.84 5.95 125.29 5.4 Q 124.74 4.85 124.74 3.65 L 124.74 3.65 L 124.74 -28.75 Q 124.74 -29.4 124.92 -29.85 Q 125.09 -30.3 125.44 -30.6 L 125.44 -30.6 L 131.89 -36.05 Q 132.14 -36.25 132.57 -36.38 Q 132.99 -36.5 133.49 -36.5 L 133.49 -36.5 L 155.79 -36.5 Q 156.99 -36.5 157.54 -35.95 Q 158.09 -35.4 158.09 -34.2 L 158.09 -34.2 L 158.09 -28.25 Q 158.09 -27.6 157.92 -27.15 Q 157.74 -26.7 157.39 -26.4 L 157.39 -26.4 L 151.79 -21.75 Q 152.94 -21.75 153.49 -21.2 Q 154.04 -20.65 154.04 -19.45 L 154.04 -19.45 L 154.04 -13.45 Q 154.04 -12.8 153.87 -12.35 Q 153.69 -11.9 153.34 -11.6 L 153.34 -11.6 L 146.84 -6.2 Q 146.64 -6 146.22 -5.85 Q 145.79 -5.7 145.29 -5.7 L 145.29 -5.7 L 143.54 -5.7 L 143.54 -1.8 Q 143.54 -1.15 143.37 -0.7 Q 143.19 -0.25 142.84 0.05 L 142.84 0.05 L 136.34 5.45 Q 136.14 5.65 135.72 5.8 Q 135.29 5.95 134.79 5.95 Z M 133.49 0 L 141.24 0 Q 142.19 0 142.62 -0.43 Q 143.04 -0.85 143.04 -1.8 L 143.04 -1.8 L 143.04 -11.65 L 151.74 -11.65 Q 152.69 -11.65 153.12 -12.08 Q 153.54 -12.5 153.54 -13.45 L 153.54 -13.45 L 153.54 -19.45 Q 153.54 -20.4 153.12 -20.83 Q 152.69 -21.25 151.74 -21.25 L 151.74 -21.25 L 143.04 -21.25 L 143.04 -26.45 L 155.79 -26.45 Q 156.74 -26.45 157.17 -26.88 Q 157.59 -27.3 157.59 -28.25 L 157.59 -28.25 L 157.59 -34.2 Q 157.59 -35.15 157.17 -35.58 Q 156.74 -36 155.79 -36 L 155.79 -36 L 133.49 -36 Q 132.54 -36 132.12 -35.58 Q 131.69 -35.15 131.69 -34.2 L 131.69 -34.2 L 131.69 -1.8 Q 131.69 -0.85 132.12 -0.43 Q 132.54 0 133.49 0 L 133.49 0 Z M 137.64 -4.5 L 137.14 -4.5 L 137.14 -31.5 L 153.09 -31.5 L 153.09 -31 L 137.64 -31 L 137.64 -16.7 L 149.04 -16.7 L 149.04 -16.2 L 137.64 -16.2 L 137.64 -4.5 Z M 183.44 5.95 L 183.44 5.95 L 162.14 5.95 Q 160.94 5.95 160.39 5.4 Q 159.84 4.85 159.84 3.65 L 159.84 3.65 L 159.84 -2.3 Q 159.84 -2.95 160.02 -3.4 Q 160.19 -3.85 160.54 -4.15 L 160.54 -4.15 L 166.59 -9.25 L 166.59 -20.4 L 162.14 -20.4 Q 160.94 -20.4 160.39 -20.95 Q 159.84 -21.5 159.84 -22.7 L 159.84 -22.7 L 159.84 -28.75 Q 159.84 -29.4 160.02 -29.85 Q 160.19 -30.3 160.54 -30.6 L 160.54 -30.6 L 166.99 -36.05 Q 167.24 -36.25 167.67 -36.38 Q 168.09 -36.5 168.59 -36.5 L 168.59 -36.5 L 189.89 -36.5 Q 191.09 -36.5 191.64 -35.95 Q 192.19 -35.4 192.19 -34.2 L 192.19 -34.2 L 192.19 -28.15 Q 192.19 -27.5 192.02 -27.05 Q 191.84 -26.6 191.49 -26.3 L 191.49 -26.3 L 185.54 -21.3 L 185.54 -10.05 L 189.89 -10.05 Q 191.09 -10.05 191.64 -9.5 Q 192.19 -8.95 192.19 -7.75 L 192.19 -7.75 L 192.19 -1.8 Q 192.19 -1.15 192.02 -0.7 Q 191.84 -0.25 191.49 0.05 L 191.49 0.05 L 184.99 5.45 Q 184.79 5.65 184.37 5.8 Q 183.94 5.95 183.44 5.95 Z M 168.59 0 L 168.59 0 L 189.89 0 Q 190.84 0 191.27 -0.43 Q 191.69 -0.85 191.69 -1.8 L 191.69 -1.8 L 191.69 -7.75 Q 191.69 -8.7 191.27 -9.13 Q 190.84 -9.55 189.89 -9.55 L 189.89 -9.55 L 185.04 -9.55 L 185.04 -26.35 L 189.89 -26.35 Q 190.84 -26.35 191.27 -26.78 Q 191.69 -27.2 191.69 -28.15 L 191.69 -28.15 L 191.69 -34.2 Q 191.69 -35.15 191.27 -35.58 Q 190.84 -36 189.89 -36 L 189.89 -36 L 168.59 -36 Q 167.64 -36 167.22 -35.58 Q 166.79 -35.15 166.79 -34.2 L 166.79 -34.2 L 166.79 -28.15 Q 166.79 -27.2 167.22 -26.78 Q 167.64 -26.35 168.59 -26.35 L 168.59 -26.35 L 173.54 -26.35 L 173.54 -9.55 L 168.59 -9.55 Q 167.64 -9.55 167.22 -9.13 Q 166.79 -8.7 166.79 -7.75 L 166.79 -7.75 L 166.79 -1.8 Q 166.79 -0.85 167.22 -0.43 Q 167.64 0 168.59 0 Z M 187.19 -5 L 187.19 -4.5 L 171.29 -4.5 L 171.29 -5 L 179.04 -5 L 179.04 -31 L 171.29 -31 L 171.29 -31.5 L 187.19 -31.5 L 187.19 -31 L 179.54 -31 L 179.54 -5 L 187.19 -5 Z M 209.44 -31.1 L 209.44 -31.1 L 227.84 -10.4 L 227.84 -31.5 L 228.34 -31.5 L 228.34 -4.5 L 227.84 -4.5 L 227.84 -9.65 L 208.94 -30.85 Q 208.89 -30.9 208.81 -30.95 Q 208.74 -31 208.69 -31 L 208.69 -31 Q 208.64 -31 208.61 -30.95 Q 208.59 -30.9 208.59 -30.85 L 208.59 -30.85 L 208.59 -4.5 L 208.09 -4.5 L 208.09 -30.95 Q 208.09 -31.25 208.29 -31.4 Q 208.49 -31.55 208.69 -31.55 L 208.69 -31.55 Q 208.89 -31.55 209.04 -31.45 Q 209.19 -31.35 209.44 -31.1 Z M 204.64 0 L 212.14 0 Q 213.09 0 213.51 -0.43 Q 213.94 -0.85 213.94 -1.8 L 213.94 -1.8 L 213.94 -18.3 L 222.49 -7.95 L 222.49 -1.8 Q 222.49 -0.85 222.91 -0.43 Q 223.34 0 224.29 0 L 224.29 0 L 231.79 0 Q 232.74 0 233.16 -0.43 Q 233.59 -0.85 233.59 -1.8 L 233.59 -1.8 L 233.59 -34.2 Q 233.59 -35.15 233.16 -35.58 Q 232.74 -36 231.79 -36 L 231.79 -36 L 224.29 -36 Q 223.34 -36 222.91 -35.58 Q 222.49 -35.15 222.49 -34.2 L 222.49 -34.2 L 222.49 -23.55 L 212.79 -34.65 Q 212.14 -35.4 211.46 -35.7 Q 210.79 -36 209.84 -36 L 209.84 -36 L 204.64 -36 Q 203.69 -36 203.26 -35.58 Q 202.84 -35.15 202.84 -34.2 L 202.84 -34.2 L 202.84 -1.8 Q 202.84 -0.85 203.26 -0.43 Q 203.69 0 204.64 0 L 204.64 0 Z M 213.74 0.05 L 213.74 0.05 L 207.24 5.45 Q 207.04 5.65 206.61 5.8 Q 206.19 5.95 205.69 5.95 L 205.69 5.95 L 198.19 5.95 Q 196.99 5.95 196.44 5.4 Q 195.89 4.85 195.89 3.65 L 195.89 3.65 L 195.89 -28.75 Q 195.89 -29.4 196.06 -29.85 Q 196.24 -30.3 196.59 -30.6 L 196.59 -30.6 L 203.04 -36.05 Q 203.29 -36.25 203.71 -36.38 Q 204.14 -36.5 204.64 -36.5 L 204.64 -36.5 L 209.84 -36.5 Q 210.94 -36.5 211.69 -36.15 Q 212.44 -35.8 213.19 -35 L 213.19 -35 L 216.64 -31 L 222.69 -36.05 Q 222.94 -36.25 223.36 -36.38 Q 223.79 -36.5 224.29 -36.5 L 224.29 -36.5 L 231.79 -36.5 Q 232.99 -36.5 233.54 -35.95 Q 234.09 -35.4 234.09 -34.2 L 234.09 -34.2 L 234.09 -1.8 Q 234.09 -1.15 233.91 -0.7 Q 233.74 -0.25 233.39 0.05 L 233.39 0.05 L 226.89 5.45 Q 226.69 5.65 226.26 5.8 Q 225.84 5.95 225.34 5.95 L 225.34 5.95 L 217.84 5.95 Q 216.64 5.95 216.09 5.4 Q 215.54 4.85 215.54 3.65 L 215.54 3.65 L 215.54 -2.3 L 214.44 -3.65 L 214.44 -1.8 Q 214.44 -1.15 214.26 -0.7 Q 214.09 -0.25 213.74 0.05 Z M 273.79 -2.1 L 267.29 3.3 Q 265.74 4.6 263.34 5.28 Q 260.94 5.95 257.69 5.95 L 257.69 5.95 L 240.84 5.95 Q 239.64 5.95 239.09 5.4 Q 238.54 4.85 238.54 3.65 L 238.54 3.65 L 238.54 -28.75 Q 238.54 -29.4 238.71 -29.85 Q 238.89 -30.3 239.24 -30.6 L 239.24 -30.6 L 245.69 -36.05 Q 245.94 -36.25 246.36 -36.38 Q 246.79 -36.5 247.29 -36.5 L 247.29 -36.5 L 264.14 -36.5 Q 270.69 -36.5 273.81 -33.85 Q 276.94 -31.2 276.94 -25.8 L 276.94 -25.8 L 276.94 -10.2 Q 276.94 -7.5 276.14 -5.48 Q 275.34 -3.45 273.79 -2.1 L 273.79 -2.1 Z M 247.29 0 L 264.14 0 Q 270.39 0 273.41 -2.5 Q 276.44 -5 276.44 -10.2 L 276.44 -10.2 L 276.44 -25.8 Q 276.44 -31 273.41 -33.5 Q 270.39 -36 264.14 -36 L 264.14 -36 L 247.29 -36 Q 246.34 -36 245.91 -35.58 Q 245.49 -35.15 245.49 -34.2 L 245.49 -34.2 L 245.49 -1.8 Q 245.49 -0.85 245.91 -0.43 Q 246.34 0 247.29 0 L 247.29 0 Z M 263.04 -4.5 L 250.94 -4.5 L 250.94 -31.5 L 263.04 -31.5 Q 265.59 -31.5 267.16 -30.95 Q 268.74 -30.4 269.59 -29.48 Q 270.44 -28.55 270.74 -27.28 Q 271.04 -26 271.04 -24.55 L 271.04 -24.55 L 271.04 -11.3 Q 271.04 -9.85 270.76 -8.6 Q 270.49 -7.35 269.64 -6.45 Q 268.79 -5.55 267.19 -5.03 Q 265.59 -4.5 263.04 -4.5 L 263.04 -4.5 Z M 263.04 -31 L 263.04 -31 L 251.44 -31 L 251.44 -5 L 263.04 -5 Q 265.44 -5 266.91 -5.48 Q 268.39 -5.95 269.19 -6.78 Q 269.99 -7.6 270.26 -8.78 Q 270.54 -9.95 270.54 -11.3 L 270.54 -11.3 L 270.54 -24.55 Q 270.54 -25.9 270.24 -27.1 Q 269.94 -28.3 269.14 -29.15 Q 268.34 -30 266.86 -30.5 Q 265.39 -31 263.04 -31 Z M 256.84 -9.45 L 256.84 -26.45 L 262.79 -26.45 Q 263.99 -26.45 264.56 -25.88 Q 265.14 -25.3 265.14 -24.05 L 265.14 -24.05 L 265.14 -11.9 Q 265.14 -10.65 264.56 -10.05 Q 263.99 -9.45 262.79 -9.45 L 262.79 -9.45 L 256.84 -9.45 Z M 258.19 -9.95 L 258.19 -18.6 Q 258.19 -19.25 257.99 -19.7 Q 257.79 -20.15 257.34 -20.35 L 257.34 -20.35 L 257.34 -9.95 L 258.19 -9.95 Z M 306.33 5.95 L 306.33 5.95 L 283.13 5.95 Q 281.93 5.95 281.38 5.4 Q 280.83 4.85 280.83 3.65 L 280.83 3.65 L 280.83 -28.75 Q 280.83 -29.4 281.01 -29.85 Q 281.18 -30.3 281.53 -30.6 L 281.53 -30.6 L 287.98 -36.05 Q 288.23 -36.25 288.66 -36.38 Q 289.08 -36.5 289.58 -36.5 L 289.58 -36.5 L 312.78 -36.5 Q 313.98 -36.5 314.53 -35.95 Q 315.08 -35.4 315.08 -34.2 L 315.08 -34.2 L 315.08 -28.35 Q 315.08 -27.7 314.91 -27.25 Q 314.73 -26.8 314.38 -26.5 L 314.38 -26.5 L 310.08 -22.95 Q 310.58 -22.7 310.81 -22.2 Q 311.03 -21.7 311.03 -20.9 L 311.03 -20.9 L 311.03 -15.55 Q 311.03 -14.9 310.86 -14.45 Q 310.68 -14 310.33 -13.7 L 310.33 -13.7 L 305.88 -9.95 L 312.78 -9.95 Q 313.98 -9.95 314.53 -9.4 Q 315.08 -8.85 315.08 -7.65 L 315.08 -7.65 L 315.08 -1.8 Q 315.08 -1.15 314.91 -0.7 Q 314.73 -0.25 314.38 0.05 L 314.38 0.05 L 307.88 5.45 Q 307.68 5.65 307.26 5.8 Q 306.83 5.95 306.33 5.95 Z M 289.58 0 L 312.78 0 Q 313.73 0 314.16 -0.43 Q 314.58 -0.85 314.58 -1.8 L 314.58 -1.8 L 314.58 -7.65 Q 314.58 -8.6 314.16 -9.03 Q 313.73 -9.45 312.78 -9.45 L 312.78 -9.45 L 298.98 -9.45 L 298.98 -13.75 L 308.73 -13.75 Q 309.68 -13.75 310.11 -14.18 Q 310.53 -14.6 310.53 -15.55 L 310.53 -15.55 L 310.53 -20.9 Q 310.53 -21.85 310.11 -22.28 Q 309.68 -22.7 308.73 -22.7 L 308.73 -22.7 L 298.98 -22.7 L 298.98 -26.55 L 312.78 -26.55 Q 313.73 -26.55 314.16 -26.98 Q 314.58 -27.4 314.58 -28.35 L 314.58 -28.35 L 314.58 -34.2 Q 314.58 -35.15 314.16 -35.58 Q 313.73 -36 312.78 -36 L 312.78 -36 L 289.58 -36 Q 288.63 -36 288.21 -35.58 Q 287.78 -35.15 287.78 -34.2 L 287.78 -34.2 L 287.78 -1.8 Q 287.78 -0.85 288.21 -0.43 Q 288.63 0 289.58 0 L 289.58 0 Z M 293.73 -5 L 310.08 -5 L 310.08 -4.5 L 293.23 -4.5 L 293.23 -31.5 L 310.08 -31.5 L 310.08 -31 L 293.73 -31 L 293.73 -18.45 L 306.03 -18.45 L 306.03 -17.95 L 293.73 -17.95 L 293.73 -5 Z M 342.28 -31 L 342.28 -31 L 331.38 -31 L 331.38 -16.55 L 342.28 -16.55 Q 345.38 -16.55 346.43 -18.05 Q 347.48 -19.55 347.48 -22.3 L 347.48 -22.3 L 347.48 -25.8 Q 347.48 -28.1 346.21 -29.55 Q 344.93 -31 342.28 -31 Z M 336.78 -20.6 L 336.78 -27 L 340.53 -27 Q 341.83 -27 342.28 -26.33 Q 342.73 -25.65 342.73 -24.65 L 342.73 -24.65 L 342.73 -22.95 Q 342.73 -21.95 342.28 -21.28 Q 341.83 -20.6 340.53 -20.6 L 340.53 -20.6 L 336.78 -20.6 Z M 331.38 -16.1 L 331.38 -4.5 L 330.88 -4.5 L 330.88 -31.5 L 342.28 -31.5 Q 345.18 -31.5 346.58 -29.88 Q 347.98 -28.25 347.98 -25.8 L 347.98 -25.8 L 347.98 -22.35 Q 347.98 -20.05 347.38 -18.57 Q 346.78 -17.1 344.98 -16.55 L 344.98 -16.55 L 345.53 -16.55 Q 348.58 -16.55 350.08 -15.18 Q 351.58 -13.8 351.58 -11.2 L 351.58 -11.2 L 351.58 -4.5 L 351.08 -4.5 L 351.08 -11.2 Q 351.08 -13.65 349.73 -14.88 Q 348.38 -16.1 345.53 -16.1 L 345.53 -16.1 L 331.38 -16.1 Z M 327.28 0 L 334.98 0 Q 335.93 0 336.36 -0.43 Q 336.78 -0.85 336.78 -1.8 L 336.78 -1.8 L 336.78 -11.6 L 343.78 -11.6 Q 344.83 -11.6 345.26 -11.08 Q 345.68 -10.55 345.68 -9.45 L 345.68 -9.45 L 345.68 -1.8 Q 345.68 -0.85 346.11 -0.43 Q 346.53 0 347.48 0 L 347.48 0 L 355.23 0 Q 356.18 0 356.61 -0.43 Q 357.03 -0.85 357.03 -1.8 L 357.03 -1.8 L 357.03 -12.4 Q 357.03 -15.55 355.36 -17.45 Q 353.68 -19.35 350.98 -19.65 L 350.98 -19.65 Q 352.53 -20.3 353.16 -21.78 Q 353.78 -23.25 353.78 -25.35 L 353.78 -25.35 L 353.78 -27.65 Q 353.78 -31.35 351.66 -33.68 Q 349.53 -36 343.93 -36 L 343.93 -36 L 327.28 -36 Q 326.33 -36 325.91 -35.58 Q 325.48 -35.15 325.48 -34.2 L 325.48 -34.2 L 325.48 -1.8 Q 325.48 -0.85 325.91 -0.43 Q 326.33 0 327.28 0 L 327.28 0 Z M 336.58 0.05 L 336.58 0.05 L 330.08 5.45 Q 329.88 5.65 329.46 5.8 Q 329.03 5.95 328.53 5.95 L 328.53 5.95 L 320.83 5.95 Q 319.63 5.95 319.08 5.4 Q 318.53 4.85 318.53 3.65 L 318.53 3.65 L 318.53 -28.75 Q 318.53 -29.4 318.71 -29.85 Q 318.88 -30.3 319.23 -30.6 L 319.23 -30.6 L 325.68 -36.05 Q 325.93 -36.25 326.36 -36.38 Q 326.78 -36.5 327.28 -36.5 L 327.28 -36.5 L 343.93 -36.5 Q 349.88 -36.5 352.08 -34.02 Q 354.28 -31.55 354.28 -27.65 L 354.28 -27.65 L 354.28 -25.35 Q 354.28 -23.5 353.83 -22.13 Q 353.38 -20.75 352.38 -19.9 L 352.38 -19.9 L 352.33 -19.9 Q 354.68 -19.25 356.11 -17.3 Q 357.53 -15.35 357.53 -12.4 L 357.53 -12.4 L 357.53 -1.8 Q 357.53 -1.15 357.36 -0.7 Q 357.18 -0.25 356.83 0.05 L 356.83 0.05 L 350.33 5.45 Q 350.13 5.65 349.71 5.8 Q 349.28 5.95 348.78 5.95 L 348.78 5.95 L 341.03 5.95 Q 339.83 5.95 339.28 5.4 Q 338.73 4.85 338.73 3.65 L 338.73 3.65 L 338.73 -4 Q 338.73 -4.8 338.43 -5.23 Q 338.13 -5.65 337.33 -5.65 L 337.33 -5.65 L 337.28 -5.65 L 337.28 -1.8 Q 337.28 -1.15 337.11 -0.7 Q 336.93 -0.25 336.58 0.05 Z" stroke-linecap="round" />
</g>
		<g transform="matrix(0.51 0 0 0.51 -15.25 55.02)"  >
<path style="stroke: none; stroke-width: 1; stroke-dasharray: none; stroke-linecap: butt; stroke-dashoffset: 0; stroke-linejoin: miter; stroke-miterlimit: 4; fill: rgb(0,0,0); fill-rule: nonzero; opacity: 1;" vector-effect="non-scaling-stroke"  transform=" translate(-425.84, 13)" d="M 3.5 -35 L 21.5 -35 Q 25.25 -35 28.23 -34.18 Q 31.2 -33.35 33.25 -31.78 Q 35.3 -30.2 36.4 -27.93 Q 37.5 -25.65 37.5 -22.75 L 37.5 -22.75 Q 37.5 -19.85 36.4 -17.57 Q 35.3 -15.3 33.25 -13.73 Q 31.2 -12.15 28.23 -11.33 Q 25.25 -10.5 21.5 -10.5 L 21.5 -10.5 L 10.75 -10.5 L 10.75 0 L 3.5 0 L 3.5 -35 Z M 21.5 -31.25 L 10.75 -31.25 L 10.75 -14.25 L 21.5 -14.25 Q 25.45 -14.25 27.63 -16.32 Q 29.8 -18.4 29.8 -22.75 L 29.8 -22.75 Q 29.8 -27.1 27.63 -29.18 Q 25.45 -31.25 21.5 -31.25 L 21.5 -31.25 Z M 61.75 -26 L 61.75 -22.5 L 55.75 -22.5 Q 52.35 -22.5 50.55 -20.68 Q 48.75 -18.85 48.75 -15.25 L 48.75 -15.25 L 48.75 0 L 41.75 0 L 41.75 -15.25 Q 41.75 -20.35 44.97 -23.18 Q 48.2 -26 54.25 -26 L 54.25 -26 L 61.75 -26 Z M 78.25 -2.25 L 78.25 -2.25 Q 79.84 -2.25 81.25 -2.85 Q 82.65 -3.45 83.7 -4.73 Q 84.75 -6 85.37 -8.05 Q 86 -10.1 86 -13 L 86 -13 Q 86 -15.9 85.37 -17.95 Q 84.75 -20 83.7 -21.28 Q 82.65 -22.55 81.25 -23.15 Q 79.84 -23.75 78.25 -23.75 L 78.25 -23.75 Q 76.65 -23.75 75.25 -23.15 Q 73.84 -22.55 72.8 -21.28 Q 71.75 -20 71.12 -17.95 Q 70.5 -15.9 70.5 -13 L 70.5 -13 Q 70.5 -10.1 71.12 -8.05 Q 71.75 -6 72.8 -4.73 Q 73.84 -3.45 75.25 -2.85 Q 76.65 -2.25 78.25 -2.25 Z M 78.25 -27 L 78.25 -27 Q 81.59 -27 84.42 -26.08 Q 87.25 -25.15 89.25 -23.38 Q 91.25 -21.6 92.37 -18.98 Q 93.5 -16.35 93.5 -13 L 93.5 -13 Q 93.5 -9.6 92.37 -7 Q 91.25 -4.4 89.25 -2.63 Q 87.25 -0.85 84.42 0.08 Q 81.59 1 78.25 1 L 78.25 1 Q 74.84 1 72.05 0.08 Q 69.25 -0.85 67.25 -2.63 Q 65.25 -4.4 64.12 -7 Q 63 -9.6 63 -13 L 63 -13 Q 63 -16.35 64.12 -18.98 Q 65.25 -21.6 67.25 -23.38 Q 69.25 -25.15 72.05 -26.08 Q 74.84 -27 78.25 -27 Z M 126.74 -15.75 L 126.74 0 L 119.74 0 L 119.74 -15.75 Q 119.74 -19.35 117.94 -20.93 Q 116.14 -22.5 112.74 -22.5 L 112.74 -22.5 L 106.24 -22.5 L 106.24 0 L 99.24 0 L 99.24 -26 L 112.74 -26 Q 119.89 -26 123.32 -23.43 Q 126.74 -20.85 126.74 -15.75 L 126.74 -15.75 Z M 139.24 -8.25 L 139.24 -8.25 Q 139.24 -3.5 144.99 -3.5 L 144.99 -3.5 L 151.99 -3.5 L 151.99 -13 L 144.99 -13 Q 139.24 -13 139.24 -8.25 Z M 144.99 -16.5 L 151.99 -16.5 Q 151.99 -20.1 150.12 -21.8 Q 148.24 -23.5 145.24 -23.5 L 145.24 -23.5 Q 142.99 -23.5 140.84 -22.83 Q 138.69 -22.15 136.99 -21 L 136.99 -21 L 135.24 -24 Q 136.34 -24.75 137.67 -25.3 Q 138.99 -25.85 140.39 -26.23 Q 141.79 -26.6 143.17 -26.8 Q 144.54 -27 145.74 -27 L 145.74 -27 Q 148.94 -27 151.39 -26.25 Q 153.84 -25.5 155.54 -24.1 Q 157.24 -22.7 158.12 -20.78 Q 158.99 -18.85 158.99 -16.5 L 158.99 -16.5 L 158.99 0 L 144.99 0 Q 138.19 0 134.97 -2.05 Q 131.74 -4.1 131.74 -8.25 L 131.74 -8.25 Q 131.74 -12.4 134.97 -14.45 Q 138.19 -16.5 144.99 -16.5 L 144.99 -16.5 Z M 179.74 -3.5 L 185.99 -3.5 L 185.99 -22.5 L 179.74 -22.5 Q 178.04 -22.5 176.61 -21.98 Q 175.19 -21.45 174.16 -20.3 Q 173.14 -19.15 172.56 -17.35 Q 171.99 -15.55 171.99 -13 L 171.99 -13 Q 171.99 -10.45 172.56 -8.65 Q 173.14 -6.85 174.16 -5.7 Q 175.19 -4.55 176.61 -4.03 Q 178.04 -3.5 179.74 -3.5 L 179.74 -3.5 Z M 192.99 0 L 179.74 0 Q 176.29 0 173.46 -0.9 Q 170.64 -1.8 168.64 -3.5 Q 166.64 -5.2 165.56 -7.6 Q 164.49 -10 164.49 -13 L 164.49 -13 Q 164.49 -16 165.56 -18.4 Q 166.64 -20.8 168.64 -22.5 Q 170.64 -24.2 173.46 -25.1 Q 176.29 -26 179.74 -26 L 179.74 -26 L 185.99 -26 L 185.99 -35 L 192.99 -35 L 192.99 0 Z M 207.74 -25.5 L 207.74 0 Q 207.74 2.15 207.04 3.98 Q 206.34 5.8 205.01 7.15 Q 203.69 8.5 201.74 9.25 Q 199.79 10 197.24 10 L 197.24 10 Q 195.94 10 194.46 9.75 Q 192.99 9.5 191.49 8.75 L 191.49 8.75 L 192.49 5.5 Q 193.24 5.9 194.26 6.2 Q 195.29 6.5 196.24 6.5 L 196.24 6.5 Q 197.19 6.5 198.01 6.15 Q 198.84 5.8 199.44 5.03 Q 200.04 4.25 200.39 3.03 Q 200.74 1.8 200.74 0 L 200.74 0 L 200.74 -25.5 L 207.74 -25.5 Z M 207.99 -32.25 L 207.99 -32.25 Q 207.99 -30.75 206.96 -29.63 Q 205.94 -28.5 204.24 -28.5 L 204.24 -28.5 Q 202.54 -28.5 201.51 -29.63 Q 200.49 -30.75 200.49 -32.25 L 200.49 -32.25 Q 200.49 -33.75 201.51 -34.88 Q 202.54 -36 204.24 -36 L 204.24 -36 Q 205.89 -36 206.94 -34.88 Q 207.99 -33.75 207.99 -32.25 Z M 222.23 -25.5 L 222.23 0 L 215.23 0 L 215.23 -25.5 L 222.23 -25.5 Z M 222.48 -32.25 L 222.48 -32.25 Q 222.48 -30.75 221.46 -29.63 Q 220.43 -28.5 218.73 -28.5 L 218.73 -28.5 Q 217.03 -28.5 216.01 -29.63 Q 214.98 -30.75 214.98 -32.25 L 214.98 -32.25 Q 214.98 -33.75 216.01 -34.88 Q 217.03 -36 218.73 -36 L 218.73 -36 Q 220.38 -36 221.43 -34.88 Q 222.48 -33.75 222.48 -32.25 Z M 231.73 -9.5 L 231.73 -22.5 L 226.98 -22.5 L 226.98 -26 L 231.73 -26 L 231.73 -34 L 238.73 -34 L 238.73 -26 L 246.48 -26 L 246.48 -22.5 L 238.73 -22.5 L 238.73 -9.5 Q 238.73 -7.6 239.16 -6.28 Q 239.58 -4.95 240.31 -4.13 Q 241.03 -3.3 241.98 -2.9 Q 242.93 -2.5 243.98 -2.5 L 243.98 -2.5 Q 245.48 -2.5 246.88 -2.98 Q 248.28 -3.45 249.23 -4 L 249.23 -4 L 250.73 -0.75 Q 249.23 0 247.31 0.5 Q 245.38 1 243.48 1 L 243.48 1 Q 237.83 1 234.78 -1.8 Q 231.73 -4.6 231.73 -9.5 L 231.73 -9.5 Z M 268.23 -2.5 L 268.23 -2.5 Q 270.68 -2.5 272.8 -3.35 Q 274.93 -4.2 276.98 -5.75 L 276.98 -5.75 L 278.98 -2.75 Q 278.03 -1.9 276.75 -1.2 Q 275.48 -0.5 274 -0.03 Q 272.53 0.45 270.93 0.73 Q 269.33 1 267.73 1 L 267.73 1 Q 264.18 1 261.25 0.08 Q 258.33 -0.85 256.28 -2.63 Q 254.23 -4.4 253.1 -7 Q 251.98 -9.6 251.98 -13 L 251.98 -13 Q 251.98 -16.35 253.05 -18.98 Q 254.13 -21.6 256.05 -23.38 Q 257.98 -25.15 260.63 -26.08 Q 263.28 -27 266.48 -27 L 266.48 -27 Q 269.48 -27 272.13 -26.1 Q 274.78 -25.2 276.73 -23.48 Q 278.68 -21.75 279.83 -19.3 Q 280.98 -16.85 280.98 -13.75 L 280.98 -13.75 L 280.98 -10.25 L 259.63 -10.25 Q 260.23 -6.1 262.5 -4.3 Q 264.78 -2.5 268.23 -2.5 Z M 266.48 -23.75 L 266.48 -23.75 Q 265.03 -23.75 263.78 -23.2 Q 262.53 -22.65 261.6 -21.45 Q 260.68 -20.25 260.1 -18.35 Q 259.53 -16.45 259.48 -13.75 L 259.48 -13.75 L 273.48 -13.75 Q 273.48 -16.35 272.88 -18.25 Q 272.28 -20.15 271.3 -21.38 Q 270.33 -22.6 269.05 -23.18 Q 267.78 -23.75 266.48 -23.75 Z M 317.47 -22.5 L 311.22 -22.5 L 311.22 -3.5 L 317.47 -3.5 Q 319.17 -3.5 320.6 -4.03 Q 322.02 -4.55 323.05 -5.7 Q 324.07 -6.85 324.65 -8.65 Q 325.22 -10.45 325.22 -13 L 325.22 -13 Q 325.22 -15.55 324.65 -17.35 Q 324.07 -19.15 323.05 -20.3 Q 322.02 -21.45 320.6 -21.98 Q 319.17 -22.5 317.47 -22.5 L 317.47 -22.5 Z M 304.22 -26 L 317.47 -26 Q 320.92 -26 323.75 -25.1 Q 326.57 -24.2 328.57 -22.5 Q 330.57 -20.8 331.65 -18.4 Q 332.72 -16 332.72 -13 L 332.72 -13 Q 332.72 -10 331.65 -7.6 Q 330.57 -5.2 328.57 -3.5 Q 326.57 -1.8 323.75 -0.9 Q 320.92 0 317.47 0 L 317.47 0 L 311.22 0 L 311.22 9 L 304.22 9 L 304.22 -26 Z M 352.47 -2.25 L 352.47 -2.25 Q 354.07 -2.25 355.47 -2.85 Q 356.87 -3.45 357.92 -4.73 Q 358.97 -6 359.6 -8.05 Q 360.22 -10.1 360.22 -13 L 360.22 -13 Q 360.22 -15.9 359.6 -17.95 Q 358.97 -20 357.92 -21.28 Q 356.87 -22.55 355.47 -23.15 Q 354.07 -23.75 352.47 -23.75 L 352.47 -23.75 Q 350.87 -23.75 349.47 -23.15 Q 348.07 -22.55 347.02 -21.28 Q 345.97 -20 345.35 -17.95 Q 344.72 -15.9 344.72 -13 L 344.72 -13 Q 344.72 -10.1 345.35 -8.05 Q 345.97 -6 347.02 -4.73 Q 348.07 -3.45 349.47 -2.85 Q 350.87 -2.25 352.47 -2.25 Z M 352.47 -27 L 352.47 -27 Q 355.82 -27 358.65 -26.08 Q 361.47 -25.15 363.47 -23.38 Q 365.47 -21.6 366.6 -18.98 Q 367.72 -16.35 367.72 -13 L 367.72 -13 Q 367.72 -9.6 366.6 -7 Q 365.47 -4.4 363.47 -2.63 Q 361.47 -0.85 358.65 0.08 Q 355.82 1 352.47 1 L 352.47 1 Q 349.07 1 346.27 0.08 Q 343.47 -0.85 341.47 -2.63 Q 339.47 -4.4 338.35 -7 Q 337.22 -9.6 337.22 -13 L 337.22 -13 Q 337.22 -16.35 338.35 -18.98 Q 339.47 -21.6 341.47 -23.38 Q 343.47 -25.15 346.27 -26.08 Q 349.07 -27 352.47 -27 Z M 379.47 -20.5 L 379.47 -20.5 Q 379.47 -19.35 380.49 -18.4 Q 381.52 -17.45 383.97 -16.75 L 383.97 -16.75 L 391.72 -14.5 Q 395.32 -13.45 397.27 -11.65 Q 399.22 -9.85 399.22 -7 L 399.22 -7 Q 399.22 -5.2 398.47 -3.73 Q 397.72 -2.25 396.02 -1.2 Q 394.32 -0.15 391.62 0.43 Q 388.92 1 384.97 1 L 384.97 1 Q 382.92 1 380.94 0.7 Q 378.97 0.4 377.19 -0.13 Q 375.42 -0.65 373.97 -1.33 Q 372.52 -2 371.47 -2.75 L 371.47 -2.75 L 373.47 -5.75 Q 375.57 -4.45 378.39 -3.48 Q 381.22 -2.5 384.97 -2.5 L 384.97 -2.5 Q 388.72 -2.5 390.22 -3.5 Q 391.72 -4.5 391.72 -6 L 391.72 -6 Q 391.72 -7.15 390.67 -8.08 Q 389.62 -9 386.97 -9.75 L 386.97 -9.75 L 379.22 -12 Q 376.02 -12.95 373.99 -14.73 Q 371.97 -16.5 371.97 -19.5 L 371.97 -19.5 Q 371.97 -21.1 372.69 -22.48 Q 373.42 -23.85 374.97 -24.85 Q 376.52 -25.85 378.92 -26.43 Q 381.32 -27 384.72 -27 L 384.72 -27 Q 388.87 -27 392.24 -25.88 Q 395.62 -24.75 397.72 -23.25 L 397.72 -23.25 L 395.72 -20.25 Q 393.67 -21.55 391.07 -22.53 Q 388.47 -23.5 384.72 -23.5 L 384.72 -23.5 Q 382.07 -23.5 380.77 -22.65 Q 379.47 -21.8 379.47 -20.5 Z M 409.97 -8.25 L 409.97 -8.25 Q 409.97 -3.5 415.72 -3.5 L 415.72 -3.5 L 422.72 -3.5 L 422.72 -13 L 415.72 -13 Q 409.97 -13 409.97 -8.25 Z M 415.72 -16.5 L 422.72 -16.5 Q 422.72 -20.1 420.84 -21.8 Q 418.97 -23.5 415.97 -23.5 L 415.97 -23.5 Q 413.72 -23.5 411.57 -22.83 Q 409.42 -22.15 407.72 -21 L 407.72 -21 L 405.97 -24 Q 407.07 -24.75 408.39 -25.3 Q 409.72 -25.85 411.12 -26.23 Q 412.52 -26.6 413.89 -26.8 Q 415.27 -27 416.47 -27 L 416.47 -27 Q 419.67 -27 422.12 -26.25 Q 424.57 -25.5 426.27 -24.1 Q 427.97 -22.7 428.84 -20.78 Q 429.72 -18.85 429.72 -16.5 L 429.72 -16.5 L 429.72 0 L 415.72 0 Q 408.92 0 405.69 -2.05 Q 402.47 -4.1 402.47 -8.25 L 402.47 -8.25 Q 402.47 -12.4 405.69 -14.45 Q 408.92 -16.5 415.72 -16.5 L 415.72 -16.5 Z M 450.46 -2.25 L 450.46 -2.25 Q 452.06 -2.25 453.46 -2.85 Q 454.86 -3.45 455.91 -4.73 Q 456.96 -6 457.59 -8.05 Q 458.21 -10.1 458.21 -13 L 458.21 -13 Q 458.21 -15.9 457.59 -17.95 Q 456.96 -20 455.91 -21.28 Q 454.86 -22.55 453.46 -23.15 Q 452.06 -23.75 450.46 -23.75 L 450.46 -23.75 Q 448.86 -23.75 447.46 -23.15 Q 446.06 -22.55 445.01 -21.28 Q 443.96 -20 443.34 -17.95 Q 442.71 -15.9 442.71 -13 L 442.71 -13 Q 442.71 -10.1 443.34 -8.05 Q 443.96 -6 445.01 -4.73 Q 446.06 -3.45 447.46 -2.85 Q 448.86 -2.25 450.46 -2.25 Z M 450.46 -27 L 450.46 -27 Q 453.81 -27 456.64 -26.08 Q 459.46 -25.15 461.46 -23.38 Q 463.46 -21.6 464.59 -18.98 Q 465.71 -16.35 465.71 -13 L 465.71 -13 Q 465.71 -9.6 464.59 -7 Q 463.46 -4.4 461.46 -2.63 Q 459.46 -0.85 456.64 0.08 Q 453.81 1 450.46 1 L 450.46 1 Q 447.06 1 444.26 0.08 Q 441.46 -0.85 439.46 -2.63 Q 437.46 -4.4 436.34 -7 Q 435.21 -9.6 435.21 -13 L 435.21 -13 Q 435.21 -16.35 436.34 -18.98 Q 437.46 -21.6 439.46 -23.38 Q 441.46 -25.15 444.26 -26.08 Q 447.06 -27 450.46 -27 Z M 502.21 -22.5 L 495.96 -22.5 L 495.96 -3.5 L 502.21 -3.5 Q 503.91 -3.5 505.33 -4.03 Q 506.76 -4.55 507.78 -5.7 Q 508.81 -6.85 509.38 -8.65 Q 509.96 -10.45 509.96 -13 L 509.96 -13 Q 509.96 -15.55 509.38 -17.35 Q 508.81 -19.15 507.78 -20.3 Q 506.76 -21.45 505.33 -21.98 Q 503.91 -22.5 502.21 -22.5 L 502.21 -22.5 Z M 488.96 -26 L 502.21 -26 Q 505.66 -26 508.48 -25.1 Q 511.31 -24.2 513.31 -22.5 Q 515.31 -20.8 516.38 -18.4 Q 517.46 -16 517.46 -13 L 517.46 -13 Q 517.46 -10 516.38 -7.6 Q 515.31 -5.2 513.31 -3.5 Q 511.31 -1.8 508.48 -0.9 Q 505.66 0 502.21 0 L 502.21 0 L 495.96 0 L 495.96 9 L 488.96 9 L 488.96 -26 Z M 537.2 -2.25 L 537.2 -2.25 Q 538.8 -2.25 540.2 -2.85 Q 541.6 -3.45 542.65 -4.73 Q 543.7 -6 544.33 -8.05 Q 544.95 -10.1 544.95 -13 L 544.95 -13 Q 544.95 -15.9 544.33 -17.95 Q 543.7 -20 542.65 -21.28 Q 541.6 -22.55 540.2 -23.15 Q 538.8 -23.75 537.2 -23.75 L 537.2 -23.75 Q 535.6 -23.75 534.2 -23.15 Q 532.8 -22.55 531.75 -21.28 Q 530.7 -20 530.08 -17.95 Q 529.45 -15.9 529.45 -13 L 529.45 -13 Q 529.45 -10.1 530.08 -8.05 Q 530.7 -6 531.75 -4.73 Q 532.8 -3.45 534.2 -2.85 Q 535.6 -2.25 537.2 -2.25 Z M 537.2 -27 L 537.2 -27 Q 540.55 -27 543.38 -26.08 Q 546.2 -25.15 548.2 -23.38 Q 550.2 -21.6 551.33 -18.98 Q 552.45 -16.35 552.45 -13 L 552.45 -13 Q 552.45 -9.6 551.33 -7 Q 550.2 -4.4 548.2 -2.63 Q 546.2 -0.85 543.38 0.08 Q 540.55 1 537.2 1 L 537.2 1 Q 533.8 1 531 0.08 Q 528.2 -0.85 526.2 -2.63 Q 524.2 -4.4 523.08 -7 Q 521.95 -9.6 521.95 -13 L 521.95 -13 Q 521.95 -16.35 523.08 -18.98 Q 524.2 -21.6 526.2 -23.38 Q 528.2 -25.15 531 -26.08 Q 533.8 -27 537.2 -27 Z M 603.7 -26 L 593.7 0 L 582.7 0 L 572.7 -26 L 579.7 -26 L 587.95 -4.25 L 588.45 -4.25 L 596.7 -26 L 603.7 -26 Z M 611.95 -8.25 L 611.95 -8.25 Q 611.95 -3.5 617.7 -3.5 L 617.7 -3.5 L 624.7 -3.5 L 624.7 -13 L 617.7 -13 Q 611.95 -13 611.95 -8.25 Z M 617.7 -16.5 L 624.7 -16.5 Q 624.7 -20.1 622.82 -21.8 Q 620.95 -23.5 617.95 -23.5 L 617.95 -23.5 Q 615.7 -23.5 613.55 -22.83 Q 611.4 -22.15 609.7 -21 L 609.7 -21 L 607.95 -24 Q 609.05 -24.75 610.37 -25.3 Q 611.7 -25.85 613.1 -26.23 Q 614.5 -26.6 615.87 -26.8 Q 617.25 -27 618.45 -27 L 618.45 -27 Q 621.65 -27 624.1 -26.25 Q 626.55 -25.5 628.25 -24.1 Q 629.95 -22.7 630.82 -20.78 Q 631.7 -18.85 631.7 -16.5 L 631.7 -16.5 L 631.7 0 L 617.7 0 Q 610.9 0 607.67 -2.05 Q 604.45 -4.1 604.45 -8.25 L 604.45 -8.25 Q 604.45 -12.4 607.67 -14.45 Q 610.9 -16.5 617.7 -16.5 L 617.7 -16.5 Z M 644.44 -20.5 L 644.44 -20.5 Q 644.44 -19.35 645.47 -18.4 Q 646.49 -17.45 648.94 -16.75 L 648.94 -16.75 L 656.69 -14.5 Q 660.29 -13.45 662.24 -11.65 Q 664.19 -9.85 664.19 -7 L 664.19 -7 Q 664.19 -5.2 663.44 -3.73 Q 662.69 -2.25 660.99 -1.2 Q 659.29 -0.15 656.59 0.43 Q 653.89 1 649.94 1 L 649.94 1 Q 647.89 1 645.92 0.7 Q 643.94 0.4 642.17 -0.13 Q 640.39 -0.65 638.94 -1.33 Q 637.49 -2 636.44 -2.75 L 636.44 -2.75 L 638.44 -5.75 Q 640.54 -4.45 643.37 -3.48 Q 646.19 -2.5 649.94 -2.5 L 649.94 -2.5 Q 653.69 -2.5 655.19 -3.5 Q 656.69 -4.5 656.69 -6 L 656.69 -6 Q 656.69 -7.15 655.64 -8.08 Q 654.59 -9 651.94 -9.75 L 651.94 -9.75 L 644.19 -12 Q 640.99 -12.95 638.97 -14.73 Q 636.94 -16.5 636.94 -19.5 L 636.94 -19.5 Q 636.94 -21.1 637.67 -22.48 Q 638.39 -23.85 639.94 -24.85 Q 641.49 -25.85 643.89 -26.43 Q 646.29 -27 649.69 -27 L 649.69 -27 Q 653.84 -27 657.22 -25.88 Q 660.59 -24.75 662.69 -23.25 L 662.69 -23.25 L 660.69 -20.25 Q 658.64 -21.55 656.04 -22.53 Q 653.44 -23.5 649.69 -23.5 L 649.69 -23.5 Q 647.04 -23.5 645.74 -22.65 Q 644.44 -21.8 644.44 -20.5 Z M 683.19 -2.25 L 683.19 -2.25 Q 684.79 -2.25 686.19 -2.85 Q 687.59 -3.45 688.64 -4.73 Q 689.69 -6 690.32 -8.05 Q 690.94 -10.1 690.94 -13 L 690.94 -13 Q 690.94 -15.9 690.32 -17.95 Q 689.69 -20 688.64 -21.28 Q 687.59 -22.55 686.19 -23.15 Q 684.79 -23.75 683.19 -23.75 L 683.19 -23.75 Q 681.59 -23.75 680.19 -23.15 Q 678.79 -22.55 677.74 -21.28 Q 676.69 -20 676.07 -17.95 Q 675.44 -15.9 675.44 -13 L 675.44 -13 Q 675.44 -10.1 676.07 -8.05 Q 676.69 -6 677.74 -4.73 Q 678.79 -3.45 680.19 -2.85 Q 681.59 -2.25 683.19 -2.25 Z M 683.19 -27 L 683.19 -27 Q 686.54 -27 689.37 -26.08 Q 692.19 -25.15 694.19 -23.38 Q 696.19 -21.6 697.32 -18.98 Q 698.44 -16.35 698.44 -13 L 698.44 -13 Q 698.44 -9.6 697.32 -7 Q 696.19 -4.4 694.19 -2.63 Q 692.19 -0.85 689.37 0.08 Q 686.54 1 683.19 1 L 683.19 1 Q 679.79 1 676.99 0.08 Q 674.19 -0.85 672.19 -2.63 Q 670.19 -4.4 669.07 -7 Q 667.94 -9.6 667.94 -13 L 667.94 -13 Q 667.94 -16.35 669.07 -18.98 Q 670.19 -21.6 672.19 -23.38 Q 674.19 -25.15 676.99 -26.08 Q 679.79 -27 683.19 -27 Z M 711.94 -25.5 L 711.94 0 Q 711.94 2.15 711.24 3.98 Q 710.54 5.8 709.21 7.15 Q 707.89 8.5 705.94 9.25 Q 703.99 10 701.44 10 L 701.44 10 Q 700.14 10 698.66 9.75 Q 697.19 9.5 695.69 8.75 L 695.69 8.75 L 696.69 5.5 Q 697.44 5.9 698.46 6.2 Q 699.49 6.5 700.44 6.5 L 700.44 6.5 Q 701.39 6.5 702.21 6.15 Q 703.04 5.8 703.64 5.03 Q 704.24 4.25 704.59 3.03 Q 704.94 1.8 704.94 0 L 704.94 0 L 704.94 -25.5 L 711.94 -25.5 Z M 712.19 -32.25 L 712.19 -32.25 Q 712.19 -30.75 711.16 -29.63 Q 710.14 -28.5 708.44 -28.5 L 708.44 -28.5 Q 706.74 -28.5 705.71 -29.63 Q 704.69 -30.75 704.69 -32.25 L 704.69 -32.25 Q 704.69 -33.75 705.71 -34.88 Q 706.74 -36 708.44 -36 L 708.44 -36 Q 710.09 -36 711.14 -34.88 Q 712.19 -33.75 712.19 -32.25 Z M 736.68 0 L 736.68 -26 L 762.68 -26 Q 769.83 -26 773.26 -23.43 Q 776.68 -20.85 776.68 -15.75 L 776.68 -15.75 L 776.68 0 L 769.68 0 L 769.68 -15.75 Q 769.68 -19.35 767.88 -20.93 Q 766.08 -22.5 762.68 -22.5 L 762.68 -22.5 L 760.18 -22.5 L 760.18 0 L 753.18 0 L 753.18 -22.5 L 743.68 -22.5 L 743.68 0 L 736.68 0 Z M 798.43 -2.5 L 798.43 -2.5 Q 800.88 -2.5 803.01 -3.35 Q 805.13 -4.2 807.18 -5.75 L 807.18 -5.75 L 809.18 -2.75 Q 808.23 -1.9 806.96 -1.2 Q 805.68 -0.5 804.21 -0.03 Q 802.73 0.45 801.13 0.73 Q 799.53 1 797.93 1 L 797.93 1 Q 794.38 1 791.46 0.08 Q 788.53 -0.85 786.48 -2.63 Q 784.43 -4.4 783.31 -7 Q 782.18 -9.6 782.18 -13 L 782.18 -13 Q 782.18 -16.35 783.26 -18.98 Q 784.33 -21.6 786.26 -23.38 Q 788.18 -25.15 790.83 -26.08 Q 793.48 -27 796.68 -27 L 796.68 -27 Q 799.68 -27 802.33 -26.1 Q 804.98 -25.2 806.93 -23.48 Q 808.88 -21.75 810.03 -19.3 Q 811.18 -16.85 811.18 -13.75 L 811.18 -13.75 L 811.18 -10.25 L 789.83 -10.25 Q 790.43 -6.1 792.71 -4.3 Q 794.98 -2.5 798.43 -2.5 Z M 796.68 -23.75 L 796.68 -23.75 Q 795.23 -23.75 793.98 -23.2 Q 792.73 -22.65 791.81 -21.45 Q 790.88 -20.25 790.31 -18.35 Q 789.73 -16.45 789.68 -13.75 L 789.68 -13.75 L 803.68 -13.75 Q 803.68 -16.35 803.08 -18.25 Q 802.48 -20.15 801.51 -21.38 Q 800.53 -22.6 799.26 -23.18 Q 797.98 -23.75 796.68 -23.75 Z M 836.68 -26 L 836.68 -22.5 L 830.68 -22.5 Q 827.28 -22.5 825.48 -20.68 Q 823.68 -18.85 823.68 -15.25 L 823.68 -15.25 L 823.68 0 L 816.68 0 L 816.68 -15.25 Q 816.68 -20.35 819.9 -23.18 Q 823.13 -26 829.18 -26 L 829.18 -26 L 836.68 -26 Z M 847.93 -25.5 L 847.93 0 L 840.93 0 L 840.93 -25.5 L 847.93 -25.5 Z M 848.18 -32.25 L 848.18 -32.25 Q 848.18 -30.75 847.15 -29.63 Q 846.13 -28.5 844.43 -28.5 L 844.43 -28.5 Q 842.73 -28.5 841.7 -29.63 Q 840.68 -30.75 840.68 -32.25 L 840.68 -32.25 Q 840.68 -33.75 841.7 -34.88 Q 842.73 -36 844.43 -36 L 844.43 -36 Q 846.08 -36 847.13 -34.88 Q 848.18 -33.75 848.18 -32.25 Z" stroke-linecap="round" />
</g>
		<g transform="matrix(1.84 0 0 1.84 -385.91 -0.57)"  >
<path style="stroke: rgb(255,255,255); stroke-opacity: 0; stroke-width: 1; stroke-dasharray: none; stroke-linecap: butt; stroke-dashoffset: 0; stroke-linejoin: miter; stroke-miterlimit: 4; fill: rgb(0,0,0); fill-rule: nonzero; opacity: 1;" vector-effect="non-scaling-stroke"  transform=" translate(-61.28, -61.28)" d="M 0 61.281 C 0 27.436 27.437 0 61.281 0 C 95.126 0 122.562 27.437 122.562 61.281 C 122.562 95.126 95.125 122.562 61.281 122.562 C 27.436 122.562 0 95.125 0 61.281 z M 61.281 118.168 C 92.69800000000001 118.168 118.167 92.69900000000001 118.168 61.281000000000006 C 118.168 29.864000000000004 92.69900000000001 4.395000000000003 61.281000000000006 4.395000000000003 C 29.864000000000004 4.395000000000003 4.395000000000003 29.864000000000004 4.395000000000003 61.281000000000006 C 4.395000000000003 92.69800000000001 29.864000000000004 118.167 61.281000000000006 118.168 z" stroke-linecap="round" />
</g>
		<g transform="matrix(1.47 0 0 1.47 -399.12 -14.72)"  >
<path style="stroke: none; stroke-width: 1; stroke-dasharray: none; stroke-linecap: butt; stroke-dashoffset: 0; stroke-linejoin: miter; stroke-miterlimit: 4; fill: rgb(0,0,0); fill-rule: nonzero; opacity: 1;" vector-effect="non-scaling-stroke"  transform=" translate(-40.94, -40.3)" d="M 27.075 36.955 C 26.149 36.955 25.395 37.707 25.395 38.634 L 25.395 41.975 C 25.395 42.903 26.149 43.655 27.075 43.655 L 30.81 43.655 C 30.976 44.149 31.174999999999997 44.633 31.412 45.098 L 28.326999999999998 48.184 C 28.009999999999998 48.498999999999995 27.836 48.922 27.836 49.372 C 27.836 49.819 28.011999999999997 50.241 28.326999999999998 50.558 L 30.689 52.92 C 31.32 53.552 32.425 53.556000000000004 33.065 52.92 L 36.147999999999996 49.835 C 36.614 50.071 37.096999999999994 50.271 37.590999999999994 50.437 L 37.590999999999994 54.172 C 37.590999999999994 55.096999999999994 38.342999999999996 55.851 39.26899999999999 55.851 L 42.611999999999995 55.851 C 43.538 55.851 44.28999999999999 55.099 44.28999999999999 54.172 L 44.28999999999999 50.437 C 44.78499999999999 50.271 45.26899999999999 50.071999999999996 45.733999999999995 49.835 L 48.818 52.92 C 49.452 53.554 50.558 53.554 51.192 52.92 L 53.552 50.56 C 53.869 50.244 54.046 49.822 54.046 49.372 C 54.048 48.923 53.873 48.502 53.556 48.184 L 50.47 45.098 C 50.705999999999996 44.632 50.908 44.149 51.071 43.655 L 54.808 43.655 C 55.734 43.655 56.487 42.903 56.487 41.975 L 56.487 38.634 C 56.487 37.707 55.734 36.955 54.808 36.955 L 51.072 36.955 C 50.908 36.457 50.707 35.975 50.470000000000006 35.504999999999995 L 53.55400000000001 32.41799999999999 C 53.87100000000001 32.10199999999999 54.04800000000001 31.68199999999999 54.04800000000001 31.229999999999993 C 54.04800000000001 30.782999999999994 53.87300000000001 30.360999999999994 53.55400000000001 30.041999999999994 L 51.19300000000001 27.678999999999995 C 50.558000000000014 27.043999999999993 49.45200000000001 27.047999999999995 48.82100000000001 27.678999999999995 L 45.735000000000014 30.764999999999993 C 45.265000000000015 30.528999999999993 44.78400000000001 30.326999999999995 44.29100000000001 30.161999999999992 L 44.29100000000001 26.426999999999992 C 44.29100000000001 25.501999999999992 43.53900000000001 24.74899999999999 42.613000000000014 24.74899999999999 L 39.27 24.74899999999999 C 38.346000000000004 24.74899999999999 37.594 25.50099999999999 37.594 26.426999999999992 L 37.594 30.161999999999992 C 37.1 30.325999999999993 36.618 30.525999999999993 36.15 30.764999999999993 L 33.065999999999995 27.676999999999992 C 32.428 27.043999999999993 31.320999999999994 27.04799999999999 30.691999999999997 27.67899999999999 L 28.327999999999996 30.04399999999999 C 27.674999999999997 30.69899999999999 27.676999999999996 31.76499999999999 28.328999999999997 32.41699999999999 L 31.413999999999998 35.50399999999999 C 31.179 35.97399999999999 30.976999999999997 36.45599999999999 30.810999999999996 36.95399999999999 L 27.075 36.95399999999999 L 27.075 36.955 z M 33.182 34.698 L 29.715000000000003 31.232 L 31.879000000000005 29.067999999999998 L 35.342000000000006 32.535 C 35.635000000000005 32.827999999999996 36.092000000000006 32.88699999999999 36.44800000000001 32.675999999999995 C 37.172000000000004 32.251 37.93900000000001 31.931999999999995 38.729000000000006 31.730999999999995 C 39.132000000000005 31.626999999999995 39.41400000000001 31.263999999999996 39.41400000000001 30.845999999999993 L 39.41400000000001 26.572999999999993 L 42.470000000000006 26.572999999999993 L 42.470000000000006 30.845999999999993 C 42.470000000000006 31.263999999999992 42.752 31.626999999999992 43.15500000000001 31.730999999999995 C 43.946000000000005 31.931999999999995 44.714000000000006 32.251999999999995 45.43500000000001 32.675999999999995 C 45.793000000000006 32.885 46.24700000000001 32.827999999999996 46.54100000000001 32.535 L 50.00800000000001 29.069999999999997 L 52.168000000000006 31.231999999999996 L 48.703 34.69799999999999 C 48.410000000000004 34.992999999999995 48.351000000000006 35.44799999999999 48.563 35.80599999999999 C 48.986000000000004 36.520999999999994 49.304 37.28999999999999 49.511 38.087999999999994 C 49.615 38.492 49.977000000000004 38.77499999999999 50.392 38.77499999999999 L 54.667 38.77499999999999 L 54.667 41.831999999999994 L 50.392 41.831999999999994 C 49.977000000000004 41.831999999999994 49.614000000000004 42.11599999999999 49.511 42.51599999999999 C 49.305 43.31299999999999 48.987 44.08099999999999 48.563 44.79799999999999 C 48.352000000000004 45.15399999999999 48.410000000000004 45.609999999999985 48.703 45.90399999999999 L 52.168000000000006 49.36799999999999 L 50.00800000000001 51.530999999999985 L 46.54100000000001 48.06199999999998 C 46.24600000000001 47.768999999999984 45.79300000000001 47.710999999999984 45.43400000000001 47.92299999999998 C 44.72000000000001 48.34699999999998 43.954000000000015 48.66599999999998 43.15400000000001 48.87099999999998 C 42.75300000000001 48.97399999999998 42.47100000000001 49.335999999999984 42.47100000000001 49.75299999999998 L 42.47100000000001 54.02799999999998 L 39.41400000000001 54.02799999999998 L 39.41400000000001 49.75299999999998 C 39.41400000000001 49.33599999999998 39.13300000000001 48.973999999999975 38.73100000000001 48.87099999999998 C 37.93000000000001 48.66299999999998 37.16400000000001 48.34699999999998 36.45100000000001 47.92299999999998 C 36.092000000000006 47.71199999999998 35.63700000000001 47.76899999999998 35.34400000000001 48.06199999999998 L 31.87900000000001 51.530999999999985 L 29.71700000000001 49.36799999999999 L 33.18300000000001 45.90399999999999 C 33.477000000000004 45.60899999999999 33.534000000000006 45.15399999999999 33.32300000000001 44.79799999999999 C 32.90100000000001 44.08199999999999 32.583000000000006 43.31299999999999 32.376000000000005 42.51599999999999 C 32.272000000000006 42.11699999999999 31.909000000000006 41.831999999999994 31.495000000000005 41.831999999999994 L 27.220000000000006 41.831999999999994 L 27.220000000000006 38.77499999999999 L 31.495000000000005 38.77499999999999 C 31.911000000000005 38.77499999999999 32.272000000000006 38.492999999999995 32.376000000000005 38.087999999999994 C 32.583000000000006 37.28999999999999 32.901 36.520999999999994 33.324000000000005 35.806 C 33.532 35.448 33.476 34.991 33.182 34.698 z" stroke-linecap="round" />
</g>
		<g transform="matrix(1.47 0 0 1.47 -399.13 -14.75)"  >
<path style="stroke: none; stroke-width: 1; stroke-dasharray: none; stroke-linecap: butt; stroke-dashoffset: 0; stroke-linejoin: miter; stroke-miterlimit: 4; fill: rgb(0,0,0); fill-rule: nonzero; opacity: 1;" vector-effect="non-scaling-stroke"  transform=" translate(-40.94, -40.3)" d="M 40.941 46.094 C 44.132000000000005 46.094 46.730000000000004 43.498000000000005 46.730000000000004 40.307 C 46.730000000000004 37.108000000000004 44.132000000000005 34.509 40.941 34.509 C 37.75 34.509 35.153000000000006 37.108000000000004 35.153000000000006 40.307 C 35.153 43.498 37.75 46.094 40.941 46.094 z M 40.941 36.33 C 43.129000000000005 36.33 44.909000000000006 38.113 44.909000000000006 40.306999999999995 C 44.909000000000006 42.495 43.129000000000005 44.273999999999994 40.941 44.273999999999994 C 38.753 44.273999999999994 36.974000000000004 42.49499999999999 36.974000000000004 40.306999999999995 C 36.975 38.111 38.754 36.33 40.941 36.33 z" stroke-linecap="round" />
</g>
		<g transform="matrix(1.47 0 0 1.47 -385.76 -0.43)"  >
<path style="stroke: none; stroke-width: 1; stroke-dasharray: none; stroke-linecap: butt; stroke-dashoffset: 0; stroke-linejoin: miter; stroke-miterlimit: 4; fill: rgb(0,0,0); fill-rule: nonzero; opacity: 1;" vector-effect="non-scaling-stroke"  transform=" translate(-50, -50)" d="M 88.239 10.85 L 11.76 10.85 C 8.246 10.85 5.387 13.707 5.387 17.221 L 5.387 66.389 C 5.387 69.90299999999999 8.245 72.762 11.76 72.762 L 38.164 72.762 L 38.164 81.867 L 33.611000000000004 81.867 C 31.603000000000005 81.867 29.968000000000004 83.49900000000001 29.968000000000004 85.506 C 29.968000000000004 87.518 31.603000000000005 89.151 33.611000000000004 89.151 L 66.39 89.151 C 68.397 89.151 70.03 87.518 70.03 85.506 C 70.03 83.499 68.397 81.867 66.39 81.867 L 61.836 81.867 L 61.836 72.762 L 88.239 72.762 C 91.754 72.762 94.613 69.903 94.613 66.389 L 94.613 17.221 C 94.613 13.707 91.754 10.85 88.239 10.85 z M 11.76 12.669 L 88.239 12.669 C 90.75 12.669 92.793 14.711 92.793 17.221 L 92.793 60.013999999999996 L 7.209 60.013999999999996 L 7.209 30.207 L 15.82 30.207 C 16.323 30.207 16.731 29.799 16.731 29.297 C 16.731 28.794 16.323 28.386 15.820000000000002 28.386 L 7.209 28.386 L 7.209 24.743 L 15.815 24.743 C 16.317 24.743 16.724999999999998 24.334999999999997 16.724999999999998 23.833 C 16.724999999999998 23.33 16.316999999999997 22.923 15.814999999999998 22.923 L 7.209 22.923 L 7.209 19.27 C 7.244 19.276 7.281 19.28 7.319 19.28 L 21.277 19.28 C 21.78 19.28 22.188000000000002 18.873 22.188000000000002 18.372 C 22.188000000000002 17.869 21.78 17.461 21.277 17.461 L 7.319 17.461 C 7.281 17.461 7.244 17.467 7.209 17.474 L 7.209 17.222 C 7.209 14.71 9.25 12.669 11.76 12.669 z M 68.209 85.505 C 68.209 86.514 67.394 87.32799999999999 66.38900000000001 87.32799999999999 L 33.611 87.32799999999999 C 32.608 87.32799999999999 31.790999999999997 86.514 31.790999999999997 85.505 C 31.790999999999997 84.502 32.607 83.688 33.611 83.688 L 66.388 83.688 C 67.394 83.688 68.209 84.502 68.209 85.505 z M 60.016 81.866 L 39.984 81.866 L 39.984 72.761 L 60.015 72.761 L 60.015 81.866 z M 88.239 70.941 L 11.76 70.941 C 9.25 70.941 7.209 68.898 7.209 66.386 L 7.209 61.834999999999994 L 92.793 61.834999999999994 L 92.793 66.386 C 92.793 68.898 90.75 70.941 88.239 70.941 z" stroke-linecap="round" />
</g>
		<g transform="matrix(1.47 0 0 1.47 -422.56 -46.94)"  >
<circle style="stroke: none; stroke-width: 1; stroke-dasharray: none; stroke-linecap: butt; stroke-dashoffset: 0; stroke-linejoin: miter; stroke-miterlimit: 4; fill: rgb(0,0,0); fill-rule: nonzero; opacity: 1;" vector-effect="non-scaling-stroke"  cx="0" cy="0" r="0.91" />
</g>
		<g transform="matrix(1.47 0 0 1.47 -363.12 -28.25)"  >
<path style="stroke: none; stroke-width: 1; stroke-dasharray: none; stroke-linecap: butt; stroke-dashoffset: 0; stroke-linejoin: miter; stroke-miterlimit: 4; fill: rgb(0,0,0); fill-rule: nonzero; opacity: 1;" vector-effect="non-scaling-stroke"  transform=" translate(-65.48, -31.09)" d="M 55.53 31.91 C 55.238 32.005 55.002 32.207 54.863 32.48 C 54.725 32.754 54.701 33.064 54.797 33.352999999999994 L 55.525 35.57999999999999 C 55.717 36.16499999999999 56.379 36.50399999999999 56.969 36.31199999999999 L 59.476 35.49099999999999 C 59.699 35.79599999999999 59.946 36.08399999999999 60.214999999999996 36.35099999999999 L 58.821999999999996 39.09299999999999 C 58.68299999999999 39.36399999999999 58.659 39.67699999999999 58.75599999999999 39.96699999999999 C 58.85099999999999 40.25999999999999 59.05499999999999 40.49499999999999 59.32399999999999 40.62999999999999 L 61.41299999999999 41.69099999999999 C 61.96099999999999 41.96699999999999 62.67399999999999 41.73399999999999 62.95199999999999 41.188999999999986 L 64.34199999999998 38.444999999999986 C 64.71899999999998 38.50499999999999 65.09599999999999 38.53299999999999 65.47299999999998 38.53299999999999 L 66.29299999999998 41.04099999999999 C 66.44599999999998 41.51399999999999 66.88499999999998 41.83099999999999 67.37899999999998 41.83099999999999 C 67.50199999999998 41.83099999999999 67.61999999999998 41.81199999999999 67.73499999999997 41.77099999999999 L 69.95899999999997 41.04499999999999 C 70.55899999999997 40.84899999999999 70.88699999999997 40.200999999999986 70.69199999999998 39.600999999999985 L 69.87299999999998 37.09699999999999 C 70.17799999999998 36.87299999999999 70.46699999999997 36.624999999999986 70.73199999999997 36.356999999999985 L 73.47599999999997 37.74899999999999 C 74.02399999999997 38.02499999999999 74.73599999999998 37.79199999999999 75.01299999999998 37.24599999999999 L 76.07099999999998 35.164999999999985 C 76.21099999999998 34.890999999999984 76.23599999999999 34.579999999999984 76.14199999999998 34.28899999999999 C 76.04599999999998 33.99799999999999 75.84299999999998 33.759999999999984 75.57099999999998 33.621999999999986 L 72.82699999999998 32.22999999999998 C 72.88699999999999 31.85699999999998 72.91599999999998 31.477999999999984 72.91599999999998 31.10099999999998 L 75.42599999999999 30.278999999999982 C 76.02599999999998 30.08599999999998 76.353 29.43499999999998 76.15499999999999 28.83899999999998 L 75.42899999999999 26.61099999999998 C 75.23599999999999 26.02699999999998 74.57399999999998 25.68699999999998 73.98499999999999 25.88199999999998 L 71.47799999999998 26.70099999999998 C 71.25099999999998 26.39099999999998 71.00499999999998 26.103999999999978 70.73699999999998 25.83599999999998 L 72.12699999999998 23.09499999999998 C 72.26799999999999 22.822999999999983 72.29199999999999 22.51099999999998 72.19699999999997 22.22199999999998 C 72.10099999999997 21.92899999999998 71.89899999999997 21.69299999999998 71.62399999999998 21.55399999999998 L 69.53999999999998 20.493999999999982 C 68.99299999999998 20.21399999999998 68.27799999999998 20.45199999999998 68.00199999999998 20.99599999999998 L 66.60799999999998 23.740999999999982 C 66.23299999999998 23.679999999999982 65.85499999999998 23.65299999999998 65.47899999999997 23.65299999999998 L 64.65999999999997 21.144999999999982 C 64.46899999999997 20.55699999999998 63.816999999999965 20.21399999999998 63.21699999999997 20.41199999999998 L 60.99099999999997 21.13799999999998 C 60.391999999999975 21.33499999999998 60.06399999999997 21.98199999999998 60.25999999999997 22.58299999999998 L 61.07899999999997 25.08899999999998 C 60.775999999999975 25.31199999999998 60.48799999999997 25.557999999999982 60.21899999999997 25.82799999999998 L 57.47499999999997 24.435999999999982 C 56.92999999999997 24.159999999999982 56.214999999999975 24.392999999999983 55.93899999999997 24.93799999999998 L 54.87899999999997 27.025999999999982 C 54.73999999999997 27.29899999999998 54.71699999999997 27.60999999999998 54.81199999999997 27.898999999999983 C 54.907999999999966 28.191999999999982 55.10999999999997 28.427999999999983 55.38099999999997 28.564999999999984 L 58.126999999999974 29.958999999999982 C 58.06699999999997 30.333999999999982 58.037999999999975 30.712999999999983 58.037999999999975 31.09199999999998 L 55.53 31.91 z M 59.08 29.08 L 55.992 27.514 L 56.988 25.549 L 60.074 27.114 C 60.318999999999996 27.238 60.62 27.181 60.803 26.974 C 61.196 26.532 61.638999999999996 26.152 62.122 25.843 C 62.356 25.695 62.461 25.405 62.373 25.144 L 61.434 22.267 L 63.525 21.581 L 64.465 24.459 C 64.551 24.722 64.791 24.89 65.08 24.876 C 65.66 24.84 66.24 24.886000000000003 66.81099999999999 25.011000000000003 C 67.083 25.072000000000003 67.35799999999999 24.941000000000003 67.48299999999999 24.693 L 69.04999999999998 21.607000000000003 L 71.01299999999998 22.603 L 69.44899999999998 25.691000000000003 C 69.32299999999998 25.937 69.38099999999999 26.239000000000004 69.58799999999998 26.42 C 70.02599999999998 26.807000000000002 70.40599999999998 27.252000000000002 70.72099999999998 27.743000000000002 C 70.87099999999998 27.976000000000003 71.15899999999998 28.080000000000002 71.42199999999997 27.993000000000002 L 74.29499999999997 27.05 L 74.97999999999998 29.147000000000002 L 72.10699999999997 30.085 C 71.84399999999997 30.171 71.67199999999997 30.424 71.68999999999997 30.7 C 71.72499999999997 31.279 71.67799999999997 31.861 71.55299999999997 32.431 C 71.49299999999997 32.702 71.62399999999997 32.977999999999994 71.86999999999996 33.102999999999994 L 74.95699999999997 34.666999999999994 L 73.96299999999997 36.629999999999995 L 70.87399999999997 35.068 C 70.62899999999996 34.943 70.32699999999997 35 70.14499999999997 35.208999999999996 C 69.75799999999997 35.647 69.31699999999996 36.026999999999994 68.82899999999997 36.339999999999996 C 68.59499999999997 36.486 68.49299999999997 36.775999999999996 68.57799999999996 37.038999999999994 L 69.51799999999996 39.913 L 67.42399999999996 40.596 L 66.48599999999996 37.723 C 66.40399999999997 37.473 66.17099999999996 37.303 65.90999999999997 37.303 C 65.89699999999996 37.303 65.88399999999997 37.305 65.86999999999996 37.305 C 65.29099999999997 37.342999999999996 64.70999999999997 37.297 64.13799999999996 37.171 C 63.86699999999996 37.114 63.59299999999996 37.243 63.46799999999996 37.491 L 61.90299999999996 40.576 L 59.93999999999996 39.58 L 61.50699999999996 36.492 C 61.63199999999996 36.245 61.572999999999965 35.943 61.36399999999996 35.760999999999996 C 60.92499999999996 35.376 60.545999999999964 34.931999999999995 60.231999999999964 34.443999999999996 C 60.08399999999996 34.211999999999996 59.79399999999996 34.105999999999995 59.53199999999996 34.193999999999996 L 56.65999999999996 35.135999999999996 L 55.97499999999996 33.038999999999994 L 58.847999999999956 32.099999999999994 C 59.11199999999996 32.01599999999999 59.28299999999996 31.763999999999996 59.26399999999995 31.484999999999996 C 59.226999999999954 30.906999999999996 59.27399999999995 30.320999999999994 59.399999999999956 29.752999999999997 C 59.457 29.48 59.326 29.204 59.08 29.08 z" stroke-linecap="round" />
</g>
		<g transform="matrix(1.47 0 0 1.47 -363.13 -28.26)"  >
<path style="stroke: none; stroke-width: 1; stroke-dasharray: none; stroke-linecap: butt; stroke-dashoffset: 0; stroke-linejoin: miter; stroke-miterlimit: 4; fill: rgb(0,0,0); fill-rule: nonzero; opacity: 1;" vector-effect="non-scaling-stroke"  transform=" translate(-65.48, -31.09)" d="M 65.477 35.117 C 65.9 35.117 66.32000000000001 35.05 66.727 34.916999999999994 C 67.748 34.583999999999996 68.578 33.873 69.06400000000001 32.91499999999999 C 69.549 31.955999999999992 69.63300000000001 30.86799999999999 69.299 29.845999999999993 C 68.75800000000001 28.18199999999999 67.21900000000001 27.066999999999993 65.47600000000001 27.066999999999993 C 65.05300000000001 27.066999999999993 64.63300000000001 27.134999999999994 64.22600000000001 27.269999999999992 C 63.20500000000001 27.59999999999999 62.375000000000014 28.31299999999999 61.890000000000015 29.27199999999999 C 61.40400000000002 30.23099999999999 61.320000000000014 31.32399999999999 61.655000000000015 32.343999999999994 C 62.194 34.003 63.731 35.117 65.477 35.117 z M 62.971 29.82 C 63.311 29.152 63.88999999999999 28.652 64.604 28.421 C 64.887 28.328 65.181 28.279 65.475 28.279 C 66.693 28.279 67.76599999999999 29.062 68.146 30.222 C 68.379 30.933 68.32000000000001 31.695 67.981 32.365 C 67.64099999999999 33.035000000000004 67.062 33.531 66.35 33.765 C 66.06599999999999 33.857 65.77199999999999 33.904 65.47699999999999 33.904 C 64.258 33.904 63.18599999999999 33.125 62.80799999999999 31.968000000000004 C 62.572 31.253 62.631 30.491 62.971 29.82 z" stroke-linecap="round" />
</g>
		<g transform="matrix(2.52 0 0 2.52 -0.31 -0.45)"  >
<rect style="stroke: none; stroke-width: 1; stroke-dasharray: none; stroke-linecap: butt; stroke-dashoffset: 0; stroke-linejoin: miter; stroke-miterlimit: 4; fill: none; fill-rule: nonzero; opacity: 1;" vector-effect="non-scaling-stroke"  x="-197.76" y="-44.795" rx="0" ry="0" width="395.52" height="89.59" />
</g>
</g>
</g>
</svg>